<?xml version="1.0" encoding="UTF-8"?>
<svg viewBox="0 0 100 100" version="1.1" xmlns="http://www.w3.org/2000/svg">
    <path d="M50,100 C43.1045752,100 36.6339869,98.7009804 30.5882353,96.1029412 C24.5424837,93.504902 19.2320261,89.9101307 14.6568627,85.3186275 C10.0816993,80.7271242 6.49509804,75.4166667 3.89705882,69.3872549 C1.29901961,63.3578431 0,56.8954248 0,50 C0,43.1045752 1.29901961,36.6339869 3.89705882,30.5882353 C6.49509804,24.5424837 10.0816993,19.2320261 14.6568627,14.6568627 C19.2320261,10.0816993 24.5424837,6.49509804 30.5882353,3.89705882 C36.6339869,1.29901961 43.1045752,0 50,0 C56.8954248,0 63.3660131,1.29901961 69.4117647,3.89705882 C75.4575163,6.49509804 80.7679739,10.0816993 85.3431373,14.6568627 C89.9183007,19.2320261 93.504902,24.5424837 96.1029412,30.5882353 C98.7009804,36.6339869 100,43.1045752 100,50 C100,56.8954248 98.7009804,63.3578431 96.1029412,69.3872549 C93.504902,75.4166667 89.9183007,80.7271242 85.3431373,85.3186275 C80.7679739,89.9101307 75.4575163,93.504902 69.4117647,96.1029412 C63.3660131,98.7009804 56.8954248,100 50,100 Z M31.9117647,26.4215686 L19.4607843,39.1176471 C19.1666667,39.4771242 18.9215686,39.869281 18.7254902,40.2941176 C18.5294118,40.7189542 18.4313725,41.1111111 18.4313725,41.4705882 C18.4313725,42.4183007 18.7418301,43.2026144 19.3627451,43.8235294 C19.9836601,44.4444444 20.7679739,44.754902 21.7156863,44.754902 C22.5980392,44.754902 23.3660131,44.4117647 24.0196078,43.7254902 L29.2156863,38.3823529 L31.127451,36.3235294 L31.0294118,38.7745098 L31.0294118,71.4705882 C31.0294118,72.3856209 31.3398693,73.1454248 31.9607843,73.75 C32.5816993,74.3545752 33.3660131,74.6568627 34.3137255,74.6568627 C35.2941176,74.6568627 36.0947712,74.3545752 36.7156863,73.75 C37.3366013,73.1454248 37.6470588,72.3856209 37.6470588,71.4705882 L37.6470588,38.7254902 L37.5,36.3235294 L39.4117647,38.3823529 L44.6078431,43.8235294 C45.2287582,44.4444444 46.0130719,44.754902 46.9607843,44.754902 C47.875817,44.754902 48.6356209,44.4526144 49.2401961,43.8480392 C49.8447712,43.2434641 50.1470588,42.4509804 50.1470588,41.4705882 C50.1470588,40.5555556 49.8039216,39.7712418 49.1176471,39.1176471 L36.7156863,26.4215686 C36.0620915,25.7679739 35.2777778,25.4248366 34.3627451,25.3921569 C33.4477124,25.3594771 32.630719,25.7026144 31.9117647,26.4215686 Z M68.1372549,73.6764706 L80.4901961,61.0294118 C81.2091503,60.245098 81.5686275,59.4444444 81.5686275,58.627451 C81.5686275,57.6797386 81.2581699,56.9035948 80.6372549,56.2990196 C80.0163399,55.6944444 79.2156863,55.3921569 78.2352941,55.3921569 C77.3856209,55.3921569 76.6339869,55.7189542 75.9803922,56.372549 L70.7843137,61.6666667 L68.872549,63.7254902 L68.9215686,61.372549 L68.9215686,28.627451 C68.9215686,27.7124183 68.6111111,26.9444444 67.9901961,26.3235294 C67.369281,25.7026144 66.6013072,25.3921569 65.6862745,25.3921569 C64.7058824,25.3921569 63.8970588,25.7026144 63.2598039,26.3235294 C62.622549,26.9444444 62.3039216,27.7124183 62.3039216,28.627451 L62.3039216,61.4215686 L62.4509804,63.7745098 L60.5392157,61.6666667 L55.3431373,56.372549 C54.754902,55.7189542 53.9869281,55.3921569 53.0392157,55.3921569 C52.0588235,55.3921569 51.2745098,55.6944444 50.6862745,56.2990196 C50.0980392,56.9035948 49.8039216,57.6797386 49.8039216,58.627451 C49.8039216,59.4771242 50.130719,60.2777778 50.7843137,61.0294118 L63.1862745,73.6764706 C63.8398693,74.3300654 64.6568627,74.6568627 65.6372549,74.6568627 C66.6176471,74.6568627 67.4509804,74.3300654 68.1372549,73.6764706 Z" />
</svg>
