<?xml version="1.0" encoding="UTF-8"?>
<svg viewBox="0 0 100 100" version="1.1" xmlns="http://www.w3.org/2000/svg">
    <path d="M89.7477117,10 C96.4969981,10 99.9007578,13.1888116 99.9975395,19.9879252 L100,20.2902666 L100,66.1761239 C100,73.0816022 96.6938421,76.3704891 90.0429776,76.4643732 L89.7477117,76.4664397 L10.2923132,76.4664397 C3.54335488,76.4664397 0.100554444,73.277628 0.00213247597,66.4784653 L0,66.1761239 L0,20.2902666 C0,13.3847964 3.34503461,10.0959423 9.99671927,10.00205 L10.2923132,10 L89.7477117,10 Z M52.0111709,22.3002995 C50.3867983,22.3002995 49.2264854,23.5790386 49.2264854,25.1368306 L49.2264854,33.9254766 L48.5535251,33.9254766 C31.8687871,33.9254766 24.6054919,44.6437936 24.6054919,61.825836 C24.6054919,63.8252906 25.7425117,64.9413378 26.9956694,64.9413378 C27.970211,64.9413378 29.0376792,64.7088622 29.8499065,63.2208539 C33.8300089,55.7266094 39.4109445,53.4056249 48.1706637,53.3408433 L49.2264854,53.3394493 L49.2264854,62.2210856 C49.2264854,63.7787955 50.3867983,64.9413378 51.9647485,64.9413378 C53.1018503,64.9413378 54.0300515,64.4763045 55.1439421,63.430041 L73.4531347,46.1085952 C74.3348315,45.2716009 74.6366589,44.3880293 74.6366589,43.6208187 C74.6366589,42.8303194 74.3577967,41.9700365 73.4531347,41.1098355 L55.1439421,23.9510817 C53.9139956,22.7885394 53.1482727,22.3002995 52.0111709,22.3002995 Z M29.8184115,90 L69.986549,90 C71.7889833,90 73.2300449,88.5585689 73.2300449,86.7967642 C73.2300449,84.9949671 71.7889833,83.5134863 69.986549,83.5134863 L29.8184115,83.5134863 C28.0562482,83.5134863 26.5745054,84.9949671 26.5745054,86.7967642 C26.5745054,88.5585689 28.0562482,90 29.8184115,90 Z" />
</svg>
