<?xml version="1.0" encoding="UTF-8"?>
<svg viewBox="0 0 100 100" version="1.1" xmlns="http://www.w3.org/2000/svg">
    <path d="M89.7476949,10 C96.4969809,10 99.9006166,13.1888001 99.9978552,19.9879599 L100,20.2902666 L100,66.1761239 C100,73.0816023 96.6941795,76.3704898 90.0432869,76.4643694 L89.7476949,76.4664397 L10.2923301,76.4664397 C3.54336782,76.4664397 0.100544514,73.2776316 0.00217008492,66.4784323 L0,66.1761239 L0,20.2902666 C0,13.3848285 3.34501226,10.0959496 9.99672689,10.0020702 L10.2923301,10 L89.7476949,10 Z M47.2310569,22.3002995 C46.153822,22.3002995 45.4098422,22.7385168 44.288768,23.7730934 L25.7893782,41.1098095 C24.8840284,41.9700511 24.6055323,42.8302926 24.6055323,43.6208187 C24.6055323,44.3880697 24.9073156,45.2715958 25.7893782,46.1086004 L44.0983089,63.4300726 C45.212198,64.4763331 46.1404074,64.9413378 47.2774888,64.9413378 C48.855459,64.9413378 50.0157325,63.7788261 50.0157325,62.2210538 L50.0157325,53.3394195 L51.0715535,53.3408233 C59.8313359,53.4056075 65.4122751,55.7265812 69.3923581,63.2208167 C70.2045592,64.7088355 71.2720165,64.9413378 72.2466102,64.9413378 C73.4997475,64.9413378 74.6367813,63.8253237 74.6367813,61.8258026 C74.6367813,44.6438185 67.3734517,33.9254643 50.6886855,33.9254643 L50.0157325,33.9254643 L50.0157325,25.1368205 C50.0157325,23.5790433 48.855459,22.3002995 47.2310569,22.3002995 Z M29.8184604,90 L69.9866638,90 C71.7891011,90 73.2301651,88.5585689 73.2301651,86.7967642 C73.2301651,84.9949671 71.7891011,83.5134863 69.9866638,83.5134863 L29.8184604,83.5134863 C28.0562942,83.5134863 26.574549,84.9949671 26.574549,86.7967642 C26.574549,88.5585689 28.0562942,90 29.8184604,90 Z" />
</svg>
