<?xml version="1.0" encoding="UTF-8"?>
<svg viewBox="0 0 100 100" version="1.1" xmlns="http://www.w3.org/2000/svg">
    <path d="M39.2647187,0 C40.413949,0 41.3168749,0.377596391 41.9734964,1.13278917 L61.1297212,20.5526163 C61.8926848,21.3485069 62.2741667,22.272038 62.2741667,23.3232096 C62.2741667,24.3937792 61.8926848,25.3304008 61.1297212,26.1330744 L41.9634199,45.3559733 C41.3396263,46.0522112 40.4598003,46.4003301 39.323942,46.4003301 C38.2798498,46.4003301 37.4031926,46.0456818 36.6939703,45.336385 C35.9848115,44.6270249 35.6302321,43.7404515 35.6302321,42.6766649 C35.6302321,42.183853 35.7172767,41.718997 35.891366,41.2820971 C36.065392,40.8452606 36.3461403,40.4363801 36.733611,40.0554556 L50.5747567,26.2978628 C49.2103072,25.9679057 47.7135321,25.7318327 46.0844313,25.5896437 C44.4553306,25.4473913 42.7604789,25.3762652 40.9998764,25.3762652 C36.3455382,25.3762652 31.9890594,26.2404927 27.93044,27.9689479 C23.871884,29.6974031 20.3104363,32.092587 17.2460969,35.1544998 C14.1817574,38.2164125 11.7855737,41.7738631 10.0575456,45.8268515 C8.32958088,49.8798398 7.46559852,54.2308672 7.46559852,58.8799337 C7.46559852,63.5686203 8.32958088,67.9428176 10.0575456,72.0025256 C11.7855737,76.0621701 14.1817574,79.6246318 17.2460969,82.6899107 C20.3104363,85.7551833 23.871884,88.153709 27.93044,89.8854878 C31.9890594,91.6172628 36.3455382,92.4831503 40.9998764,92.4831503 C45.6544047,92.4831503 50.0092675,91.6172628 54.0644647,89.8854878 C58.1196619,88.153709 61.6794619,85.7551833 64.7438646,82.6899107 C67.8082674,79.6246318 70.2061306,76.0621701 71.9374542,72.0025256 C73.6687144,67.9428176 74.5343444,63.5686203 74.5343444,58.8799337 C74.5343444,57.7698706 74.8626235,56.8536614 75.5191817,56.1313058 C76.1758032,55.4088868 77.0426057,55.0476774 78.1195892,55.0476774 C79.2554475,55.0476774 80.1861314,55.4088868 80.9116408,56.1313058 C81.6372136,56.8536614 82,57.7698706 82,58.8799337 C82,64.6062893 80.94393,69.9475682 78.8317901,74.9037704 C76.7196501,79.859922 73.7866857,84.2171111 70.0328968,87.9753378 C66.279108,91.7335582 61.9248156,94.6772285 56.9700197,96.8063485 C52.0152871,98.9354495 46.691906,100 40.9998764,100 C35.3080369,100 29.9847192,98.9354495 25.0299233,96.8063485 C20.0751907,94.6772285 15.72093,91.7335582 11.9671412,87.9753378 C8.21335234,84.2171111 5.28038794,79.859922 3.16824797,74.9037704 C1.05608266,69.9475682 0,64.6062893 0,58.8799337 C0,53.1930715 1.05608266,47.8749307 3.16824797,42.9255115 C5.28038794,37.9760922 8.21335234,33.6256037 11.9671412,29.8740458 C15.72093,26.1224879 20.0751907,23.1920509 25.0299233,21.0827346 C29.9847192,18.9733549 35.3080369,17.9186651 40.9998764,17.9186651 C42.4325801,17.9186651 43.8237419,17.9897279 45.1733618,18.1318535 C46.5230451,18.2740425 47.7911023,18.4673257 48.9775333,18.7117031 L36.6845593,6.49245188 C36.3297897,6.10487119 36.065392,5.68613318 35.891366,5.23623784 C35.7172767,4.7863425 35.6302321,4.31166076 35.6302321,3.81219263 C35.6302321,2.74834261 35.9831321,1.84703051 36.6889321,1.10825634 C37.3947321,0.369418781 38.2533276,0 39.2647187,0 Z" />
</svg>
