<?xml version="1.0" encoding="UTF-8"?>
<svg viewBox="0 0 100 100" version="1.1" xmlns="http://www.w3.org/2000/svg">
    <path d="M49.9685446,100 C56.8304335,100 63.2734191,98.7007398 69.2975014,96.1022195 C75.3215168,93.5036791 80.6356688,89.8922834 85.2399576,85.2680324 C89.8444472,80.6437801 93.4555767,75.3177474 96.073346,69.2899345 C98.6911153,63.2620612 100,56.8320998 100,50.0000502 C100,43.1679337 98.6911153,36.7379388 96.073346,30.7100655 C93.4555767,24.6822593 89.8359132,19.3562236 85.2143555,14.7319585 C80.5930656,10.1076935 75.2703796,6.49630077 69.2462973,3.89778046 C63.2222819,1.29926015 56.7792963,0 49.9173405,0 C43.0971511,0 36.6731411,1.29926015 30.6453106,3.89778046 C24.61748,6.49630077 19.3118285,10.1076935 14.7283561,14.7319585 C10.1449505,19.3562236 6.54436309,24.6822593 3.92659376,30.7100655 C1.30886459,36.7379388 0,43.1679337 0,50.0000502 C0,56.8320998 1.30886459,63.2620612 3.92659376,69.2899345 C6.54436309,75.3177474 10.1534845,80.6437801 14.7539581,85.2680324 C19.3544317,89.8922834 24.6686172,93.5036791 30.6965147,96.1022195 C36.7243453,98.7007398 43.1483552,100 49.9685446,100 Z M49.9685446,91.6939743 C44.2058377,91.6939743 38.8099263,90.6213228 33.7808106,88.4760199 C28.7517618,86.3307116 24.3368613,83.3479621 20.5361093,79.5277716 C16.7353572,75.7075422 13.7611,71.2727813 11.6133377,66.223489 C9.46557546,61.1741296 8.39169433,55.7663167 8.39169433,50.0000502 C8.39169433,44.2337168 9.45704144,38.8258704 11.5877357,33.776511 C13.7184968,28.7272187 16.68422,24.2924611 20.4849051,20.4722384 C24.2856572,16.6520157 28.7005911,13.6692563 33.7297068,11.52396 C38.7588226,9.37866378 44.1547005,8.30601565 49.9173405,8.30601565 C55.7141835,8.30601565 61.129037,9.37866378 66.161901,11.52396 C71.194832,13.6692563 75.6182999,16.6520157 79.4323048,20.4722384 C83.2462428,24.2924611 86.235627,28.7272187 88.4004573,33.776511 C90.5652876,38.8258704 91.6477027,44.2337168 91.6477027,50.0000502 C91.6477027,55.7663167 90.5757292,61.1741296 88.4317821,66.223489 C86.2878351,71.2727813 83.3154855,75.7075422 79.5147334,79.5277716 C75.7139814,83.3479621 71.2905134,86.3307116 66.2443296,88.4760199 C61.1982128,90.6213228 55.7729511,91.6939743 49.9685446,91.6939743 Z M32.4767117,27.0959938 L20.3462524,39.4389318 C19.7056987,40.2088166 19.3854219,40.9768596 19.3854219,41.7430607 C19.3854219,42.6571441 19.6810672,43.4119259 20.2723578,44.0074062 C20.8636484,44.6028864 21.6198296,44.9006266 22.5409016,44.9006266 C23.3672626,44.9006266 24.117788,44.5592518 24.7924777,43.8765023 L29.8259441,38.6862597 L31.6523252,36.642532 L31.5784306,39.0388864 L31.5784306,70.8672104 C31.5784306,71.7622727 31.8863916,72.5037598 32.5023137,73.0916719 C33.1183028,73.6795169 33.8697652,73.9734395 34.7567011,73.9734395 C35.7119091,73.9734395 36.4851584,73.6776081 37.076449,73.0859455 C37.6677395,72.4942828 37.9633848,71.7547045 37.9633848,70.8672104 L37.9633848,39.0388864 L37.8382861,36.642532 L39.7158713,38.6862597 L44.7890962,43.9276382 C45.4031442,44.5762971 46.1404167,44.9006266 47.0009138,44.9006266 C47.9143554,44.9006266 48.660095,44.6028864 49.2381327,44.0074062 C49.8161705,43.4119259 50.1051893,42.6571441 50.1051893,41.7430607 C50.1051893,40.8668856 49.7886943,40.0988426 49.1557041,39.4389318 L37.1162075,27.0959938 C36.5249169,26.5043311 35.7772697,26.1829151 34.8732658,26.1317457 C33.9691949,26.0805094 33.1703436,26.4019254 32.4767117,27.0959938 Z M67.5229269,72.9949256 L79.4998742,60.6635409 C80.1745639,59.9883596 80.5119088,59.2335443 80.5119088,58.399095 C80.5119088,57.4509211 80.2228899,56.6876334 79.6448522,56.1092319 C79.0668144,55.5308304 78.3040068,55.2416296 77.3564291,55.2416296 C76.4694263,55.2416296 75.7321538,55.5450627 75.1446115,56.1519288 L70.0713866,61.4047602 L68.2450055,63.3972515 L68.3189001,61.0521335 L68.3189001,29.2863982 C68.3189001,28.3571783 68.0194396,27.5967371 67.4205186,27.0050744 C66.8216646,26.4133448 66.0617016,26.1174799 65.1406296,26.1174799 C64.2536268,26.1174799 63.4974456,26.4237595 62.8720859,27.0363185 C62.2466592,27.6488776 61.9339459,28.3989041 61.9339459,29.2863982 L61.9339459,61.1033698 L62.0590446,63.4484879 L60.1701142,61.4047602 L55.147993,56.1519288 C54.5150028,55.5450627 53.7644775,55.2416296 52.8964169,55.2416296 C51.9753449,55.2416296 51.2276977,55.5289216 50.6534751,56.1035055 C50.0791857,56.6781563 49.792041,57.4433529 49.792041,58.399095 C49.792041,59.207022 50.0877197,59.9618373 50.6790772,60.6635409 L62.7696776,72.9949256 C63.3345294,73.5866552 64.1011523,73.9061959 65.0695463,73.9535477 C66.0380071,74.0009665 66.8558007,73.6814258 67.5229269,72.9949256 Z" />
</svg>
