<?xml version="1.0" encoding="UTF-8"?>
<svg viewBox="0 0 100 100" version="1.1" xmlns="http://www.w3.org/2000/svg">
    <path d="M50 100C56.8301 100 63.2516 98.6928 69.2647 96.0784C75.3105 93.4641 80.6373 89.8529 85.2451 85.2451C89.8529 80.6373 93.4641 75.3268 96.0784 69.3137C98.6928 63.268 100 56.8301 100 50C100 43.1699 98.6928 36.7484 96.0784 30.7353C93.4641 24.6895 89.8529 19.3627 85.2451 14.7549C80.6373 10.1471 75.3105 6.53595 69.2647 3.92157C63.219 1.30719 56.781 0 49.951 0C43.1209 0 36.683 1.30719 30.6373 3.92157C24.6242 6.53595 19.3137 10.1471 14.7059 14.7549C10.1307 19.3627 6.53595 24.6895 3.92157 30.7353C1.30719 36.7484 0 43.1699 0 50C0 56.8301 1.30719 63.268 3.92157 69.3137C6.53595 75.3268 10.1471 80.6373 14.7549 85.2451C19.3627 89.8529 24.6732 93.4641 30.6863 96.0784C36.732 98.6928 43.1699 100 50 100ZM50.098 75.2451C48.9869 75.2451 48.0719 74.902 47.3529 74.2157C46.634 73.4967 46.2745 72.5654 46.2745 71.4216V46.2745L46.6667 35.5392L41.6176 41.6176L35.6373 47.6471C34.8856 48.3987 33.9869 48.7745 32.9412 48.7745C31.8954 48.7745 31.0131 48.4314 30.2941 47.7451C29.6078 47.0261 29.2647 46.1438 29.2647 45.098C29.2647 44.0196 29.6078 43.1373 30.2941 42.451L47.1569 25.6863C48.1046 24.7059 49.085 24.2157 50.098 24.2157C51.1111 24.2157 52.0915 24.7059 53.0392 25.6863L69.902 42.451C70.5882 43.1699 70.9314 44.0523 70.9314 45.098C70.9314 46.1438 70.5719 47.0261 69.8529 47.7451C69.134 48.4314 68.2516 48.7745 67.2059 48.7745C66.0948 48.7745 65.1961 48.3987 64.5098 47.6471L58.5784 41.6176L53.4804 35.4902L53.8726 46.2745V71.4216C53.8726 72.5654 53.5131 73.4967 52.7941 74.2157C52.1078 74.902 51.2092 75.2451 50.098 75.2451Z" />
</svg>
