<?xml version="1.0" encoding="UTF-8"?>
<svg viewBox="0 0 100 100" version="1.1" xmlns="http://www.w3.org/2000/svg">
    <path d="M12.2018833,80.9976241 L87.7983121,80.9976241 C92.2815894,80.9976241 95,78.669841 95,75.2494085 C95,70.498778 90.1353833,66.2232738 86.033543,61.9952483 C82.8857349,58.7173779 82.0272329,51.9715284 81.6456982,46.5082815 C81.3118309,28.2660007 76.4469212,15.6769783 63.760061,11.1164081 C61.9476244,4.9405934 57.0350473,0 49.976264,0 C42.9651481,0 38.0048058,4.9405934 36.2401344,11.1164081 C23.5532742,15.6769783 18.6883645,28.2660007 18.3544971,46.5082815 C17.9729624,51.9715284 17.1144604,58.7173779 13.9665547,61.9952483 C9.81714464,66.2232738 5,70.498778 5,75.2494085 C5,78.669841 7.67084082,80.9976241 12.2018833,80.9976241 Z M49.976264,100 C58.0844143,100 63.9985934,94.1092513 64.6185629,87.4584368 L35.3816324,87.4584368 C36.0016019,94.1092513 41.915781,100 49.976264,100 Z" />
</svg>
