<?xml version="1.0" encoding="UTF-8"?>
<svg viewBox="0 0 100 100" version="1.1" xmlns="http://www.w3.org/2000/svg">
    <path d="M11.373,82.5266235 L60.5429,82.5266235 C60.1523,89.0609929 55.9531,93.2236275 50.0449,93.2236275 C44.1855,93.2236275 39.9375,89.0609929 39.5957,82.5266235 L31.9785,82.5266235 C32.3691,91.8199445 39.7422,100 50.0449,100 C60.3964,100 67.7695,91.8683491 68.1601,82.5266235 L88.7656,82.5266235 C93.3554,82.5266235 96.1384,80.1548986 96.1384,76.6698983 C96.1384,71.8295897 91.1582,67.4733765 86.9589,63.1655381 C83.7363,59.8257911 82.8574,52.9525996 82.4668,47.3862225 C82.125,28.3156339 77.1445,15.9729141 64.1562,11.3262536 C62.4961,5.03385743 57.2714,0 50.0449,0 C42.8672,0 37.5937,5.03385743 35.9824,11.3262536 C22.9941,15.9729141 18.0136,28.3156339 17.6718,47.3862225 C17.2812,52.9525996 16.4023,59.8257911 13.1796,63.1655381 C8.9316,67.4733765 4,71.8295897 4,76.6698983 C4,80.1548986 6.7343,82.5266235 11.373,82.5266235 Z M13.4726,75.2178107 L13.4726,74.6370153 C14.3515,73.1848781 17.2812,70.3775517 19.8203,67.5217513 C23.3359,63.6495838 24.9961,57.4540365 25.4355,47.967117 C25.8261,26.8634967 32.1738,20.087154 40.5234,17.860623 C41.7441,17.5701757 42.4277,16.9409064 42.4765,15.7308416 C42.623,10.6486094 45.5527,7.11516482 50.0449,7.11516482 C54.5859,7.11516482 57.4668,10.6486094 57.6621,15.7308416 C57.7109,16.9409064 58.3457,17.5701757 59.5664,17.860623 C67.9648,20.087154 74.3125,26.8634967 74.7031,47.967117 C75.1425,57.4540365 76.8027,63.6495838 80.2695,67.5217513 C82.8574,70.3775517 85.7382,73.1848781 86.6172,74.6370153 L86.6172,75.2178107 L13.4726,75.2178107 Z" />
</svg>
