<?xml version="1.0" encoding="UTF-8"?>
<svg viewBox="0 0 100 100" version="1.1" xmlns="http://www.w3.org/2000/svg">
    <path d="M0,84.4911147 C0,88.2003231 2.43133724,89.6478191 5.08779829,89.6478191 C6.61864025,89.6478191 7.9243584,88.7431341 9.63529941,87.7027464 C14.5880234,84.3101777 20.7113913,82.2294023 26.9698334,82.2746365 C33.4533994,82.3198708 39.8919406,84.7172859 44.9347141,89.6025848 C46.9158037,91.4119548 48.3565961,92 50.0225124,92 C51.6434039,92 53.1292211,91.4119548 55.0652859,89.6025848 C60.1080594,84.7625202 66.5466006,82.3198708 73.0751914,82.2746365 C79.3336335,82.2294023 85.4119766,84.3101777 90.3647006,87.7027464 C92.0756416,88.7431341 93.3813597,89.6478191 94.9572265,89.6478191 C97.5686628,89.6478191 100,88.2003231 100,84.4911147 L100,23.1082391 C100,22.3392569 99.9549752,21.7059774 99.4597028,20.9369952 C95.4524989,13.9256866 85.2769023,8 72.8950923,8 C63.0796938,8 54.5700135,11.9353796 50.0225124,17.4991922 C45.4750113,11.9353796 36.9203062,8 27.1499325,8 C14.7230977,8 4.54750113,13.9256866 0.540297163,20.9369952 C0.0900495272,21.7059774 0,22.3392569 0,23.1082391 L0,84.4911147 Z M7.24898694,80.6462036 L7.24898694,24.1486268 C10.8959928,18.8562197 18.8203512,15.2827141 27.1499325,15.2827141 C35.7046376,15.2827141 43.1787483,18.901454 46.3755065,24.4200323 L46.3755065,81.4151858 C41.7829806,77.7512116 34.6240432,74.9919225 27.1499325,74.9919225 C19.3156236,74.9919225 12.0216119,77.2084006 7.24898694,80.6462036 Z M53.6244935,81.4151858 L53.6244935,24.4200323 C56.8212517,18.901454 64.3403872,15.2827141 72.8950923,15.2827141 C81.1796488,15.2827141 89.1040072,18.8562197 92.7510131,24.1486268 L92.7510131,80.6462036 C87.9783881,77.2084006 80.6843764,74.9919225 72.8950923,74.9919225 C65.3759568,74.9919225 58.2170194,77.7512116 53.6244935,81.4151858 Z" />
</svg>
