<?xml version="1.0" encoding="UTF-8"?>
<svg viewBox="0 0 100 100" version="1.1" xmlns="http://www.w3.org/2000/svg">
    <path d="M0,76.4926554 C0,84.0497175 4.00862069,88 11.637931,88 L88.4051724,88 C96.0344828,88 100,83.9638418 100,76.4926554 L100,23.5502825 C100,16.079096 96.0344828,12 88.4051724,12 L11.637931,12 C4.00862069,12 0,15.9502825 0,23.5502825 L0,76.4926554 Z M11.25,24.280226 C9.69827586,24.280226 8.36206897,22.9062147 8.36206897,21.4033898 C8.36206897,19.8146893 9.69827586,18.4836158 11.25,18.4836158 C12.8448276,18.4836158 14.1810345,19.8146893 14.1810345,21.4033898 C14.1810345,22.9062147 12.8448276,24.280226 11.25,24.280226 Z M21.25,24.280226 C19.6982759,24.280226 18.362069,22.9491525 18.362069,21.4033898 C18.362069,19.8146893 19.6982759,18.4836158 21.25,18.4836158 C22.8448276,18.4836158 24.137931,19.8146893 24.137931,21.4033898 C24.137931,22.9491525 22.8448276,24.280226 21.25,24.280226 Z M31.25,24.2372881 C29.6551724,24.2372881 28.362069,22.9491525 28.362069,21.4033898 C28.362069,19.8146893 29.6551724,18.4836158 31.25,18.4836158 C32.8017241,18.4836158 34.137931,19.8146893 34.137931,21.4033898 C34.137931,22.9491525 32.8017241,24.2372881 31.25,24.2372881 Z M3.18965517,76.320904 L3.18965517,30.7638418 L96.8103448,30.7638418 L96.8103448,76.320904 C96.8103448,81.9028249 93.7068966,84.8225989 88.2758621,84.8225989 L11.7241379,84.8225989 C6.12068966,84.8225989 3.18965517,81.9028249 3.18965517,76.320904 Z" />
</svg>
