<?xml version="1.0" encoding="UTF-8"?>
<svg viewBox="0 0 100 100" version="1.1" xmlns="http://www.w3.org/2000/svg">
    <path d="M39.9805758,0 C55.4187256,0 68.7108051,6.94552904 75.3819081,17.1624405 C89.55707,19.8397915 100,30.0602808 100,42.303416 C100,51.6225388 94.0712358,59.890419 85.1498574,64.0385651 C86.4203068,66.5104055 88.7918125,69.8630167 90.062262,71.5393224 C91.5585691,73.5281595 90.6551384,76 87.7472207,76 C83.9358723,76 76.1437823,72.1359735 70.4126436,68.0162394 C62.3440818,68.2375862 55.1014268,66.4574489 49.3639226,63.2536288 C45.4639085,64.0087284 41.3025158,64.3553088 36.9485392,64.2360988 C29.7915225,69.3707373 20.0608004,74.1866742 15.301208,74.1866742 C11.6698153,74.1866742 10.5416157,71.105891 12.4101964,68.6271 L12.9246554,67.940829 C14.575282,65.7131041 17.1169044,62.0512215 18.5447821,59.2785167 C7.40381033,54.1084669 0,43.8037785 0,32.188872 C0,14.3769879 17.7691448,0 39.9805758,0 Z M67.9846735,21.1649182 C52.7392799,21.1649182 40.6276617,30.6545126 40.6276617,42.303416 C40.6276617,53.9239075 52.7392799,63.4135019 67.9846735,63.4135019 L68.3898839,63.4098676 C68.9360702,63.4013254 69.6665066,63.3790017 70.5538047,63.356678 C71.7395575,63.356678 72.6429882,63.7260335 73.7158122,64.5783923 L74.2764309,64.982224 C77.7105527,67.4302919 82.3489249,70.2877008 84.7828386,71.2836147 C85.0086963,71.3688506 85.093393,71.1983788 84.9522319,70.9994951 L84.5440085,70.4899049 C83.0038173,68.5544882 81.03266,65.9326957 80.1527562,64.2658607 C79.3622543,62.7884388 79.5598797,61.4814887 81.3667412,60.6291299 C90.2316552,56.4809838 95.3134531,49.8609973 95.3134531,42.303416 C95.3134531,30.6545126 83.2018349,21.1649182 67.9846735,21.1649182 Z M39.9805758,5.84286455 C20.9774626,5.84286455 5.85253579,17.6702389 5.85253579,32.188872 C5.85253579,41.6082779 12.1986589,49.8591108 23.2691182,55.0291607 C25.5255175,56.0914997 25.7723112,57.7204195 24.7851365,59.5618071 C23.6720466,61.6662501 21.1605792,64.9920216 19.2267025,67.4127015 L18.7915758,67.9542853 C18.6152946,68.2021644 18.7210633,68.4146322 19.0031132,68.3083983 C22.0688391,67.0564121 27.9352685,63.4440748 32.2343054,60.37566 L32.8235592,59.9513314 C34.1632963,58.8889924 35.2914959,58.4286455 36.772258,58.4286455 C38.1825076,58.4640568 39.275451,58.4994681 39.9805758,58.4994681 L40.712259,58.4936308 C41.4419182,58.4819736 42.1653749,58.4529088 42.8814568,58.4069055 C38.5074525,54.0428991 35.969347,48.4759576 35.969347,42.303416 C35.969347,28.1569471 49.9116069,16.7108942 67.4463828,16.4802895 C61.2511307,10.0301989 51.308606,5.84286455 39.9805758,5.84286455 Z" transform="translate(0.0 12.0)" />
</svg>
