<?xml version="1.0" encoding="UTF-8"?>
<svg viewBox="0 0 100 100" version="1.1" xmlns="http://www.w3.org/2000/svg">
    <path d="M65.0997613,17.5906327 C84.5857279,17.5906327 100,30.3173752 100,45.9438817 C100,55.9641776 93.8278282,65.0501051 84.3918377,69.7219473 C83.7132219,70.0763629 83.6162768,70.5274373 83.9394272,71.1396097 C84.9770989,73.0871056 86.5912549,75.2357751 87.8018719,76.6899166 L88.0111217,76.9391379 C89.3360382,78.4534591 88.9805728,80 86.9124105,80 C85.7173639,80 84.0989661,79.6604841 82.2239183,79.066288 L81.6538711,78.8804736 L81.0694252,78.6798873 C80.9708732,78.6452536 80.8717629,78.6100256 80.7721152,78.5742139 L80.1679465,78.3524244 L79.5518794,78.1171356 C79.3446518,78.0365127 79.1356079,77.9537248 78.9249143,77.8688566 L78.2880513,77.6080963 L77.6422906,77.3353639 C77.4256652,77.2425142 77.2077236,77.1477541 76.9886324,77.0511682 L76.3280771,76.7560183 L75.6616246,76.4504233 L74.9902753,76.1348921 L74.3150294,75.8099337 C74.2022193,75.7550166 74.0892885,75.699728 73.9762578,75.6440784 L73.2970423,75.3059337 C73.1836956,75.2488826 73.0702907,75.1914917 72.9568485,75.1337716 L72.2759139,74.7835858 L71.5950835,74.426009 C70.9810978,74.0715934 70.6256324,74.0393738 70.1732219,74.103813 C68.4928401,74.264911 66.8124582,74.3937894 65.0674463,74.3937894 C45.6137947,74.3937894 30.1995226,61.6026078 30.1995226,45.9438817 C30.1995226,30.3173752 45.6137947,17.5906327 65.0997613,17.5906327 Z M42.2993512,0 C56.4495769,0 68.8282554,5.53725811 76.4785636,14.0500428 C72.8771016,13.2148834 69.0606483,12.7673947 65.0997613,12.7673947 C42.4026926,12.7673947 24.448295,27.4612812 24.448295,45.5031418 C24.448295,54.4260208 28.8217951,62.5424303 35.975917,68.4749145 C35.5055266,68.4292376 35.0909874,68.5016079 34.426972,68.8849026 L33.5694303,69.3351054 L32.7118035,69.7756076 L31.8554523,70.2057169 L31.0017371,70.6247409 L30.1520185,71.0319871 L29.7290831,71.2309772 L28.8879104,71.6192586 L28.0541357,71.9940312 L27.6404477,72.1761354 L26.8203209,72.5293468 C26.6844952,72.5869646 26.5491195,72.6439474 26.4142222,72.7002808 L25.6108045,73.030373 L24.820227,73.3441869 L24.4301784,73.4947731 L23.6614121,73.7828713 L22.9088872,74.0529602 C20.0570764,75.0528987 17.5932432,75.6406215 15.8622567,75.6406215 C13.4139222,75.6406215 12.9459629,73.8523709 14.4218822,72.0589219 L14.5306105,71.9308336 C16.018921,70.1735657 18.1338885,67.4009874 19.4655348,64.901762 C19.8571954,64.1598044 19.7396972,63.6130988 18.9172098,63.1835444 C7.48071859,57.5212367 0,46.5090244 0,34.3643505 C0,15.4249073 18.6822135,0 42.2993512,0 Z" transform="translate(0.0 10.0)" />
</svg>
