<?xml version="1.0" encoding="UTF-8"?>
<svg viewBox="0 0 100 100" version="1.1" xmlns="http://www.w3.org/2000/svg">
    <path d="M68.4958067,95 L92.9562327,95 C95.1301061,95 96.8476806,94.3001619 98.1089565,92.9004856 C99.3696522,91.5008094 100,89.6183469 100,87.2530981 L100,32.7699923 C100,30.4047086 99.3696522,28.5222577 98.1089565,27.1226398 C96.8476806,25.7230218 95.1301061,25.0232128 92.9562327,25.0232128 L70.5360103,25.0232128 L70.5360103,87.2530981 C70.5360103,88.6930799 70.3629475,90.0616379 70.0168218,91.3587723 C69.6706382,92.6559649 69.1636331,93.8697075 68.4958067,95 Z M80.2027846,46.6038769 L80.2027846,39.7801492 C80.2027846,38.7705285 80.7052064,38.2657182 81.7100499,38.2657182 L88.735542,38.2657182 C89.7102169,38.2657182 90.1975544,38.7705285 90.1975544,39.7801492 L90.1975544,46.6038769 C90.1975544,47.649874 89.7102169,48.1728726 88.735542,48.1728726 L81.7100499,48.1728726 C80.7052064,48.1728726 80.2027846,47.649874 80.2027846,46.6038769 Z M80.2027846,63.4460744 L80.2027846,56.5771385 C80.2027846,55.591419 80.7052064,55.0985592 81.7100499,55.0985592 L88.735542,55.0985592 C89.7102169,55.0985592 90.1975544,55.591419 90.1975544,56.5771385 L90.1975544,63.4460744 C90.1975544,64.4316773 89.7102169,64.9244788 88.735542,64.9244788 L81.7100499,64.9244788 C80.7052064,64.9244788 80.2027846,64.4316773 80.2027846,63.4460744 Z M80.2027846,80.2430393 L80.2027846,73.4192922 C80.2027846,72.3733301 80.7052064,71.850349 81.7100499,71.850349 L88.735542,71.850349 C89.7102169,71.850349 90.1975544,72.3733301 90.1975544,73.4192922 L90.1975544,80.2430393 C90.1975544,81.252682 89.7102169,81.7575034 88.735542,81.7575034 L81.7100499,81.7575034 C80.7052064,81.7575034 80.2027846,81.252682 80.2027846,80.2430393 Z M0,87.2530981 C0,89.6183469 0.628926439,91.5008094 1.88677932,92.9004856 C3.1446322,94.3001619 4.86046628,95 7.03428158,95 L57.6906643,95 C59.8643635,95 61.581677,94.3001619 62.8426048,92.9004856 C64.1035325,91.5008094 64.7339964,89.6183469 64.7339964,87.2530981 L64.7339964,11.7468669 C64.7339964,9.38164145 64.1035325,7.49919059 62.8426048,6.09951435 C61.581677,4.69983812 59.8643635,4 57.6906643,4 L7.03428158,4 C4.86046628,4 3.1446322,4.69983812 1.88677932,6.09951435 C0.628926439,7.49919059 0,9.38164145 0,11.7468669 L0,87.2530981 Z M17.6465776,88.1419683 L17.6465776,74.2501 C17.6465776,73.2521851 17.9444917,72.4613972 18.5403198,71.8777363 C19.1362059,71.2940637 19.9276652,71.0022274 20.9146977,71.0022274 L44.2391922,71.0022274 C46.3878864,71.0022274 47.4622335,72.0848516 47.4622335,74.2501 L47.4622335,88.1419683 L17.6465776,88.1419683 Z M16.2517481,26.9257174 L16.2517481,18.6484192 C16.2517481,17.4270691 16.8414845,16.816394 18.0209573,16.816394 L26.502022,16.816394 C27.7053975,16.816394 28.3070853,17.4270691 28.3070853,18.6484192 L28.3070853,26.9257174 C28.3070853,28.1710853 27.7053975,28.7937692 26.502022,28.7937692 L18.0209573,28.7937692 C16.8414845,28.7937692 16.2517481,28.1710853 16.2517481,26.9257174 Z M36.7925883,26.9257174 L36.7925883,18.6484192 C36.7925883,17.4270691 37.3822667,16.816394 38.5616234,16.816394 L47.0335506,16.816394 C48.2431338,16.816394 48.8479255,17.4270691 48.8479255,18.6484192 L48.8479255,26.9257174 C48.8479255,28.1710853 48.2431338,28.7937692 47.0335506,28.7937692 L38.5616234,28.7937692 C37.3822667,28.7937692 36.7925883,28.1710853 36.7925883,26.9257174 Z M16.2517481,44.3196822 L16.2517481,36.0970362 C16.2517481,34.845314 16.8414845,34.219453 18.0209573,34.219453 L26.502022,34.219453 C27.7053975,34.219453 28.3070853,34.845314 28.3070853,36.0970362 L28.3070853,44.3196822 C28.3070853,45.5712878 27.7053975,46.1970905 26.502022,46.1970905 L18.0209573,46.1970905 C16.8414845,46.1970905 16.2517481,45.5712878 16.2517481,44.3196822 Z M36.7925883,44.3196822 L36.7925883,36.0970362 C36.7925883,34.845314 37.3822667,34.219453 38.5616234,34.219453 L47.0335506,34.219453 C48.2431338,34.219453 48.8479255,34.845314 48.8479255,36.0970362 L48.8479255,44.3196822 C48.8479255,45.5712878 48.2431338,46.1970905 47.0335506,46.1970905 L38.5616234,46.1970905 C37.3822667,46.1970905 36.7925883,45.5712878 36.7925883,44.3196822 Z M16.2517481,61.7228287 L16.2517481,53.491001 C16.2517481,52.2455165 16.8414845,51.6227743 18.0209573,51.6227743 L26.502022,51.6227743 C27.7053975,51.6227743 28.3070853,52.2455165 28.3070853,53.491001 L28.3070853,61.7228287 C28.3070853,62.9744925 27.7053975,63.6003244 26.502022,63.6003244 L18.0209573,63.6003244 C16.8414845,63.6003244 16.2517481,62.9744925 16.2517481,61.7228287 Z M36.7925883,61.7228287 L36.7925883,53.491001 C36.7925883,52.2455165 37.3822667,51.6227743 38.5616234,51.6227743 L47.0335506,51.6227743 C48.2431338,51.6227743 48.8479255,52.2455165 48.8479255,53.491001 L48.8479255,61.7228287 C48.8479255,62.9744925 48.2431338,63.6003244 47.0335506,63.6003244 L38.5616234,63.6003244 C37.3822667,63.6003244 36.7925883,62.9744925 36.7925883,61.7228287 Z" />
</svg>
