<?xml version="1.0" encoding="UTF-8"?>
<svg viewBox="0 0 100 100" version="1.1" xmlns="http://www.w3.org/2000/svg">
    <path d="M60.6717124,95 L92.984384,95 C95.1386144,95 96.8464413,94.2957297 98.1078648,92.8871891 C99.3692883,91.4786484 100,89.5934884 100,87.231709 L100,32.7683206 C100,30.4065528 99.3692883,28.5213986 98.1078648,27.112858 C96.8464413,25.7043174 95.1386144,25.0000471 92.984384,25.0000471 L63.7329137,25.0000471 L63.7329137,31.8719712 L90.7308884,31.8719712 C91.5528744,31.8719712 92.162398,32.07116 92.559459,32.4695375 C92.9565201,32.8679149 93.1550506,33.49392 93.1550506,34.3475528 L93.1550506,85.6524418 C93.1550506,86.5061037 92.9565201,87.1321205 92.559459,87.5304921 C92.162398,87.9288696 91.5528744,88.1280584 90.7308884,88.1280584 L60.6717124,88.1280584 L60.6717124,95 Z M76.9983229,48.4755883 L83.8432723,48.4755883 C84.8069,48.4755883 85.2887139,47.991865 85.2887139,47.0244185 L85.2887139,40.3658733 C85.2887139,39.3983685 84.8069,38.9146161 83.8432723,38.9146161 L76.9983229,38.9146161 C76.0629075,38.9146161 75.5951997,39.3983685 75.5951997,40.3658733 L75.5951997,47.0244185 C75.5951997,47.991865 76.0629075,48.4755883 76.9983229,48.4755883 Z M76.9983229,64.7805096 L83.8432723,64.7805096 C84.8069,64.7805096 85.2887139,64.2967572 85.2887139,63.3292524 L85.2887139,56.6707073 C85.2887139,55.7032607 84.8069,55.2195375 83.8432723,55.2195375 L76.9983229,55.2195375 C76.0629075,55.2195375 75.5951997,55.7032607 75.5951997,56.6707073 L75.5951997,63.3292524 C75.5951997,64.2967572 76.0629075,64.7805096 76.9983229,64.7805096 Z M76.9983229,81.0853733 L83.8432723,81.0853733 C84.8069,81.0853733 85.2887139,80.6016337 85.2887139,79.6341545 L85.2887139,72.9756199 C85.2887139,72.0081209 84.8069,71.5243714 83.8432723,71.5243714 L76.9983229,71.5243714 C76.0629075,71.5243714 75.5951997,72.0081209 75.5951997,72.9756199 L75.5951997,79.6341545 C75.5951997,80.6016337 76.0629075,81.0853733 76.9983229,81.0853733 Z M0,87.231709 C0,89.5934884 0.630653694,91.4786484 1.89196108,92.8871891 C3.15332652,94.2957297 4.87525956,95 7.05776019,95 L60.6717124,95 C62.8258847,95 64.5336535,94.2957297 65.795019,92.8871891 C67.0563264,91.4786484 67.6869801,89.5934884 67.6869801,87.231709 L67.6869801,11.7683609 C67.6869801,9.37809601 67.0563264,7.48580297 65.795019,6.09148178 C64.5336535,4.69716059 62.8258847,4 60.6717124,4 L7.05776019,4 C4.87525956,4 3.15332652,4.69716059 1.89196108,6.09148178 C0.630653694,7.48580297 0,9.37809601 0,11.7683609 L0,87.231709 Z M6.84521063,85.6524418 L6.84521063,13.3475931 C6.84521063,12.4939604 7.04362505,11.8679553 7.4404539,11.4695778 C7.83728276,11.0712003 8.46085437,10.8720116 9.31116874,10.8720116 L58.4183038,10.8720116 C59.2402899,10.8720116 59.8496973,11.0712003 60.2465262,11.4695778 C60.643355,11.8679553 60.8417694,12.4939604 60.8417694,13.3475931 L60.8417694,85.6524418 C60.8417694,86.5061037 60.643355,87.1321205 60.2465262,87.5304921 C59.8496973,87.9288696 59.2402899,88.1280584 58.4183038,88.1280584 L9.31116874,88.1280584 C8.46085437,88.1280584 7.83728276,87.9288696 7.4404539,87.5304921 C7.04362505,87.1321205 6.84521063,86.5061037 6.84521063,85.6524418 Z M19.0476108,91.3719443 L24.6173498,91.3719443 L24.6173498,77.1158639 C24.6173498,76.2052951 25.0708644,75.7500108 25.9778935,75.7500108 L41.7091737,75.7500108 C42.6162028,75.7500108 43.0697173,76.2052951 43.0697173,77.1158639 L43.0697173,91.3719443 L48.6393693,91.3719443 L48.6393693,75.5365967 C48.6393693,73.6870028 48.2283763,72.3282652 47.4063902,71.4603839 C46.5844042,70.5924734 45.2947395,70.1585182 43.537396,70.1585182 L24.149584,70.1585182 C22.4205689,70.1585182 21.1379863,70.5924734 20.3018361,71.4603839 C19.4656859,72.3282652 19.0476108,73.6870028 19.0476108,75.5365967 L19.0476108,91.3719443 Z M19.727839,29.5244521 L28.0186654,29.5244521 C29.1808236,29.5244521 29.7619027,28.9411053 29.7619027,27.7744117 L29.7619027,19.7073551 C29.7619027,18.5406616 29.1808236,17.9573148 28.0186654,17.9573148 L19.727839,17.9573148 C18.6223955,17.9573148 18.0696738,18.5406616 18.0696738,19.7073551 L18.0696738,27.7744117 C18.0696738,28.9411053 18.6223955,29.5244521 19.727839,29.5244521 Z M39.6683147,29.5244521 L47.9166485,29.5244521 C49.0787487,29.5244521 49.6597988,28.9411053 49.6597988,27.7744117 L49.6597988,19.7073551 C49.6597988,18.5406616 49.0787487,17.9573148 47.9166485,17.9573148 L39.6683147,17.9573148 C38.5345429,17.9573148 37.9676569,18.5406616 37.9676569,19.7073551 L37.9676569,27.7744117 C37.9676569,28.9411053 38.5345429,29.5244521 39.6683147,29.5244521 Z M19.727839,46.4268522 L28.0186654,46.4268522 C29.1808236,46.4268522 29.7619027,45.8435054 29.7619027,44.6768119 L29.7619027,36.6097553 C29.7619027,35.44312 29.1808236,34.8598023 28.0186654,34.8598023 L19.727839,34.8598023 C18.6223955,34.8598023 18.0696738,35.44312 18.0696738,36.6097553 L18.0696738,44.6768119 C18.0696738,45.8435054 18.6223955,46.4268522 19.727839,46.4268522 Z M39.6683147,46.4268522 L47.9166485,46.4268522 C49.0787487,46.4268522 49.6597988,45.8435054 49.6597988,44.6768119 L49.6597988,36.6097553 C49.6597988,35.44312 49.0787487,34.8598023 47.9166485,34.8598023 L39.6683147,34.8598023 C38.5345429,34.8598023 37.9676569,35.44312 37.9676569,36.6097553 L37.9676569,44.6768119 C37.9676569,45.8435054 38.5345429,46.4268522 39.6683147,46.4268522 Z M19.727839,63.3292524 L28.0186654,63.3292524 C29.1808236,63.3292524 29.7619027,62.7459347 29.7619027,61.5792995 L29.7619027,53.5122428 C29.7619027,52.3455493 29.1808236,51.7622025 28.0186654,51.7622025 L19.727839,51.7622025 C18.6223955,51.7622025 18.0696738,52.3455493 18.0696738,53.5122428 L18.0696738,61.5792995 C18.0696738,62.7459347 18.6223955,63.3292524 19.727839,63.3292524 Z M39.6683147,63.3292524 L47.9166485,63.3292524 C49.0787487,63.3292524 49.6597988,62.7459347 49.6597988,61.5792995 L49.6597988,53.5122428 C49.6597988,52.3455493 49.0787487,51.7622025 47.9166485,51.7622025 L39.6683147,51.7622025 C38.5345429,51.7622025 37.9676569,52.3455493 37.9676569,53.5122428 L37.9676569,61.5792995 C37.9676569,62.7459347 38.5345429,63.3292524 39.6683147,63.3292524 Z" />
</svg>
