<?xml version="1.0" encoding="UTF-8"?>
<svg viewBox="0 0 100 100" version="1.1" xmlns="http://www.w3.org/2000/svg">
    <path d="M15.7550547,96 L84.2946808,96 C89.5460917,96 93.4764976,94.7090389 96.0858985,92.1271166 C98.6952995,89.5451874 100,85.6722938 100,80.5084355 L100,19.4916566 C100,14.3277711 98.6952995,10.4548569 96.0858985,7.87291415 C93.4764976,5.29097138 89.5460917,4 84.2946808,4 L15.7550547,4 C10.5033698,4 6.56460614,5.29097138 3.93876368,7.87291415 C1.31292123,10.4548569 0,14.3277711 0,19.4916566 L0,80.5084355 C0,85.6722938 1.31292123,89.5451874 3.93876368,92.1271166 C6.56460614,94.7090389 10.5033698,96 15.7550547,96 Z M15.0024457,87.9543847 C12.7946965,87.9543847 11.088721,87.3630385 9.88451911,86.180346 C8.68031721,84.9976563 8.07821626,83.2569369 8.07821626,80.9581877 L8.07821626,33.8337817 C8.07821626,31.5350598 8.68031721,29.7943533 9.88451911,28.6116622 C11.088721,27.4289711 12.7946965,26.8376256 15.0024457,26.8376256 L84.9469968,26.8376256 C87.1881769,26.8376256 88.9106967,27.4289711 90.1145561,28.6116622 C91.318895,29.7943533 91.9210644,31.5350598 91.9210644,33.8337817 L91.9210644,80.9581877 C91.9210644,83.2569369 91.318895,84.9976563 90.1145561,86.180346 C88.9106967,87.3630385 87.1881769,87.9543847 84.9469968,87.9543847 L15.0024457,87.9543847 Z M40.2406417,44.8278143 L43.2010342,44.8278143 C44.0707203,44.8278143 44.681179,44.6612319 45.0324103,44.328067 C45.3836415,43.9949703 45.5592572,43.3953007 45.5592572,42.5290583 L45.5592572,39.5807229 C45.5592572,38.7144805 45.3836415,38.1231349 45.0324103,37.8066862 C44.681179,37.4901693 44.0707203,37.3319109 43.2010342,37.3319109 L40.2406417,37.3319109 C39.3709556,37.3319109 38.7604969,37.4901693 38.4092656,37.8066862 C38.0580343,38.1231349 37.8824187,38.7144805 37.8824187,39.5807229 L37.8824187,42.5290583 C37.8824187,43.3953007 38.0580343,43.9949703 38.4092656,44.328067 C38.7604969,44.6612319 39.3709556,44.8278143 40.2406417,44.8278143 Z M56.8989506,44.8278143 L59.8592403,44.8278143 C60.762426,44.8278143 61.3812767,44.6612319 61.7157925,44.328067 C62.0502397,43.9949703 62.2174633,43.3953007 62.2174633,42.5290583 L62.2174633,39.5807229 C62.2174633,38.7144805 62.0502397,38.1231349 61.7157925,37.8066862 C61.3812767,37.4901693 60.762426,37.3319109 59.8592403,37.3319109 L56.8989506,37.3319109 C56.029196,37.3319109 55.427095,37.4901693 55.0926478,37.8066862 C54.758132,38.1231349 54.5908742,38.7144805 54.5908742,39.5807229 L54.5908742,42.5290583 C54.5908742,43.3953007 54.758132,43.9949703 55.0926478,44.328067 C55.427095,44.6612319 56.029196,44.8278143 56.8989506,44.8278143 Z M73.6073033,44.8278143 L76.5175492,44.8278143 C77.4206664,44.8278143 78.0394829,44.6612319 78.3739986,44.328067 C78.7085144,43.9949703 78.8757722,43.3953007 78.8757722,42.5290583 L78.8757722,39.5807229 C78.8757722,38.7144805 78.7085144,38.1231349 78.3739986,37.8066862 C78.0394829,37.4901693 77.4206664,37.3319109 76.5175492,37.3319109 L73.6073033,37.3319109 C72.7041861,37.3319109 72.0853697,37.4901693 71.7508539,37.8066862 C71.4163382,38.1231349 71.2490803,38.7144805 71.2490803,39.5807229 L71.2490803,42.5290583 C71.2490803,43.3953007 71.4163382,43.9949703 71.7508539,44.328067 C72.0853697,44.6612319 72.7041861,44.8278143 73.6073033,44.8278143 Z M23.5824356,61.1689289 L26.5427253,61.1689289 C27.4124799,61.1689289 28.0146151,61.0023464 28.3491309,60.6691815 C28.6835781,60.3360848 28.8508017,59.7364153 28.8508017,58.8701729 L28.8508017,55.9717814 C28.8508017,55.072243 28.6835781,54.4642495 28.3491309,54.1478008 C28.0146151,53.8312839 27.4124799,53.6730254 26.5427253,53.6730254 L23.5824356,53.6730254 C22.6792499,53.6730254 22.0604334,53.8312839 21.7259862,54.1478008 C21.3914704,54.4642495 21.2242126,55.072243 21.2242126,55.9717814 L21.2242126,58.8701729 C21.2242126,59.7364153 21.3914704,60.3360848 21.7259862,60.6691815 C22.0604334,61.0023464 22.6792499,61.1689289 23.5824356,61.1689289 Z M40.2406417,61.1689289 L43.2010342,61.1689289 C44.0707203,61.1689289 44.681179,61.0023464 45.0324103,60.6691815 C45.3836415,60.3360848 45.5592572,59.7364153 45.5592572,58.8701729 L45.5592572,55.9717814 C45.5592572,55.072243 45.3836415,54.4642495 45.0324103,54.1478008 C44.681179,53.8312839 44.0707203,53.6730254 43.2010342,53.6730254 L40.2406417,53.6730254 C39.3709556,53.6730254 38.7604969,53.8312839 38.4092656,54.1478008 C38.0580343,54.4642495 37.8824187,55.072243 37.8824187,55.9717814 L37.8824187,58.8701729 C37.8824187,59.7364153 38.0580343,60.3360848 38.4092656,60.6691815 C38.7604969,61.0023464 39.3709556,61.1689289 40.2406417,61.1689289 Z M56.8989506,61.1689289 L59.8592403,61.1689289 C60.762426,61.1689289 61.3812767,61.0023464 61.7157925,60.6691815 C62.0502397,60.3360848 62.2174633,59.7364153 62.2174633,58.8701729 L62.2174633,55.9717814 C62.2174633,55.072243 62.0502397,54.4642495 61.7157925,54.1478008 C61.3812767,53.8312839 60.762426,53.6730254 59.8592403,53.6730254 L56.8989506,53.6730254 C56.029196,53.6730254 55.427095,53.8312839 55.0926478,54.1478008 C54.758132,54.4642495 54.5908742,55.072243 54.5908742,55.9717814 L54.5908742,58.8701729 C54.5908742,59.7364153 54.758132,60.3360848 55.0926478,60.6691815 C55.427095,61.0023464 56.029196,61.1689289 56.8989506,61.1689289 Z M73.6073033,61.1689289 L76.5175492,61.1689289 C77.4206664,61.1689289 78.0394829,61.0023464 78.3739986,60.6691815 C78.7085144,60.3360848 78.8757722,59.7364153 78.8757722,58.8701729 L78.8757722,55.9717814 C78.8757722,55.072243 78.7085144,54.4642495 78.3739986,54.1478008 C78.0394829,53.8312839 77.4206664,53.6730254 76.5175492,53.6730254 L73.6073033,53.6730254 C72.7041861,53.6730254 72.0853697,53.8312839 71.7508539,54.1478008 C71.4163382,54.4642495 71.2490803,55.072243 71.2490803,55.9717814 L71.2490803,58.8701729 C71.2490803,59.7364153 71.4163382,60.3360848 71.7508539,60.6691815 C72.0853697,61.0023464 72.7041861,61.1689289 73.6073033,61.1689289 Z M23.5824356,77.5100639 L26.5427253,77.5100639 C27.4124799,77.5100639 28.0146151,77.3518157 28.3491309,77.0353193 C28.6835781,76.7188228 28.8508017,76.1108122 28.8508017,75.2112874 L28.8508017,72.312896 C28.8508017,71.4133576 28.6835781,70.805364 28.3491309,70.4889153 C28.0146151,70.1723984 27.4124799,70.01414 26.5427253,70.01414 L23.5824356,70.01414 C22.6792499,70.01414 22.0604334,70.1723984 21.7259862,70.4889153 C21.3914704,70.805364 21.2242126,71.4133576 21.2242126,72.312896 L21.2242126,75.2112874 C21.2242126,76.1108122 21.3914704,76.7188228 21.7259862,77.0353193 C22.0604334,77.3518157 22.6792499,77.5100639 23.5824356,77.5100639 Z M40.2406417,77.5100639 L43.2010342,77.5100639 C44.0707203,77.5100639 44.681179,77.3518157 45.0324103,77.0353193 C45.3836415,76.7188228 45.5592572,76.1108122 45.5592572,75.2112874 L45.5592572,72.312896 C45.5592572,71.4133576 45.3836415,70.805364 45.0324103,70.4889153 C44.681179,70.1723984 44.0707203,70.01414 43.2010342,70.01414 L40.2406417,70.01414 C39.3709556,70.01414 38.7604969,70.1723984 38.4092656,70.4889153 C38.0580343,70.805364 37.8824187,71.4133576 37.8824187,72.312896 L37.8824187,75.2112874 C37.8824187,76.1108122 38.0580343,76.7188228 38.4092656,77.0353193 C38.7604969,77.3518157 39.3709556,77.5100639 40.2406417,77.5100639 Z M56.8989506,77.5100639 L59.8592403,77.5100639 C60.762426,77.5100639 61.3812767,77.3518157 61.7157925,77.0353193 C62.0502397,76.7188228 62.2174633,76.1108122 62.2174633,75.2112874 L62.2174633,72.312896 C62.2174633,71.4133576 62.0502397,70.805364 61.7157925,70.4889153 C61.3812767,70.1723984 60.762426,70.01414 59.8592403,70.01414 L56.8989506,70.01414 C56.029196,70.01414 55.427095,70.1723984 55.0926478,70.4889153 C54.758132,70.805364 54.5908742,71.4133576 54.5908742,72.312896 L54.5908742,75.2112874 C54.5908742,76.1108122 54.758132,76.7188228 55.0926478,77.0353193 C55.427095,77.3518157 56.029196,77.5100639 56.8989506,77.5100639 Z" />
</svg>
