<?xml version="1.0" encoding="UTF-8"?>
<svg viewBox="0 0 100 100" version="1.1" xmlns="http://www.w3.org/2000/svg">
    <path d="M12.7849982,89 L87.2150018,89 C91.4494279,89 94.6390064,87.9433691 96.7837374,85.8301073 C98.9279125,83.7168398 100,80.5469387 100,76.3204039 L100,33.4960968 C100,29.2967919 98.9279125,26.1405001 96.7837374,24.0272215 C94.6390064,21.9139988 91.4494279,20.8573874 87.2150018,20.8573874 L75.5699131,20.8573874 C74.4842055,20.8573874 73.6156395,20.7755748 72.964215,20.6119496 C72.3127349,20.4483243 71.7359146,20.1688212 71.233754,19.77344 C70.7315934,19.3780589 70.1683375,18.8395197 69.5439862,18.1578223 L66.2866968,14.4766733 C65.2823201,13.3586606 64.1694004,12.4997119 62.9479377,11.8998271 C61.7264195,11.2999424 60.0705904,11 57.9804506,11 L41.7345303,11 C39.6443905,11 37.9953714,11.2999424 36.7874732,11.8998271 C35.5795193,12.4997119 34.4598174,13.3586606 33.4283675,14.4766733 L30.1709948,18.1578223 C29.2752444,19.1667702 28.4473437,19.8689346 27.6872929,20.2643158 C26.927242,20.6596969 25.7464448,20.8573874 24.1449011,20.8573874 L12.7849982,20.8573874 C8.52333215,20.8573874 5.32708259,21.9139988 3.19624956,24.0272215 C1.06541652,26.1405001 0,29.2967919 0,33.4960968 L0,76.3204039 C0,80.5469387 1.06541652,83.7168398 3.19624956,85.8301073 C5.32708259,87.9433691 8.52333215,89 12.7849982,89 Z M12.866468,82.4147934 C10.8577701,82.4147934 9.3037296,81.8762502 8.2043465,80.7991639 C7.10501899,79.7220821 6.55535524,78.1200889 6.55535524,75.9931841 L6.55535524,33.8641698 C6.55535524,31.7372651 7.10501899,30.1352735 8.2043465,29.058195 C9.3037296,27.9811165 10.8577701,27.4425773 12.866468,27.4425773 L25.7736291,27.4425773 C27.6194431,27.4425773 29.105606,27.2312606 30.2321179,26.8086272 C31.3585742,26.385938 32.4375551,25.6019609 33.4690607,24.4566959 L36.6449636,20.8573874 C37.8121687,19.5484972 38.8436464,18.6759224 39.7393968,18.2396629 C40.6352028,17.8033475 41.9788562,17.5851898 43.770357,17.5851898 L55.9446239,17.5851898 C57.7361803,17.5851898 59.0798337,17.8033475 59.9755841,18.2396629 C60.8713345,18.6759224 61.9028122,19.5484972 63.0700173,20.8573874 L66.2459203,24.4566959 C67.2774258,25.6019609 68.3564345,26.385938 69.4829464,26.8086272 C70.6094027,27.2312606 72.0955378,27.4425773 73.9413518,27.4425773 L87.0932558,27.4425773 C89.1017869,27.4425773 90.6625262,27.9811165 91.7754737,29.058195 C92.8884212,30.1352735 93.4448949,31.7372651 93.4448949,33.8641698 L93.4448949,75.9931841 C93.4448949,78.1200889 92.8884212,79.7220821 91.7754737,80.7991639 C90.6625262,81.8762502 89.1017869,82.4147934 87.0932558,82.4147934 L12.866468,82.4147934 Z M50,76.5249131 C53.0673322,76.5249131 55.9446517,75.9522862 58.6319585,74.8070324 C61.3192653,73.661773 63.680832,72.0666029 65.7166587,70.0215219 C67.7524854,67.9764298 69.3404369,65.6041152 70.4805131,62.904578 C71.6205338,60.2050408 72.1905442,57.2873739 72.1905442,54.1515772 C72.1905442,50.0068326 71.1997874,46.2438431 69.2182739,42.8626085 C67.2367048,39.4813739 64.5629624,36.7954908 61.1970467,34.8049591 C57.8311867,32.8143715 54.0988377,31.8190777 50,31.8190777 C46.905539,31.8190777 44.0146551,32.3917102 41.3273483,33.5369752 C38.6400415,34.6822401 36.285257,36.2774187 34.2629947,38.3225108 C32.2407324,40.3676028 30.652781,42.7399175 29.4991403,45.4394547 C28.3455552,48.1389919 27.7687626,51.0430327 27.7687626,54.1515772 C27.7687626,57.2873739 28.3455552,60.2050408 29.4991403,62.904578 C30.652781,65.6041152 32.2407324,67.9764298 34.2629947,70.0215219 C36.285257,72.0666029 38.6400415,73.661773 41.3273483,74.8070324 C44.0146551,75.9522862 46.905539,76.5249131 50,76.5249131 Z M50,70.3078382 C47.0412385,70.3078382 44.3471496,69.5852345 41.9177331,68.1400272 C39.4883166,66.6948198 37.5474962,64.7519795 36.0952721,62.3115063 C34.6430479,59.8710331 33.9169359,57.1510567 33.9169359,54.1515772 C33.9169359,51.1793498 34.6430479,48.4729996 36.0952721,46.0325264 C37.5474962,43.5920532 39.4883166,41.6423998 41.9177331,40.1835663 C44.3471496,38.7247329 47.0412385,37.9953161 50,37.9953161 C52.9587615,37.9953161 55.6528504,38.7247329 58.0822669,40.1835663 C60.5116834,41.6423998 62.4457216,43.5920532 63.8843813,46.0325264 C65.3230411,48.4729996 66.0423709,51.1793498 66.0423709,54.1515772 C66.0423709,57.1510567 65.3230411,59.8710331 63.8843813,62.3115063 C62.4457216,64.7519795 60.5116834,66.6948198 58.0822669,68.1400272 C55.6528504,69.5852345 52.9587615,70.3078382 50,70.3078382 Z M73.8596319,39.0996189 C73.8596319,40.5448263 74.3619036,41.7582498 75.3664471,42.7398896 C76.3709907,43.7215293 77.5790001,44.198723 78.9904755,44.1714708 C80.3474709,44.1714708 81.5282403,43.6806509 82.5327839,42.6990112 C83.5367715,41.7173714 84.0387653,40.517574 84.0387653,39.0996189 C84.0387653,37.7362242 83.5367715,36.5500809 82.5327839,35.5411889 C81.5282403,34.532241 80.3474709,34.0277671 78.9904755,34.0277671 C77.5790001,34.0277671 76.3709907,34.532241 75.3664471,35.5411889 C74.3619036,36.5500809 73.8596319,37.7362242 73.8596319,39.0996189 Z" />
</svg>