<?xml version="1.0" encoding="UTF-8"?>
<svg viewBox="0 0 100 100" version="1.1" xmlns="http://www.w3.org/2000/svg">
    <path d="M27.9038113,97 C26.3309135,97 25.1134301,96.4775254 24.2513612,95.4325761 C23.3892922,94.3876269 22.9582577,92.9867891 22.9582577,91.2300628 L22.9582577,79.417593 L20.7803993,79.417593 C16.2734422,79.417593 12.477314,78.6073788 9.39201452,76.9869502 C6.30671506,75.3665217 3.97005445,73.0115998 2.38203267,69.9221846 C0.794010889,66.8327695 0,63.0618656 0,58.6094732 L0,23.8081199 C0,19.3557274 0.794010889,15.5848236 2.38203267,12.4954084 C3.97005445,9.40599323 6.30671506,7.05107137 9.39201452,5.43064282 C12.477314,3.81021427 16.2734422,3 20.7803993,3 L79.2196007,3 C83.7265578,3 87.522686,3.81021427 90.6079855,5.43064282 C93.6932849,7.05107137 96.0299456,9.40599323 97.6179673,12.4954084 C99.2059891,15.5848236 100,19.3557274 100,23.8081199 L100,58.6094732 C100,63.0618656 99.2059891,66.8327695 97.6179673,69.9221846 C96.0299456,73.0115998 93.6932849,75.3665217 90.6079855,76.9869502 C87.522686,78.6073788 83.7265578,79.417593 79.2196007,79.417593 L50.0907441,79.417593 L34.4373866,93.3653939 C33.076225,94.5769293 31.9267998,95.4855808 30.9891107,96.0913485 C30.0514217,96.6971162 29.0229885,97 27.9038113,97 Z M29.7640653,88.6858386 L44.2831216,74.2382794 C45.1300665,73.3599162 45.9467635,72.7844369 46.7332123,72.5118415 C47.5196612,72.239246 48.5480944,72.1029483 49.8185118,72.1029483 L79.2196007,72.1029483 C83.7870538,72.1029483 87.1748336,70.9595618 89.3829401,68.6727888 C91.5910466,66.3860158 92.6950998,63.0164331 92.6950998,58.5640406 L92.6950998,23.8081199 C92.6950998,19.3860158 91.5910466,16.0315773 89.3829401,13.7448043 C87.1748336,11.4580313 83.7870538,10.3146448 79.2196007,10.3146448 L20.7803993,10.3146448 C16.1826981,10.3146448 12.7873563,11.4580313 10.5943739,13.7448043 C8.40139141,16.0315773 7.30490018,19.3860158 7.30490018,23.8081199 L7.30490018,58.5640406 C7.30490018,63.0164331 8.40139141,66.3860158 10.5943739,68.6727888 C12.7873563,70.9595618 16.1826981,72.1029483 20.7803993,72.1029483 L26.3611615,72.1029483 C27.6013309,72.1029483 28.4785239,72.3603995 28.9927405,72.8753021 C29.506957,73.3902046 29.7640653,74.2685677 29.7640653,75.5103915 L29.7640653,88.6858386 Z M35.1179673,62.6075399 C34.0895342,62.6075399 33.2728373,62.3198002 32.6678766,61.7443209 C32.0629159,61.1688416 31.7604356,60.411632 31.7604356,59.4726921 C31.7604356,58.8366361 31.9267998,58.0491381 32.2595281,57.1101982 L44.9637024,22.8086032 C45.8408953,20.4158208 47.5196612,19.2194297 50,19.2194297 C52.5105868,19.2194297 54.2044767,20.4158208 55.0816697,22.8086032 L67.831216,57.1101982 C68.1336963,58.0491381 68.2849365,58.8366361 68.2849365,59.4726921 C68.2849365,60.3813436 67.9824561,61.1309812 67.3774955,61.7216046 C66.7725348,62.3122281 65.9709619,62.6075399 64.9727768,62.6075399 C63.2788869,62.6075399 62.1143376,61.6383116 61.4791289,59.699855 L58.1215971,50.0227163 L41.923775,50.0227163 L38.6116152,59.699855 C38.2486388,60.7599484 37.7797943,61.509586 37.2050817,61.9487675 C36.630369,62.3879491 35.9346642,62.6075399 35.1179673,62.6075399 Z M43.738657,44.5708072 L56.3067151,44.5708072 L50.2722323,26.9884002 L49.7731397,26.9884002 L43.738657,44.5708072 Z" />
</svg>
