<?xml version="1.0" encoding="UTF-8"?>
<svg viewBox="0 0 100 100" version="1.1" xmlns="http://www.w3.org/2000/svg">
    <path d="M8.24051055,87 L20.1123413,87 C22.859151,87 24.9263248,86.3425149 26.3138626,85.0275447 C27.7013461,83.7126015 28.3950879,81.7541923 28.3950879,79.1523172 L28.3950879,43.8640235 C28.3950879,41.28443 27.7013461,39.3385503 26.3138626,38.0263844 C24.9263248,36.7142725 22.859151,36.0582165 20.1123413,36.0582165 L8.24051055,36.0582165 C5.52185823,36.0582165 3.46879032,36.7142725 2.08130681,38.0263844 C0.693768935,39.3385503 4.54747351e-13,41.28443 4.54747351e-13,43.8640235 L4.54747351e-13,79.1523172 C4.54747351e-13,81.7541923 0.693768935,83.7126015 2.08130681,85.0275447 C3.46879032,86.3425149 5.52185823,87 8.24051055,87 Z M44.0598447,87 L55.9403999,87 C58.6814476,87 60.7471538,86.3425149 62.1375182,85.0275447 C63.5278284,83.7126015 64.2229834,81.7541923 64.2229834,79.1523172 L64.2229834,32.3859349 C64.2229834,29.7781908 63.5278284,27.8238551 62.1375182,26.5229278 C60.7471538,25.2220005 58.6814476,24.5715368 55.9403999,24.5715368 L44.0598447,24.5715368 C41.3469,24.5715368 39.288206,25.2220005 37.8837629,26.5229278 C36.4793741,27.8238551 35.7771797,29.7781908 35.7771797,32.3859349 L35.7771797,79.1523172 C35.7771797,81.7541923 36.4793741,83.7126015 37.8837629,85.0275447 C39.288206,86.3425149 41.3469,87 44.0598447,87 Z M79.8457488,87 L91.717498,87 C94.464199,87 96.5314271,86.3425149 97.9191824,85.0275447 C99.3063941,83.7126015 100,81.7541923 100,79.1523172 L100,20.814317 C100,18.2346155 99.3063941,16.287304 97.9191824,14.9723824 C96.5314271,13.6574608 94.464199,13 91.717498,13 L79.8457488,13 C77.1267703,13 75.0736752,13.6574608 73.6864635,14.9723824 C72.2987082,16.287304 71.6048306,18.2346155 71.6048306,20.814317 L71.6048306,79.1523172 C71.6048306,81.7541923 72.2987082,83.7126015 73.6864635,85.0275447 C75.0736752,86.3425149 77.1267703,87 79.8457488,87 Z" />
</svg>
