<?xml version="1.0" encoding="UTF-8"?>
<svg viewBox="0 0 100 100" version="1.1" xmlns="http://www.w3.org/2000/svg">
    <path d="M26.9610062,97 C27.8522156,97 28.6706239,96.7600169 29.4162312,96.2800508 C30.1618384,95.8001465 31.0714495,95.078558 32.1450644,94.1152853 L48.5425993,79.1580419 L79.2133949,79.2053262 C83.7154152,79.2053262 87.5113577,78.4030067 90.6012225,76.7983677 C93.6910873,75.1937318 96.0300164,72.8410997 97.6180098,69.7404714 C99.2060033,66.6398987 100,62.8806794 100,58.4628134 L100,23.7424989 C100,19.3246948 99.2060033,15.5733625 97.6180098,12.4885021 C96.0300164,9.40364167 93.6910873,7.05100956 90.6012225,5.43060573 C87.5113577,3.81020191 83.7154152,3 79.2133949,3 L20.7863263,3 C16.2841821,3 12.4882085,3.80843892 9.39840575,5.42531677 C6.30866491,7.04225647 3.96982874,9.39312559 2.38189725,12.4779241 C0.793965749,15.5627845 0,19.3176428 0,23.7424989 L0,58.4628134 C0,62.8876695 0.793965749,66.6425277 2.38189725,69.7273881 C3.96982874,72.8122362 6.30866491,75.1552244 9.39840575,76.7563529 C12.4882085,78.3574789 16.2841821,79.1580419 20.7863263,79.1580419 L22.8715668,79.1580419 L22.8715668,92.3653791 C22.8715668,93.7771315 23.228602,94.9025065 23.9426724,95.7415039 C24.6566808,96.5805013 25.6627921,97 26.9610062,97 Z M34.5790067,62.9182589 C33.522926,62.9182589 32.6799821,62.6248913 32.0501751,62.038156 C31.4203681,61.4514207 31.1054646,60.6781179 31.1054646,59.7182474 C31.1054646,58.9721627 31.2738675,58.1700025 31.6106733,57.3117668 L44.7184967,22.0352756 C45.6588392,19.5726577 47.3973605,18.3413487 49.9340608,18.3413487 C52.5198941,18.3413487 54.2864826,19.5726577 55.2338263,22.0352756 L68.3416497,57.3117668 C68.6714542,58.1700025 68.8363564,58.9756886 68.8363564,59.7288254 C68.8363564,60.6745919 68.5135532,61.4426058 67.8679469,62.032867 C67.2223405,62.6231283 66.3785292,62.9182589 65.336513,62.9182589 C64.5084392,62.9182589 63.7908991,62.6975759 63.1838928,62.2562099 C62.5769484,61.814844 62.0857424,61.0354171 61.7102745,59.9179292 L58.2725134,50.0576219 L41.6219095,50.0576219 L38.2420485,59.9179292 C37.8595794,61.0424072 37.3666075,61.8235971 36.7631328,62.2614989 C36.1596581,62.6993389 35.4316161,62.9182589 34.5790067,62.9182589 Z M43.506126,44.4036219 L56.446197,44.4036219 L50.2287659,26.3601671 L49.7235572,26.3601671 L43.506126,44.4036219 Z" />
</svg>
