<?xml version="1.0" encoding="UTF-8"?>
<svg viewBox="0 0 100 100" version="1.1" xmlns="http://www.w3.org/2000/svg">
    <path d="M80.0472255,87 L90.6729634,87 C96.8122786,87 100,84.0525757 100,78.236325 L100,21.802974 C100,15.9867233 96.8122786,13 90.6729634,13 L80.0472255,13 C73.9472649,13 70.7988981,15.9867233 70.7988981,21.802974 L70.7988981,78.236325 C70.7988981,84.0525757 73.9472649,87 80.0472255,87 Z M81.1097993,81.0658524 C78.1188508,81.0658524 77.0562771,80.0440786 77.0562771,77.0966543 L77.0562771,22.9426447 C77.0562771,19.9952204 78.1188508,18.9341476 81.1097993,18.9341476 L89.6497442,18.9341476 C92.6800472,18.9341476 93.742621,19.9952204 93.742621,22.9426447 L93.742621,77.0966543 C93.742621,80.0440786 92.6800472,81.0658524 89.6497442,81.0658524 L81.1097993,81.0658524 Z M44.6674538,87 L55.2931917,87 C61.4325069,87 64.5808737,84.0525757 64.5808737,78.236325 L64.5808737,33.2782793 C64.5808737,27.4620287 61.4325069,24.4753054 55.2931917,24.4753054 L44.6674538,24.4753054 C38.5281385,24.4753054 35.3797717,27.4620287 35.3797717,33.2782793 L35.3797717,78.236325 C35.3797717,84.0525757 38.5281385,87 44.6674538,87 Z M45.7300275,81.0658524 C42.6997245,81.0658524 41.6371507,80.0440786 41.6371507,77.0966543 L41.6371507,34.4179501 C41.6371507,31.4705258 42.6997245,30.409453 45.7300275,30.409453 L54.2699725,30.409453 C57.3002755,30.409453 58.3234947,31.4705258 58.3234947,34.4179501 L58.3234947,77.0966543 C58.3234947,80.0440786 57.3002755,81.0658524 54.2699725,81.0658524 L45.7300275,81.0658524 Z M9.28768201,87 L19.8740653,87 C26.0133806,87 29.2011019,84.0525757 29.2011019,78.236325 L29.2011019,44.7142857 C29.2011019,38.8980351 26.0133806,35.9113117 19.8740653,35.9113117 L9.28768201,35.9113117 C3.14836678,35.9113117 0,38.8980351 0,44.7142857 L0,78.236325 C0,84.0525757 3.14836678,87 9.28768201,87 Z M10.3109012,81.0658524 C7.31995277,81.0658524 6.25737898,80.0440786 6.25737898,77.0966543 L6.25737898,45.8539565 C6.25737898,42.8672331 7.31995277,41.8454594 10.3109012,41.8454594 L18.8508461,41.8454594 C21.8811492,41.8454594 22.9437229,42.8672331 22.9437229,45.8539565 L22.9437229,77.0966543 C22.9437229,80.0440786 21.8811492,81.0658524 18.8508461,81.0658524 L10.3109012,81.0658524 Z" />
</svg>
