<?xml version="1.0" encoding="UTF-8"?>
<svg viewBox="0 0 100 100" version="1.1" xmlns="http://www.w3.org/2000/svg">
    <path d="M49.9741662,100 C77.3070515,100 100,77.3470595 100,50.0000502 C100,22.6529405 77.255143,0 49.9221573,0 C22.6306382,0 0,22.6529405 0,50.0000502 C0,77.3470595 22.6825467,100 49.9741662,100 Z M49.9741662,91.6948594 C26.8955687,91.6948594 8.39415597,73.1425087 8.39415597,50.0000502 C8.39415597,26.8574913 26.8435598,8.30513055 49.9221573,8.30513055 C73.0527637,8.30513055 91.6474512,26.8574913 91.6474512,50.0000502 C91.6474512,73.1425087 73.1046722,91.6948594 49.9741662,91.6948594 Z M44.6260851,73.2828446 C46.2177783,73.2828446 47.5698089,72.5125544 48.5687211,71.0039188 L70.9566445,35.7370245 C71.5387827,34.7693399 72.1315636,33.6660408 72.1315636,32.5838374 C72.1315636,30.4088826 70.2175759,29.0031131 68.1370192,29.0031131 C66.8783636,29.0031131 65.6609739,29.7320158 64.7247133,31.1992639 L44.407708,63.8521139 L34.7579488,51.3309807 C33.5618445,49.7597615 32.4696576,49.3639681 31.1378081,49.3639681 C29.0158852,49.3639681 27.3510984,51.0604549 27.3510984,53.2566057 C27.3510984,54.3079694 27.7985958,55.3594336 28.4644704,56.296178 L40.4237059,71.0039188 C41.6824618,72.6271737 42.9719411,73.2828446 44.6260851,73.2828446 Z" />
</svg>
