<?xml version="1.0" encoding="UTF-8"?>
<svg viewBox="0 0 100 100" version="1.1" xmlns="http://www.w3.org/2000/svg">
    <path d="M23.3317708,88.1849003 L32.8912829,88.1849003 C33.7818613,88.1849003 34.4285543,88.4190605 35.0847178,89.0748839 L41.8888846,95.8093893 C47.4372764,101.420147 52.609558,101.373544 58.1579497,95.8093893 L64.9153959,89.0748839 C65.5716496,88.4190605 66.2649731,88.1849003 67.1554612,88.1849003 L76.6683429,88.1849003 C84.5091127,88.1849003 88.2224115,84.5578828 88.2224115,76.637613 L88.2224115,67.1303778 C88.2224115,66.2308572 88.4659361,65.5845437 89.1126291,64.8820722 L95.8140647,58.1380569 C101.418738,52.5834568 101.371837,47.4236757 95.8140647,41.8690756 L89.1126291,35.1250603 C88.4659361,34.4225887 88.2224115,33.7762752 88.2224115,32.8767547 L88.2224115,23.3695465 C88.2224115,15.4958798 84.5560137,11.8222592 76.6683429,11.8222592 L67.1554612,11.8222592 C66.2649731,11.8222592 65.5716496,11.588072 64.9153959,10.9322936 L58.1579497,4.1977432 C52.5533669,-1.42257 47.4372764,-1.37587678 41.879324,4.1977432 L35.0847178,10.9322936 C34.4380247,11.5786071 33.7818613,11.8222592 32.8912829,11.8222592 L23.3317708,11.8222592 C15.4440098,11.8222592 11.8244228,15.4492767 11.8244228,23.3695465 L11.8244228,32.8767547 C11.8244228,33.7762752 11.5806277,34.4225887 10.9339346,35.1250603 L4.18595884,41.8690756 C-1.41863299,47.4236757 -1.37195745,52.5834568 4.18595884,58.1380569 L10.9339346,64.8820722 C11.5806277,65.5845437 11.8244228,66.2308572 11.8244228,67.1303778 L11.8244228,76.637613 C11.8244228,84.5112347 15.4440098,88.1849003 23.3317708,88.1849003 Z M45.083927,71.4928586 C43.597886,71.4928586 42.3928001,70.904506 41.2154039,69.3451507 L30.1454982,55.7837451 C29.5006091,54.943177 29.0986131,53.9530644 29.0986131,52.9629518 C29.0986131,50.9455884 30.640755,49.3300751 32.6402722,49.3300751 C33.8834201,49.3300751 34.911184,49.731745 35.9857587,51.1884292 L44.9342947,62.6943416 L63.7456662,32.5637839 C64.5400975,31.2004862 65.6707731,30.4998174 66.8577299,30.4998174 C68.8105264,30.4998174 70.5860912,31.8078586 70.5860912,33.8994985 C70.5860912,34.8705912 70.0535841,35.9073069 69.4744466,36.7755484 L48.7655676,69.3451507 C47.8683149,70.8017448 46.5975676,71.4928586 45.083927,71.4928586 Z" />
</svg>
