<?xml version="1.0" encoding="UTF-8"?>
<svg viewBox="0 0 100 100" version="1.1" xmlns="http://www.w3.org/2000/svg">
    <path d="M22,50.0000767 C22,50.7442548 22.1414859,51.4271327 22.4244577,52.0487107 C22.7074295,52.6703673 23.1118368,53.2597213 23.6376796,53.8167729 L69.3143195,98.4626393 C70.3391873,99.4875464 71.5980026,100 73.0907654,100 C74.5746361,100 75.8190116,99.4998064 76.823892,98.4994193 C77.8287723,97.4990243 78.3312125,96.2524337 78.3312125,94.7596473 C78.3312125,93.35599 77.8232246,92.1016105 76.8072489,90.9965088 L34.9271091,50.0000767 L76.8072489,9.00355489 C77.8232246,7.89842257 78.3312125,6.64405332 78.3312125,5.24044713 C78.3312125,3.74760569 77.8287723,2.50098747 76.823892,1.50059248 C75.8190116,0.500197494 74.5746361,0 73.0907654,0 C71.5980026,0 70.3391873,0.512473245 69.3143195,1.53741973 L23.6376796,46.1832626 C22.5458932,47.2572334 22,48.5295047 22,50.0000767 Z" />
</svg>
