<?xml version="1.0" encoding="UTF-8"?>
<svg viewBox="0 0 100 100" version="1.1" xmlns="http://www.w3.org/2000/svg">
    <path d="M78.3311771,50.0000767 C78.3311771,48.5295047 77.7852996,47.2572334 76.6935447,46.1832626 L31.030231,1.53741973 C29.9964712,0.512473245 28.7532367,0 27.3005275,0 C25.7765245,0 24.5121222,0.500197494 23.5073205,1.50059248 C22.5024402,2.50098747 22,3.74760569 22,5.24044713 C22,6.64405332 22.5079879,7.89842257 23.5239636,9.00355489 L65.4776399,50.0000767 L23.5239636,90.9965088 C22.5079879,92.1016105 22,93.35599 22,94.7596473 C22,96.2524337 22.5024402,97.4990243 23.5073205,98.4994193 C24.5121222,99.4998064 25.7765245,100 27.3005275,100 C28.7532367,100 29.9964712,99.4875464 31.030231,98.4626393 L76.6935447,53.8167729 C77.2193561,53.2597213 77.6237476,52.6703673 77.9067194,52.0487107 C78.1896912,51.4271327 78.3311771,50.7442548 78.3311771,50.0000767 Z" />
</svg>
