<?xml version="1.0" encoding="UTF-8"?>
<svg viewBox="0 0 100 100" version="1.1" xmlns="http://www.w3.org/2000/svg">
    <path d="M14.8312038,77.1164016 L26.8116566,77.1164016 L26.8116566,69.504927 L14.9518244,69.504927 C12.5900742,69.504927 10.7740209,68.8777767 9.5036646,67.6234763 C8.23324372,66.3691113 7.59803328,64.515001 7.59803328,62.0611454 L7.59803328,15.0552853 C7.59803328,12.5941346 8.23324372,10.7382167 9.5036646,9.48753147 C10.7740209,8.23684628 12.5900742,7.61150368 14.9518244,7.61150368 L62.1399412,7.61150368 C64.4723913,7.61150368 66.2793125,8.23684628 67.5607048,9.48753147 C68.8420325,10.7382167 69.4826964,12.5941346 69.4826964,15.0552853 L69.4826964,25.4206463 L77.0807296,25.4206463 L77.0807296,14.6384978 C77.0807296,9.76823034 75.8461916,6.11091385 73.3771156,3.66654831 C70.907975,1.22218277 67.2024571,2.84217094e-14 62.2605618,2.84217094e-14 L14.8312038,2.84217094e-14 C9.88201575,2.84217094e-14 6.17285146,1.22034286 3.70371087,3.66102859 C1.23457029,6.10171431 0,9.76087071 0,14.6384978 L0,62.4779328 C0,67.3555599 1.23457029,71.0147163 3.70371087,73.4554021 C6.17285146,75.8960684 9.88201575,77.1164016 14.8312038,77.1164016 Z M37.7507645,100 L85.179929,100 C90.1222115,100 93.8279553,98.7796571 96.2971604,96.3389714 C98.7657201,93.898318 100,90.2428352 100,85.3725233 L100,37.522164 C100,32.651832 98.7657201,28.9963231 96.2971604,26.5556374 C93.8279553,24.1149517 90.1222115,22.8946088 85.179929,22.8946088 L37.7507645,22.8946088 C32.8016411,22.8946088 29.092509,24.113144 26.6233685,26.5502145 C24.1542279,28.9872204 22.9196576,32.6445369 22.9196576,37.522164 L22.9196576,85.3725233 C22.9196576,90.2574835 24.1542279,93.916646 26.6233685,96.3500109 C29.092509,98.783337 32.8016411,100 37.7507645,100 Z M37.8714819,92.3995745 C35.5097318,92.3995745 33.6936785,91.7742287 32.4233222,90.523537 C31.1529013,89.2728454 30.5176909,87.4132605 30.5176909,84.9447825 L30.5176909,37.9498941 C30.5176909,35.4960385 31.1529013,33.6401205 32.4233222,32.3821403 C33.6936785,31.1240955 35.5097318,30.495073 37.8714819,30.495073 L85.0598892,30.495073 C87.3922748,30.495073 89.1990024,31.1240955 90.4800719,32.3821403 C91.7617869,33.6401205 92.4026444,35.4960385 92.4026444,37.9498941 L92.4026444,84.9447825 C92.4026444,87.4132605 91.7617869,89.2728454 90.4800719,90.523537 C89.1990024,91.7742287 87.3922748,92.3995745 85.0598892,92.3995745 L37.8714819,92.3995745 Z M42.9843048,49.7127133 C44.809232,49.7486722 46.3736535,49.1036393 47.6775693,47.7776148 C48.9815497,46.4516547 49.6335399,44.8579075 49.6335399,42.996373 C49.6335399,41.1349031 48.9815497,39.5609752 47.6775693,38.2745893 C46.3736535,36.9882035 44.809232,36.3450105 42.9843048,36.3450105 C41.1666704,36.3450105 39.5968923,36.9882035 38.2749704,38.2745893 C36.9530486,39.5609752 36.2920877,41.1349031 36.2920877,42.996373 C36.2920877,44.8579075 36.9530486,46.4336753 38.2749704,47.7236764 C39.5968923,49.0137421 41.1666704,49.6767544 42.9843048,49.7127133 Z M79.9523907,49.7127133 C81.7773178,49.7486722 83.348903,49.1036393 84.6671462,47.7776148 C85.9854539,46.4516547 86.6446077,44.8579075 86.6446077,42.996373 C86.6446077,41.1349031 85.9854539,39.5609752 84.6671462,38.2745893 C83.348903,36.9882035 81.7773178,36.3450105 79.9523907,36.3450105 C78.1274635,36.3450105 76.5540068,36.9882035 75.2320204,38.2745893 C73.9100986,39.5609752 73.2491377,41.1349031 73.2491377,42.996373 C73.2491377,44.8579075 73.9100986,46.4336753 75.2320204,47.7236764 C76.5540068,49.0137421 78.1274635,49.6767544 79.9523907,49.7127133 Z M61.4578443,68.2461016 C63.2754141,68.2461016 64.8451923,67.5831216 66.1671786,66.2571616 C67.4891004,64.931137 68.1500613,63.3373897 68.1500613,61.4759198 C68.1500613,59.6649989 67.4891004,58.1108581 66.1671786,56.8134974 C64.8451923,55.5161366 63.2754141,54.8674562 61.4578443,54.8674562 C59.6255598,54.8674562 58.0574597,55.5161366 56.7535438,56.8134974 C55.4495635,58.1108581 54.7975733,59.6649989 54.7975733,61.4759198 C54.7975733,63.3373897 55.4495635,64.931137 56.7535438,66.2571616 C58.0574597,67.5831216 59.6255598,68.2461016 61.4578443,68.2461016 Z M42.9843048,86.7465943 C44.809232,86.7465943 46.3736535,86.0944077 47.6775693,84.7900347 C48.9815497,83.4856642 49.6335399,81.9027376 49.6335399,80.0412547 C49.6335399,78.1870992 48.9815497,76.6131649 47.6775693,75.3194517 C46.3736535,74.0257255 44.809232,73.3788625 42.9843048,73.3788625 C41.1666704,73.3788625 39.6040559,74.0257255 38.2964614,75.3194517 C36.9888024,76.6131649 36.3349729,78.1870992 36.3349729,80.0412547 C36.3349729,81.9027376 36.9888024,83.4856642 38.2964614,84.7900347 C39.6040559,86.0944077 41.1666704,86.7465943 42.9843048,86.7465943 Z M79.9523907,86.7465943 C81.7773178,86.7465943 83.348903,86.0944077 84.6671462,84.7900347 C85.9854539,83.4856642 86.6446077,81.9027376 86.6446077,80.0412547 C86.6446077,78.1870992 85.9854539,76.6131649 84.6671462,75.3194517 C83.348903,74.0257255 81.7773178,73.3788625 79.9523907,73.3788625 C78.1274635,73.3788625 76.5630097,74.0257255 75.2590294,75.3194517 C73.955049,76.6131649 73.3030588,78.1870992 73.3030588,80.0412547 C73.3030588,81.9027376 73.955049,83.4856642 75.2590294,84.7900347 C76.5630097,86.0944077 78.1274635,86.7465943 79.9523907,86.7465943 Z" />
</svg>
