<?xml version="1.0" encoding="UTF-8"?>
<svg viewBox="0 0 100 100" version="1.1" xmlns="http://www.w3.org/2000/svg">
    <path d="M0,50.5103442 C0,56.9440827 1.15163707,63.031774 3.4549112,68.773418 C5.75814864,74.5150516 9.00828424,79.5774335 13.205318,83.9605639 C13.8963154,84.6782707 14.6576757,85.0243074 15.4893989,84.9986741 C16.3211221,84.9730408 17.0056991,84.6526373 17.5431299,84.0374638 C18.1061377,83.4479184 18.3364614,82.7558449 18.2341011,81.9612434 C18.1317408,81.1666418 17.7606651,80.4233043 17.1208741,79.7312308 C13.4356417,75.8863792 10.6205504,71.4583971 8.67560021,66.4472845 C6.73064997,61.4361613 5.75817485,56.1238479 5.75817485,50.5103442 C5.75817485,44.8968931 6.73064997,39.5846059 8.67560021,34.5734828 C10.6205504,29.5623596 13.4356417,25.1343512 17.1208741,21.2894577 C17.7606651,20.5974157 18.1317408,19.854086 18.2341011,19.0594687 C18.3364614,18.2648515 18.1061377,17.5599744 17.5431299,16.9448377 C17.0056991,16.355266 16.3211221,16.0412669 15.4893989,16.0028406 C14.6576757,15.9643617 13.8963154,16.3168134 13.205318,17.0601955 C9.00828424,21.4433206 5.75814864,26.4992745 3.4549112,32.2280573 C1.15163707,37.9568925 0,44.0509882 0,50.5103442 Z M13.7427488,50.5103442 C13.7427488,55.0728974 14.5296861,59.4111655 16.1035606,63.5251486 C17.6774876,67.6391841 19.9359653,71.2853945 22.8789939,74.4637797 C23.5443619,75.2327531 24.3121165,75.6236469 25.1822575,75.6368238 C26.0523461,75.6492802 26.7689206,75.3224671 27.3319807,74.6560217 C27.8949885,74.0152149 28.118918,73.3103273 28.0037692,72.5413591 C27.8885681,71.7723857 27.4982834,71.0290455 26.8329154,70.3113387 C24.4528946,67.6455885 22.6294874,64.6209823 21.3626937,61.2375201 C20.0959,57.8540579 19.4625032,54.2783326 19.4625032,50.5103442 C19.4625032,46.7424084 20.0959,43.1667094 21.3626937,39.7832471 C22.6294874,36.3997849 24.4528946,33.3751524 26.8329154,30.7093498 C27.4982834,29.9916377 27.8885681,29.2483081 28.0037692,28.4793608 C28.118918,27.7104136 27.8949885,26.9927016 27.3319807,26.3262247 C26.7689206,25.6854178 26.0523461,25.3714188 25.1822575,25.3838511 C24.3121165,25.3970889 23.5443619,25.7751843 22.8789939,26.518514 C19.9359653,29.6969306 17.6774876,33.3495349 16.1035606,37.4763267 C14.5296861,41.6031186 13.7427488,45.9477911 13.7427488,50.5103442 Z M27.4470771,50.5103442 C27.4470771,53.0992417 27.8693591,55.5727813 28.7139232,57.9309631 C29.5584349,60.2890924 30.7484452,62.4165585 32.2839543,64.3133615 C32.8981685,65.1335963 33.6595288,65.5565225 34.5680353,65.5821401 C35.4765418,65.6078102 36.2250874,65.2874068 36.8136721,64.6209298 C37.3766799,63.980123 37.5814267,63.2816504 37.4279125,62.5255119 C37.2743458,61.7693735 36.9160586,60.9939956 36.3530508,60.1993784 C35.3037662,58.8921471 34.5168027,57.4118922 33.9921604,55.7586137 C33.4675705,54.1052827 33.2052755,52.3558595 33.2052755,50.5103442 C33.2052755,48.6648289 33.4675705,46.915432 33.9921604,45.2621535 C34.5168027,43.608875 35.3037662,42.1157851 36.3530508,40.7828837 C36.9160586,40.0139365 37.2743458,39.2513675 37.4279125,38.4951765 C37.5814267,37.7390381 37.3766799,37.0405655 36.8136721,36.3997586 C36.2250874,35.7333342 35.4765418,35.4129308 34.5680353,35.4385484 C33.6595288,35.4641659 32.8981685,35.8742834 32.2839543,36.6689007 C30.7484452,38.5913212 29.5584349,40.7316224 28.7139232,43.0898041 C27.8693591,45.4479859 27.4470771,47.9214993 27.4470771,50.5103442 Z M72.5521918,50.5103442 C72.5521918,47.9214993 72.1300407,45.4479859 71.2857387,43.0898041 C70.4411747,40.7316224 69.2511381,38.5913212 67.715629,36.6689007 C67.0758379,35.8742834 66.3081095,35.4641659 65.4124439,35.4385484 C64.5167259,35.4129308 63.7745484,35.7333342 63.1859112,36.3997586 C62.5973265,37.0405655 62.3862116,37.7390381 62.5525668,38.4951765 C62.7188695,39.2513675 63.0835509,40.0139365 63.6466111,40.7828837 C64.6702664,42.1157851 65.4508094,43.608875 65.9882402,45.2621535 C66.525671,46.915432 66.7943864,48.6648289 66.7943864,50.5103442 C66.7943864,52.3558595 66.525671,54.1052827 65.9882402,55.7586137 C65.4508094,57.4118922 64.6702664,58.8921471 63.6466111,60.1993784 C63.0835509,60.9939956 62.7188695,61.7693735 62.5525668,62.5255119 C62.3862116,63.2816504 62.5973265,63.980123 63.1859112,64.6209298 C63.7745484,65.2874068 64.5167259,65.6078102 65.4124439,65.5821401 C66.3081095,65.5565225 67.0758379,65.1335963 67.715629,64.3133615 C69.2511381,62.4165585 70.4411747,60.2890924 71.2857387,57.9309631 C72.1300407,55.5727813 72.5521918,53.0992417 72.5521918,50.5103442 Z M86.2568345,50.5103442 C86.2568345,45.9477911 85.4698711,41.6031186 83.8959441,37.4763267 C82.3220171,33.3495349 80.0635918,29.6969306 77.1206681,26.518514 C76.4298803,25.7751843 75.6557577,25.3970889 74.7983003,25.3838511 C73.9408429,25.3714188 73.2306628,25.6854178 72.6677598,26.3262247 C72.1048569,26.9927016 71.8807963,27.7104136 71.9955782,28.4793608 C72.1108842,29.2483081 72.4885114,29.9916377 73.1284597,30.7093498 C75.5341623,33.3751524 77.3704104,36.3997849 78.6372041,39.7832471 C79.9039978,43.1667094 80.5373946,46.7424084 80.5373946,50.5103442 C80.5373946,54.2783326 79.9039978,57.8540579 78.6372041,61.2375201 C77.3704104,64.6209823 75.5341623,67.6455885 73.1284597,70.3113387 C72.4885114,71.0290455 72.1108842,71.7723857 71.9955782,72.5413591 C71.8807963,73.3103273 72.1048569,74.0152149 72.6677598,74.6560217 C73.2306628,75.3224671 73.9408429,75.6492802 74.7983003,75.6368238 C75.6557577,75.6236469 76.4298803,75.2327531 77.1206681,74.4637797 C80.0635918,71.2853945 82.3220171,67.6391841 83.8959441,63.5251486 C85.4698711,59.4111655 86.2568345,55.0728974 86.2568345,50.5103442 Z M100,50.5103442 C100,44.0509882 98.8419608,37.9568925 96.5258825,32.2280573 C94.2098041,26.4992745 90.9660366,21.4433206 86.7945798,17.0601955 C86.1032679,16.3168134 85.3417242,15.9643617 84.5099486,16.0028406 C83.678173,16.0412669 82.9936746,16.355266 82.4564534,16.9448377 C81.8935505,17.5599744 81.6632005,18.2648515 81.7654036,19.0594687 C81.8676066,19.854086 82.2386823,20.5974157 82.8786307,21.2894577 C86.5637057,25.1343512 89.3787446,29.5623596 91.3237473,34.5734828 C93.2687499,39.5846059 94.2412512,44.8968931 94.2412512,50.5103442 C94.2412512,56.1238479 93.2687499,61.4361613 91.3237473,66.4472845 C89.3787446,71.4583971 86.5637057,75.8863792 82.8786307,79.7312308 C82.2386823,80.4233043 81.8676066,81.1666418 81.7654036,81.9612434 C81.6632005,82.7558449 81.8935505,83.4479184 82.4564534,84.0374638 C82.9936746,84.6526373 83.678173,84.9730408 84.5099486,84.9986741 C85.3417242,85.0243074 86.1032679,84.6782707 86.7945798,83.9605639 C90.9660366,79.5774335 94.2098041,74.5150516 96.5258825,68.773418 C98.8419608,63.031774 100,56.9440827 100,50.5103442 Z M42.9940478,50.5872757 C42.9940478,51.8432718 43.3203638,52.9903145 43.9729958,54.0284037 C44.6255753,55.066493 45.4828755,55.8995366 46.5448962,56.5275347 C47.6069693,57.1555327 48.777797,57.4695318 50.0573792,57.4695318 C51.3113844,57.4695318 52.4630031,57.1555327 53.5122353,56.5275347 C54.56152,55.8995366 55.3996636,55.0536842 56.0266662,53.9899774 C56.6536688,52.9262181 56.9671701,51.7663404 56.9671701,50.5103442 C56.9671701,48.5879237 56.2953816,46.9410496 54.9518046,45.5697219 C53.6082276,44.1983942 51.9767524,43.5127304 50.0573792,43.5127304 C48.75222,43.5127304 47.5686039,43.8331338 46.5065307,44.4739406 C45.4444576,45.1147475 44.5935255,45.9734349 43.9537344,47.050003 C43.3139433,48.1265711 42.9940478,49.305662 42.9940478,50.5872757 Z" />
</svg>
