<?xml version="1.0" encoding="UTF-8"?>
<svg viewBox="0 0 100 100" version="1.1" xmlns="http://www.w3.org/2000/svg">
    <path d="M27.8595 82.8748C30.5164 82.8748 32.5543 81.8301 33.9731 79.7406L69.9969 24.6021C70.487 23.8282 70.8481 23.0801 71.0804 22.3579C71.3125 21.6356 71.4286 20.9391 71.4286 20.2684C71.4286 18.4627 70.8224 16.9665 69.61 15.7799C68.3976 14.5933 66.8627 14 65.0054 14C63.7414 14 62.6709 14.258 61.7939 14.7739C60.9426 15.264 60.1171 16.1153 59.3174 17.3277L27.7047 67.2812L11.6081 47.354C10.2409 45.6772 8.5255 44.8389 6.46185 44.8389C4.60455 44.8389 3.0568 45.4451 1.81861 46.6575C0.606201 47.8441 0 49.3531 0 51.1846C0 51.9843 0.141877 52.7582 0.425631 53.5063C0.709384 54.2544 1.19951 55.0282 1.89599 55.8279L21.8619 80.0114C23.4613 81.9204 25.4604 82.8748 27.8595 82.8748Z" />
    <path d="M93.5771 14C95.4343 14 96.9693 14.5933 98.1814 15.7799C99.3936 16.9665 100 18.4627 100 20.2684C100 20.9391 99.8836 21.6356 99.6514 22.3579C99.4193 23.0801 99.0586 23.8282 98.5686 24.6021L76.65 58.1429L62.1111 81.9775C61.3114 83.2349 60.486 84.1177 59.6347 84.626C58.7576 85.1611 57.6871 85.4286 56.4231 85.4286C54.5659 85.4286 53.031 84.8133 51.8186 83.5827C50.6062 82.3521 50 80.8004 50 78.9278C50 78.2322 50.1161 77.5099 50.3482 76.7609C50.5804 76.0118 50.9416 75.2359 51.4316 74.4334L87.4557 17.2504C88.7035 15.3443 90.4305 14.2765 92.6367 14.0471L93.5771 14Z" />
</svg>
