<?xml version="1.0" encoding="UTF-8"?>
<svg viewBox="0 0 100 100" version="1.1" xmlns="http://www.w3.org/2000/svg">
    <path d="M21.3718535,50.5279822 C21.3718535,47.5967014 20.3222186,45.1092175 18.2229488,43.0655305 C16.1236791,41.0218435 13.5832578,40 10.6016852,40 C7.68736394,40 5.19182522,41.0218435 3.11506907,43.0655305 C1.03835636,45.1092175 0,47.5967014 0,50.5279822 C0,52.4820256 0.482573614,54.2477959 1.44772084,55.8252931 C2.4129115,57.4028621 3.69723837,58.6597056 5.30070145,59.5958233 C6.90423691,60.5319411 8.67123151,61 10.6016852,61 C12.606919,61 14.420642,60.5319411 16.0428544,59.5958233 C17.6651391,58.6597056 18.9588769,57.4028621 19.9240675,55.8252931 C20.8892582,54.2477959 21.3718535,52.4820256 21.3718535,50.5279822 Z M60.5733767,50.5279822 C60.5733767,47.5967014 59.5443371,45.1092175 57.4862578,43.0655305 C55.428251,41.0218435 52.9233738,40 49.9716263,40 C47.0574498,40 44.5713581,41.0218435 42.5133513,43.0655305 C40.455272,45.1092175 39.4262324,47.5967014 39.4262324,50.5279822 C39.4262324,52.4820256 39.8994531,54.2477959 40.8458945,55.8252931 C41.7924082,57.4028621 43.0673966,58.6597056 44.6708597,59.5958233 C46.2743952,60.5319411 48.0413174,61 49.9716263,61 C51.9395062,61 53.7252139,60.5319411 55.3287494,59.5958233 C56.9322125,58.6597056 58.2072009,57.4028621 59.1537146,55.8252931 C60.100156,54.2477959 60.5733767,52.4820256 60.5733767,50.5279822 Z M100,50.5279822 C100,47.5967014 98.9615133,45.1092175 96.88454,43.0655305 C94.8077839,41.0218435 92.3123175,40 89.398141,40 C86.4165684,40 83.8761472,41.0218435 81.7768774,43.0655305 C79.6775353,45.1092175 78.6278642,47.5967014 78.6278642,50.5279822 C78.6278642,52.4820256 79.1104595,54.2477959 80.0756502,55.8252931 C81.0407684,57.4028621 82.3344699,58.6597056 83.9567547,59.5958233 C85.5789671,60.5319411 87.3927625,61 89.398141,61 C91.32845,61 93.0953722,60.5319411 94.6989076,59.5958233 C96.3023707,58.6597056 97.5866976,57.4028621 98.5518882,55.8252931 C99.5172961,54.2477959 100,52.4820256 100,50.5279822 Z" />
</svg>
