<?xml version="1.0" encoding="UTF-8"?>
<svg viewBox="0 0 100 100" version="1.1" xmlns="http://www.w3.org/2000/svg">
    <path d="M49.9741662,100 C77.3070515,100 100,77.3470595 100,50.0000502 C100,22.6529405 77.255143,0 49.9221573,0 C22.6306382,0 0,22.6529405 0,50.0000502 C0,77.3470595 22.6825467,100 49.9741662,100 Z M49.9741662,91.6948594 C26.8955687,91.6948594 8.39415597,73.1425087 8.39415597,50.0000502 C8.39415597,26.8574913 26.8435598,8.30513055 49.9221573,8.30513055 C73.0527637,8.30513055 91.6474512,26.8574913 91.6474512,50.0000502 C91.6474512,73.1425087 73.1046722,91.6948594 49.9741662,91.6948594 Z M49.9221573,58.8557755 C52.2942852,58.8557755 53.6473198,57.4808457 53.6993287,54.9611289 L54.4172122,29.0878973 C54.4172122,26.5682809 52.4925817,24.7254309 49.8702488,24.7254309 C47.2372732,24.7254309 45.3646517,26.5162451 45.4166606,29.0359619 L46.0931779,54.9611289 C46.1450864,57.4808457 47.4875786,58.8557755 49.9221573,58.8557755 Z M49.9221573,74.7981102 C52.7543331,74.7981102 55.2218441,72.5161708 55.2218441,69.7037276 C55.2218441,66.8180526 52.806342,64.6093449 49.9221573,64.6093449 C47.0794393,64.6093449 44.6639372,66.8700884 44.6639372,69.7037276 C44.6639372,72.464135 47.1313478,74.7981102 49.9221573,74.7981102 Z" />
</svg>
