<?xml version="1.0" encoding="UTF-8"?>
<svg viewBox="0 0 100 100" version="1.1" xmlns="http://www.w3.org/2000/svg">
    <path d="M50 100C56.8301 100 63.2516 98.6928 69.2647 96.0784C75.3105 93.4641 80.6373 89.8529 85.2451 85.2451C89.8529 80.6373 93.4641 75.3268 96.0784 69.3137C98.6928 63.268 100 56.8301 100 50C100 43.1699 98.6928 36.7484 96.0784 30.7353C93.4641 24.6895 89.8529 19.3627 85.2451 14.7549C80.6373 10.1471 75.3105 6.53595 69.2647 3.92157C63.219 1.30719 56.781 0 49.951 0C43.1209 0 36.683 1.30719 30.6373 3.92157C24.6242 6.53595 19.3137 10.1471 14.7059 14.7549C10.1307 19.3627 6.53595 24.6895 3.92157 30.7353C1.30719 36.7484 0 43.1699 0 50C0 56.8301 1.30719 63.268 3.92157 69.3137C6.53595 75.3268 10.1471 80.6373 14.7549 85.2451C19.3627 89.8529 24.6732 93.4641 30.6863 96.0784C36.732 98.6928 43.1699 100 50 100ZM50 75.2451C46.4706 75.2451 43.3824 74.6078 40.7353 73.3333C38.0882 72.0588 36.0131 70.6046 34.5098 68.9706C33.0392 67.3366 32.3039 65.9641 32.3039 64.8529C32.3039 64.232 32.549 63.8072 33.0392 63.5784C33.5294 63.3497 34.0359 63.3497 34.5588 63.5784C36.4216 64.5588 38.5294 65.5229 40.8824 66.4706C43.268 67.4183 46.3072 67.8922 50 67.8922C53.6601 67.8922 56.683 67.4346 59.0686 66.5196C61.4543 65.5719 63.5621 64.5915 65.3922 63.5784C65.915 63.3497 66.4216 63.3497 66.9118 63.5784C67.402 63.8072 67.6471 64.232 67.6471 64.8529C67.6471 65.9641 66.9118 67.3366 65.4412 68.9706C63.9706 70.6046 61.8954 72.0588 59.2157 73.3333C56.5686 74.6078 53.4967 75.2451 50 75.2451ZM35 45.3922C33.4314 45.3922 32.0425 44.7549 30.8333 43.4804C29.6569 42.1732 29.0686 40.5065 29.0686 38.4804C29.0686 36.4216 29.6569 34.7386 30.8333 33.4314C32.0098 32.1242 33.3987 31.4706 35 31.4706C36.634 31.4706 38.0556 32.1242 39.2647 33.4314C40.4739 34.7386 41.0784 36.4216 41.0784 38.4804C41.0784 40.5065 40.4575 42.1732 39.2157 43.4804C38.0065 44.7549 36.6013 45.3922 35 45.3922ZM64.951 45.3922C63.3824 45.3922 61.9935 44.7549 60.7843 43.4804C59.5752 42.1732 58.9706 40.5065 58.9706 38.4804C58.9706 36.4216 59.5588 34.7386 60.7353 33.4314C61.9444 32.1242 63.3497 31.4706 64.951 31.4706C66.585 31.4706 68.0065 32.1242 69.2157 33.4314C70.4248 34.7386 71.0294 36.4216 71.0294 38.4804C71.0294 40.5065 70.4085 42.1732 69.1667 43.4804C67.9575 44.7549 66.5523 45.3922 64.951 45.3922Z" />
</svg>
