<?xml version="1.0" encoding="UTF-8"?>
<svg viewBox="0 0 100 100" version="1.1" xmlns="http://www.w3.org/2000/svg">
    <path d="M8.60897645,89 L91.3911104,89 C94.0204464,89 96.1124506,88.2307287 97.6671229,86.692186 C99.2223743,85.1536433 100,83.0998984 100,80.5309514 L100,19.4267087 C100,16.8860114 99.2223743,14.8464001 97.6671229,13.3078747 C96.1124506,11.7692916 94.0204464,11 91.3911104,11 L8.60897645,11 C6.00789669,11 3.92278287,11.7692916 2.35363498,13.3078747 C0.784544993,14.8464001 0,16.8860114 0,19.4267087 L0,80.5309514 C0,83.0998984 0.784544993,85.1536433 2.35363498,86.692186 C3.92278287,88.2307287 6.00789669,89 8.60897645,89 Z M8.65136082,82.1824121 C7.15291144,82.1824121 6.40368674,81.448429 6.40368674,79.9804627 L6.40368674,75.1954454 C6.40368674,74.6026121 6.59453219,74.1156418 6.97622307,73.7345343 C7.35791395,73.3534268 7.85975176,73.1628731 8.48173651,73.1628731 L13.9524461,73.1628731 C14.5744309,73.1628731 15.0692046,73.3534268 15.4367674,73.7345343 C15.8043302,74.1156418 15.9881115,74.6026121 15.9881115,75.1954454 L15.9881115,80.107499 C15.9881115,80.7003328 15.8043302,81.1943604 15.4367674,81.5895818 C15.0692046,81.984802 14.5744309,82.1824121 13.9524461,82.1824121 L8.65136082,82.1824121 Z M8.48173651,68.1661231 C7.85975176,68.1661231 7.35791395,67.9614566 6.97622307,67.5521236 C6.59453219,67.1427907 6.40368674,66.6699475 6.40368674,66.1335941 L6.40368674,61.3062403 C6.40368674,60.6851296 6.59453219,60.1840436 6.97622307,59.8029824 C7.35791395,59.4218633 7.85975176,59.2313038 8.48173651,59.2313038 L13.9524461,59.2313038 C14.5744309,59.2313038 15.0692046,59.4218633 15.4367674,59.8029824 C15.8043302,60.1840436 15.9881115,60.6851296 15.9881115,61.3062403 L15.9881115,66.1335941 C15.9881115,66.6699475 15.8043302,67.1427907 15.4367674,67.5521236 C15.0692046,67.9614566 14.5744309,68.1661231 13.9524461,68.1661231 L8.48173651,68.1661231 Z M8.48173651,54.4462709 C7.85975176,54.4462709 7.35791395,54.2486579 6.97622307,53.8534319 C6.59453219,53.4582059 6.40368674,52.9924162 6.40368674,52.4560628 L6.40368674,47.628709 C6.40368674,47.0076561 6.59453219,46.5065701 6.97622307,46.1254511 C7.35791395,45.744332 7.85975176,45.5537725 8.48173651,45.5537725 L13.9524461,45.5537725 C14.5744309,45.5537725 15.0692046,45.744332 15.4367674,46.1254511 C15.8043302,46.5065701 15.9881115,47.0076561 15.9881115,47.628709 L15.9881115,52.4560628 C15.9881115,52.9924162 15.8043302,53.4582059 15.4367674,53.8534319 C15.0692046,54.2486579 14.5744309,54.4462709 13.9524461,54.4462709 L8.48173651,54.4462709 Z M8.48173651,40.853468 C7.85975176,40.853468 7.35791395,40.655855 6.97622307,40.260629 C6.59453219,39.865403 6.40368674,39.3996133 6.40368674,38.8632599 L6.40368674,33.9934985 C6.40368674,33.3724456 6.59453219,32.8713596 6.97622307,32.4902406 C7.35791395,32.1091215 7.85975176,31.918562 8.48173651,31.918562 L13.9524461,31.918562 C14.5744309,31.918562 15.0692046,32.1091215 15.4367674,32.4902406 C15.8043302,32.8713596 15.9881115,33.3724456 15.9881115,33.9934985 L15.9881115,38.8632599 C15.9881115,39.3996133 15.8043302,39.865403 15.4367674,40.260629 C15.0692046,40.655855 14.5744309,40.853468 13.9524461,40.853468 L8.48173651,40.853468 Z M8.48173651,26.8371963 C7.85975176,26.8371963 7.35791395,26.6395833 6.97622307,26.2443573 C6.59453219,25.8491313 6.40368674,25.3833127 6.40368674,24.8469015 L6.40368674,20.0619553 C6.40368674,18.5657508 7.15291144,17.8176486 8.65136082,17.8176486 L13.9524461,17.8176486 C14.5744309,17.8176486 15.0692046,18.0082081 15.4367674,18.3893272 C15.8043302,18.7703884 15.9881115,19.2714744 15.9881115,19.8925851 L15.9881115,24.8469015 C15.9881115,25.3833127 15.8043302,25.8491313 15.4367674,26.2443573 C15.0692046,26.6395833 14.5744309,26.8371963 13.9524461,26.8371963 L8.48173651,26.8371963 Z M24.0033595,82.1824121 C23.3530606,82.1824121 22.8512228,82.005974 22.497846,81.6530978 C22.1444114,81.3002227 21.9676941,80.7991382 21.9676941,80.1498441 L21.9676941,55.4625787 C21.9676941,54.8415258 22.1444114,54.3545468 22.497846,54.0016416 C22.8512228,53.6487943 23.3530606,53.4723706 24.0033595,53.4723706 L76.038938,53.4723706 C76.660807,53.4723706 77.1486325,53.6487943 77.5024145,54.0016416 C77.8556175,54.3545468 78.0322191,54.8415258 78.0322191,55.4625787 L78.0322191,80.1498441 C78.0322191,80.7991382 77.8556175,81.3002227 77.5024145,81.6530978 C77.1486325,82.005974 76.660807,82.1824121 76.038938,82.1824121 L24.0033595,82.1824121 Z M24.0033595,46.6124012 C23.3530606,46.6124012 22.8512228,46.4359486 22.497846,46.0830435 C22.1444114,45.7301961 21.9676941,45.243246 21.9676941,44.6221931 L21.9676941,19.7655358 C21.9676941,19.1444251 22.1444114,18.6644995 22.497846,18.3257591 C22.8512228,17.9870188 23.3530606,17.8176486 24.0033595,17.8176486 L76.038938,17.8176486 C76.660807,17.8176486 77.1486325,17.9870188 77.5024145,18.3257591 C77.8556175,18.6644995 78.0322191,19.1444251 78.0322191,19.7655358 L78.0322191,44.6221931 C78.0322191,45.243246 77.8556175,45.7301961 77.5024145,46.0830435 C77.1486325,46.4359486 76.660807,46.6124012 76.038938,46.6124012 L24.0033595,46.6124012 Z M86.0470327,82.1824121 C85.4535359,82.1824121 84.9659999,81.984802 84.5844248,81.5895818 C84.2028497,81.1943604 84.0120622,80.7003328 84.0120622,80.107499 L84.0120622,75.1954454 C84.0120622,74.6026121 84.2028497,74.1156418 84.5844248,73.7345343 C84.9659999,73.3534268 85.4535359,73.1628731 86.0470327,73.1628731 L91.5179161,73.1628731 C92.139785,73.1628731 92.6417965,73.3534268 93.0239506,73.7345343 C93.4055257,74.1156418 93.5963133,74.6026121 93.5963133,75.1954454 L93.5963133,79.9804627 C93.5963133,81.448429 92.8470596,82.1824121 91.3485523,82.1824121 L86.0470327,82.1824121 Z M86.0470327,68.1661231 C85.4535359,68.1661231 84.9659999,67.9614566 84.5844248,67.5521236 C84.2028497,67.1427907 84.0120622,66.6699475 84.0120622,66.1335941 L84.0120622,61.3062403 C84.0120622,60.6851296 84.2028497,60.1840436 84.5844248,59.8029824 C84.9659999,59.4218633 85.4535359,59.2313038 86.0470327,59.2313038 L91.5179161,59.2313038 C92.1681571,59.2313038 92.6771168,59.4218633 93.0447954,59.8029824 C93.412474,60.1840436 93.5963133,60.6851296 93.5963133,61.3062403 L93.5963133,66.1335941 C93.5963133,66.6699475 93.4055257,67.1427907 93.0239506,67.5521236 C92.6417965,67.9614566 92.139785,68.1661231 91.5179161,68.1661231 L86.0470327,68.1661231 Z M86.0470327,54.4462709 C85.4535359,54.4462709 84.9659999,54.2486579 84.5844248,53.8534319 C84.2028497,53.4582059 84.0120622,52.9924162 84.0120622,52.4560628 L84.0120622,47.628709 C84.0120622,47.0076561 84.2028497,46.5065701 84.5844248,46.1254511 C84.9659999,45.744332 85.4535359,45.5537725 86.0470327,45.5537725 L91.5179161,45.5537725 C92.1681571,45.5537725 92.6771168,45.744332 93.0447954,46.1254511 C93.412474,46.5065701 93.5963133,47.0076561 93.5963133,47.628709 L93.5963133,52.4560628 C93.5963133,52.9924162 93.4055257,53.4582059 93.0239506,53.8534319 C92.6417965,54.2486579 92.139785,54.4462709 91.5179161,54.4462709 L86.0470327,54.4462709 Z M86.0470327,40.853468 C85.4535359,40.853468 84.9659999,40.655855 84.5844248,40.260629 C84.2028497,39.865403 84.0120622,39.3996133 84.0120622,38.8632599 L84.0120622,33.9934985 C84.0120622,33.3724456 84.2028497,32.8713596 84.5844248,32.4902406 C84.9659999,32.1091215 85.4535359,31.918562 86.0470327,31.918562 L91.5179161,31.918562 C92.1681571,31.918562 92.6771168,32.1091215 93.0447954,32.4902406 C93.412474,32.8713596 93.5963133,33.3724456 93.5963133,33.9934985 L93.5963133,38.8632599 C93.5963133,39.3996133 93.4055257,39.865403 93.0239506,40.260629 C92.6417965,40.655855 92.139785,40.853468 91.5179161,40.853468 L86.0470327,40.853468 Z M86.0470327,26.8371963 C85.4535359,26.8371963 84.9659999,26.6395833 84.5844248,26.2443573 C84.2028497,25.8491313 84.0120622,25.3833127 84.0120622,24.8469015 L84.0120622,19.8925851 C84.0120622,19.2714744 84.2028497,18.7703884 84.5844248,18.3893272 C84.9659999,18.0082081 85.4535359,17.8176486 86.0470327,17.8176486 L91.3485523,17.8176486 C92.8470596,17.8176486 93.5963133,18.5657508 93.5963133,20.0619553 L93.5963133,24.8469015 C93.5963133,25.3833127 93.4055257,25.8491313 93.0239506,26.2443573 C92.6417965,26.6395833 92.139785,26.8371963 91.5179161,26.8371963 L86.0470327,26.8371963 Z" />
</svg>
