<?xml version="1.0" encoding="UTF-8"?>
<svg viewBox="0 0 100 100" version="1.1" xmlns="http://www.w3.org/2000/svg">
    <path d="M0,68.5794702 C0,76.7152318 5.26498095,82 13.1970904,82 C17.2151022,82 21.1984759,80.2615894 24.1080707,76.6456954 L30.3775546,69.031457 C31.2781434,67.9536424 32.3172844,67.4321192 33.3564254,67.4321192 L66.6435746,67.4321192 C67.6827156,67.4321192 68.7218566,67.9536424 69.6224454,69.031457 L75.8919293,76.6456954 C78.8015241,80.2615894 82.7848978,82 86.8029096,82 C94.7350191,82 100,76.7152318 100,68.5794702 C100,65.102649 99.2033253,61.1043046 97.852442,56.6192053 C95.739522,49.4917219 92.0332525,39.7913907 88.5001732,32.281457 C85.5213024,26.0231788 83.997229,23.1721854 76.6539661,21.5033113 C70.1420159,20.0082781 61.1014894,19 50.017319,19 C38.9331486,19 29.8579841,20.0082781 23.3460339,21.5033113 C16.002771,23.1721854 14.4786976,26.0231788 11.4998268,32.281457 C7.96674749,39.7913907 4.260478,49.4917219 2.14755802,56.6192053 C0.796674749,61.1043046 0,65.102649 0,68.5794702 Z M5.29961898,68.7880795 C5.29961898,66.5976821 5.78455144,63.955298 6.89296848,60.1655629 C9.21371666,52.1688742 13.2317284,41.807947 16.7301697,34.1241722 C18.4274333,30.4039735 19.3626602,28.1440397 23.8656044,27.1009934 C30.1350883,25.6059603 39.0717007,24.5976821 50.017319,24.5976821 C60.9282993,24.5976821 69.8649117,25.6059603 76.1343956,27.1009934 C80.6373398,28.1440397 81.5379286,30.4039735 83.2698303,34.1241722 C86.8375476,41.807947 90.6823692,52.2036424 93.1070315,60.1655629 C94.2500866,63.955298 94.700381,66.5976821 94.700381,68.7880795 C94.700381,73.5860927 91.3404919,76.6109272 86.8721857,76.6109272 C84.2396952,76.6109272 81.6764808,75.2201987 79.6674749,72.7516556 L73.1555248,64.8592715 C71.4928992,62.8427152 70.1073779,61.8344371 66.8860409,61.8344371 L33.1139591,61.8344371 C29.8926221,61.8344371 28.5071008,62.8427152 26.8444752,64.8592715 L20.3325251,72.7516556 C18.3235192,75.2201987 15.7603048,76.6109272 13.1278143,76.6109272 C8.65950814,76.6109272 5.29961898,73.5860927 5.29961898,68.7880795 Z M21.9605126,43.5115894 C21.9605126,45.3195364 23.0342917,46.4321192 24.8354693,46.4321192 L31.0703152,46.4321192 L31.0703152,52.5165563 C31.0703152,54.2897351 32.0748182,55.4023179 33.8067198,55.4023179 C35.5039834,55.4023179 36.5431244,54.2897351 36.5431244,52.5165563 L36.5431244,46.4321192 L42.3969519,46.4321192 C44.3366817,46.4321192 45.4797368,45.3195364 45.4797368,43.5115894 C45.4797368,41.7731788 44.3366817,40.6953642 42.3969519,40.6953642 L36.5431244,40.6953642 L36.5431244,34.6109272 C36.5431244,32.8377483 35.5039834,31.7599338 33.8067198,31.7599338 C32.0748182,31.7599338 31.0703152,32.8377483 31.0703152,34.6109272 L31.0703152,40.6953642 L24.8354693,40.6953642 C23.0342917,40.6953642 21.9605126,41.7731788 21.9605126,43.5115894 Z M71.5275372,43.1639073 C74.3332179,43.1639073 76.58469,40.9039735 76.58469,38.1225166 C76.58469,35.3062914 74.3332179,33.0463576 71.5275372,33.0463576 C68.7564946,33.0463576 66.4703845,35.3062914 66.4703845,38.1225166 C66.4703845,40.9039735 68.7564946,43.1639073 71.5275372,43.1639073 Z M61.3439557,53.455298 C64.1149983,53.455298 66.4011084,51.1953642 66.4011084,48.4139073 C66.4011084,45.5976821 64.1149983,43.3377483 61.3439557,43.3377483 C58.5729131,43.3377483 56.2868029,45.5976821 56.2868029,48.4139073 C56.2868029,51.1953642 58.5729131,53.455298 61.3439557,53.455298 Z" />
</svg>
