<?xml version="1.0" encoding="UTF-8"?>
<svg viewBox="0 0 100 100" version="1.1" xmlns="http://www.w3.org/2000/svg">
    <path d="M49.9997842,97.2548776 C53.3984468,97.2548776 56.5928791,96.0784089 59.5830811,93.7254717 C62.5732831,91.3725345 65.2039822,88.0718821 67.4751784,83.8235146 C69.7464415,79.5751472 71.5274917,74.5833158 72.818329,68.8480204 C74.1091662,63.1127517 74.7545848,56.8627727 74.7545848,50.0980831 C74.7545848,43.3333266 74.1173314,37.0669836 72.8428246,31.2990541 C71.5683177,25.5310576 69.7954662,20.5146971 67.52427,16.2499724 C65.2530068,11.9853146 62.6222742,8.67649037 59.6320722,6.32349959 C56.6419372,3.97057574 53.4311745,2.79411381 49.9997842,2.79411381 C46.5684608,2.79411381 43.3576981,3.97057574 40.3674961,6.32349959 C37.3772941,8.67649037 34.7547602,11.9853146 32.4998943,16.2499724 C30.2449616,20.5146971 28.4720766,25.5310576 27.1812394,31.2990541 C25.8904021,37.0669836 25.2449835,43.3333266 25.2449835,50.0980831 C25.2449835,56.8627727 25.8904021,63.1127517 27.1812394,68.8480204 C28.4720766,74.5833158 30.2531268,79.5751472 32.5243899,83.8235146 C34.7955861,88.0718821 37.4262853,91.3725345 40.4164873,93.7254717 C43.4066893,96.0784089 46.6011216,97.2548776 49.9997842,97.2548776 Z M49.9997842,8.72548173 C52.385427,8.72548173 54.6730205,9.82842315 56.8625648,12.034306 C59.0520421,14.2401888 60.9964632,17.2548976 62.6958279,21.0784324 C64.3951927,24.9019671 65.7350546,29.3055675 66.7154136,34.2892337 C67.6958395,39.2728999 68.1860524,44.5425164 68.1860524,50.0980831 C68.1860524,55.5882611 67.6958395,60.800654 66.7154136,65.7352619 C65.7350546,70.6699368 64.3951927,75.0571967 62.6958279,78.8970418 C60.9964632,82.7369124 59.0520421,85.7597897 56.8625648,87.9656739 C54.6730205,90.1715568 52.385427,91.2744982 49.9997842,91.2744982 C47.6142083,91.2744982 45.3266482,90.1715568 43.1371039,87.9656739 C40.9475597,85.7597897 39.0031052,82.7369124 37.3037404,78.8970418 C35.6044425,75.0571967 34.2645807,70.6699368 33.2841548,65.7352619 C32.3037958,60.800654 31.8136163,55.5882611 31.8136163,50.0980831 C31.8136163,44.5425164 32.3037958,39.2728999 33.2841548,34.2892337 C34.2645807,29.3055675 35.6044425,24.9019671 37.3037404,21.0784324 C39.0031052,17.2548976 40.9475597,14.2401888 43.1371039,12.034306 C45.3266482,9.82842315 47.6142083,8.72548173 49.9997842,8.72548173 Z M46.8135505,3.48039442 L46.8135505,96.3235397 L53.2351094,96.3235397 L53.2351094,3.48039442 L46.8135505,3.48039442 Z M49.9997842,68.431393 C44.9671453,68.431393 40.1959266,68.8480538 35.686128,69.6813755 C31.1763294,70.5146971 27.1158843,71.7074895 23.5047928,73.2597526 C19.8937012,74.8120693 16.9443586,76.633979 14.6567651,78.7254817 L19.6077855,82.7941038 C21.764602,81.0947595 24.3544417,79.6486811 27.3773045,78.4558686 C30.4001672,77.2630562 33.8151937,76.3643625 37.6223838,75.7597877 C41.429574,75.1552464 45.5553741,74.8529757 49.9997842,74.8529757 C54.4441942,74.8529757 58.5699944,75.1552464 62.3771845,75.7597877 C66.1843746,76.3643625 69.5994011,77.2630562 72.6222639,78.4558686 C75.6451266,79.6486811 78.2349998,81.0947595 80.3918832,82.7941038 L85.3428032,78.7254817 C83.0552097,76.633979 80.1058671,74.8120693 76.4947756,73.2597526 C72.883684,71.7074895 68.8232389,70.5146971 64.3134403,69.6813755 C59.8037087,68.8480538 55.03249,68.431393 49.9997842,68.431393 Z M95.2444424,46.7646628 L4.75492514,46.7646628 L4.75492514,53.1862455 L95.2444424,53.1862455 L95.2444424,46.7646628 Z M49.9997842,31.8137646 C55.03249,31.8137646 59.8037087,31.3970703 64.3134403,30.5636817 C68.8232389,29.7303601 72.883684,28.5375677 76.4947756,26.9853046 C80.1058671,25.4330415 83.0552097,23.6111585 85.3428032,21.5196558 L80.3918832,17.4509635 C78.2349998,19.1503345 75.6451266,20.5964163 72.6222639,21.7892086 C69.5994011,22.982001 66.1843746,23.8807114 62.3771845,24.4853397 C58.5699944,25.0899012 54.4441942,25.3921819 49.9997842,25.3921819 C45.5553741,25.3921819 41.429574,25.0899012 37.6223838,24.4853397 C33.8151937,23.8807114 30.4001672,22.982001 27.3773045,21.7892086 C24.3544417,20.5964163 21.764602,19.1503345 19.6077855,17.4509635 L14.6567651,21.5196558 C16.9443586,23.6111585 19.8937012,25.4330415 23.5047928,26.9853046 C27.1158843,28.5375677 31.1763294,29.7303601 35.686128,30.5636817 C40.1959266,31.3970703 44.9671453,31.8137646 49.9997842,31.8137646 Z M49.9997842,100 C56.8298371,100 63.2595611,98.6927941 69.2889563,96.0783822 C75.3183515,93.4640238 80.6369395,89.8529242 85.2447205,85.2450833 C89.8525014,80.6372411 93.4634926,75.3186279 96.077694,69.2892438 C98.6925647,63.2598262 100,56.8300783 100,50 C100,43.1699217 98.6925647,36.7401738 96.077694,30.7107562 C93.4634926,24.6813386 89.8525014,19.3627308 85.2447205,14.7549328 C80.6369395,10.1470678 75.3101863,6.5359628 69.2644607,3.92161784 C63.2187351,1.30720595 56.7808459,0 49.950793,0 C43.1207401,0 36.691016,1.30720595 30.6616208,3.92161784 C24.6322257,6.5359628 19.3218028,10.1470678 14.7303523,14.7549328 C10.1388348,19.3627308 6.53590841,24.6813386 3.92157315,30.7107562 C1.30719105,36.7401738 0,43.1699217 0,50 C0,56.8300783 1.30719105,63.2598262 3.92157315,69.2892438 C6.53590841,75.3186279 10.147,80.6372411 14.7548478,85.2450833 C19.3626957,89.8529242 24.6813172,93.4640238 30.7107124,96.0783822 C36.7400407,98.6927941 43.1697312,100 49.9997842,100 Z M49.9997842,93.3333199 C44.0847687,93.3333199 38.5128922,92.1976975 33.2841548,89.9264527 C28.0554173,87.6552146 23.4476029,84.5261324 19.4607115,80.5392061 C15.4738202,76.5522866 12.3447429,71.9444483 10.0734797,66.7156915 C7.80228352,61.4869346 6.66668541,55.9150375 6.66668541,50 C6.66668541,44.0849625 7.80228352,38.5130654 10.0734797,33.2843085 C12.3447429,28.0555517 15.465655,23.4477201 19.4362159,19.4608139 C23.4067769,15.4738408 28.0064261,12.3447519 33.2351636,10.0735473 C38.463901,7.80227569 44.0357775,6.6666399 49.950793,6.6666399 C55.8658085,6.6666399 61.4376849,7.80227569 66.6664224,10.0735473 C71.8951598,12.3447519 76.5111394,15.4738408 80.5143612,19.4608139 C84.5176499,23.4477201 87.6548924,28.0555517 89.9260886,33.2843085 C92.1973517,38.5130654 93.3329833,44.0849625 93.3329833,50 C93.3329833,55.9150375 92.1973517,61.4869346 89.9260886,66.7156915 C87.6548924,71.9444483 84.5258151,76.5522866 80.5388568,80.5392061 C76.5519654,84.5261324 71.944151,87.6552146 66.7154136,89.9264527 C61.4866761,92.1976975 55.9147997,93.3333199 49.9997842,93.3333199 Z" />
</svg>
