<?xml version="1.0" encoding="UTF-8"?>
<svg viewBox="0 0 100 100" version="1.1" xmlns="http://www.w3.org/2000/svg">
    <path d="M12.5,67.1655753 L12.5,23.5734331 C12.5,22.2014344 12.9940402,21.0243218 13.9821205,20.0420954 C14.9702008,19.059869 16.1700125,18.5687558 17.5815558,18.5687558 C18.9617315,18.5687558 20.1458595,19.059869 21.1339398,20.0420954 C22.1220201,21.0243218 22.6160602,22.2014344 22.6160602,23.5734331 L22.6160602,51.3564079 C23.2434128,50.9510446 23.9099749,50.5456813 24.6157465,50.1403181 C25.3215182,49.7349548 26.0664994,49.3451824 26.8506901,48.9710009 L26.8506901,9.02712816 C26.8506901,7.6551294 27.3447302,6.47801684 28.3328105,5.49579046 C29.3208908,4.51356408 30.5050188,4.02245089 31.8851945,4.02245089 C33.2653701,4.02245089 34.4494981,4.51356408 35.4375784,5.49579046 C36.4256587,6.47801684 36.9196989,7.6551294 36.9196989,9.02712816 L36.9196989,45.7904584 C37.6411543,45.6657312 38.3782936,45.5565949 39.1311167,45.4630496 C39.8839398,45.3695042 40.621079,45.2915497 41.3425345,45.2291862 L41.3425345,5.05144995 C41.3425345,3.64826941 41.8365747,2.45556595 42.824655,1.47333957 C43.8127353,0.49111319 45.0125471,0 46.4240903,0 C47.804266,0 48.988394,0.49111319 49.9764743,1.47333957 C50.9645546,2.45556595 51.4585947,3.64826941 51.4585947,5.05144995 L51.4585947,45.7436857 C52.2114178,45.8684128 52.9328733,46.0243218 53.6229611,46.2114125 C54.3130489,46.3985033 54.9874529,46.6167758 55.6461731,46.8662301 L55.6461731,11.7867166 C55.6461731,10.4147178 56.1402133,9.23760524 57.1282936,8.25537886 C58.1163739,7.27315248 59.3005019,6.78203929 60.6806775,6.78203929 C62.0608532,6.78203929 63.2449812,7.27315248 64.2330615,8.25537886 C65.2211418,9.23760524 65.7151819,10.4147178 65.7151819,11.7867166 L65.7151819,60.8512629 C65.7151819,61.6619894 65.8641782,62.2310571 66.1621706,62.5584659 C66.4601631,62.8858746 66.8601004,63.049579 67.3619824,63.049579 C67.738394,63.049579 68.1148055,62.8936701 68.4912171,62.5818522 C68.8676286,62.2700343 69.2126725,61.7399439 69.5263488,60.9915809 L76.0664994,47.333957 C77.1643664,45.1200499 78.2230238,43.5141877 79.2424718,42.5163704 C80.2619197,41.5185532 81.5087829,41.0196445 82.9830615,41.0196445 C84.3318695,41.0196445 85.4218946,41.4094169 86.2531368,42.1889616 C87.0843789,42.9685064 87.5,43.9819146 87.5,45.2291862 C87.5,45.9775491 87.3353199,46.9753664 87.0059598,48.222638 C86.6765997,49.4699096 86.2845044,50.818522 85.8296738,52.2684752 C85.3748432,53.7184284 84.9435383,55.0982226 84.5357591,56.4078578 C83.782936,58.8088556 83.0457967,61.131899 82.3243413,63.3769878 C81.6028858,65.6220767 80.8657465,67.7814157 80.1129235,69.8550047 C79.3601004,71.9285937 78.5759097,73.9164328 77.7603513,75.818522 C76.944793,77.7206112 76.0821832,79.5447459 75.172522,81.2909261 C72.0984944,87.5272841 68.1304893,92.2045525 63.2685069,95.3227315 C58.4065245,98.4409105 52.2427854,100 44.7772898,100 C40.1035132,100 35.7983061,99.2594325 31.8616688,97.7782975 C27.9250314,96.2971625 24.5138018,94.145619 21.6279799,91.323667 C18.7421581,88.501715 16.4993726,85.0639227 14.8996236,81.01029 C13.2998745,76.9566573 12.5,72.3417524 12.5,67.1655753 Z" />
</svg>
