<?xml version="1.0" encoding="UTF-8"?>
<svg viewBox="0 0 100 100" version="1.1" xmlns="http://www.w3.org/2000/svg">
    <path d="M0,34.4129521 C0,55.8631571 17.975921,76.960891 46.3746939,95.0878032 C47.432107,95.7424012 48.9427415,96.4473433 50.0001547,96.4473433 C51.0575679,96.4473433 52.5680992,95.7424012 53.6758359,95.0878032 C82.0243884,76.960891 100,55.8631571 100,34.4129521 C100,16.588208 87.7645724,4 71.4503596,4 C62.1351414,4 54.5821754,8.43105004 50.0001547,15.2286473 C45.5187811,8.48137359 37.865168,4 28.5499497,4 C12.2357369,4 0,16.588208 0,34.4129521 Z M8.10683441,34.4129521 C8.10683441,21.019258 16.7674341,12.1068344 28.4491995,12.1068344 C37.9154915,12.1068344 43.3536312,17.9980922 46.5761943,23.0333342 C47.9356519,25.0474103 48.7916677,25.6012787 50.0001547,25.6012787 C51.2086416,25.6012787 51.9639073,24.9970868 53.4241151,23.0333342 C56.898399,18.0987393 62.1351414,12.1068344 71.5510067,12.1068344 C83.2327722,12.1068344 91.8935781,21.019258 91.8935781,34.4129521 C91.8935781,53.1441388 72.1048751,73.3355333 51.0575679,87.3335121 C50.554023,87.6859831 50.201552,87.9377452 50.0001547,87.9377452 C49.7987574,87.9377452 49.4462863,87.6859831 48.993065,87.3335121 C27.8953312,73.3355333 8.10683441,53.1441388 8.10683441,34.4129521 Z" />
</svg>
