<?xml version="1.0" encoding="UTF-8"?>
<svg viewBox="0 0 100 100" version="1.1" xmlns="http://www.w3.org/2000/svg">
    <path d="M23.3630445,100 L76.0938776,100 C78.8815962,100 81.0628795,99.2485998 82.6377277,97.7457994 C84.2125759,96.2429915 85,94.0249934 85,91.0918049 L85,89.6795321 C85,86.6739231 84.4479134,83.7950546 83.3437402,81.0429265 C82.2394928,78.2908208 80.7822763,75.6835582 78.9720906,73.2211387 C77.1619049,70.7586451 75.2159591,68.4682087 73.1342529,66.3498294 C71.0525468,64.2314501 69.0341609,62.2941016 67.0790951,60.5377839 C65.1241035,58.7814662 63.4587609,57.2333969 62.0830672,55.8935761 C61.1055343,54.9882738 60.3633389,54.0739236 59.856481,53.1505256 C59.3496231,52.2270534 59.0961941,51.149731 59.0961941,49.9185584 C59.0961941,48.6873116 59.3405773,47.619037 59.8293438,46.7137347 C60.3181102,45.8084323 61.0693514,44.8850343 62.0830672,43.9435406 C63.4587609,42.6037199 65.1241035,41.0737463 67.0790951,39.3536199 C69.0341609,37.6335677 71.0525468,35.7324476 73.1342529,33.6502596 C75.2159591,31.5680716 77.1528592,29.3138636 78.9449534,26.8876355 C80.7370476,24.4614074 82.1942641,21.8541114 83.316603,19.0657476 C84.4388677,16.2774579 85,13.3261588 85,10.2118505 L85,8.90829525 C85,5.97509191 84.2125759,3.7570752 82.6377277,2.25424512 C81.0628795,0.75141504 78.8815962,0 76.0938776,0 L23.3630445,0 C20.6839489,0 18.6203343,0.733319376 17.1722006,2.19995813 C15.7240669,3.66652272 15,5.73966287 15,8.41937859 L15,10.2118505 C15,13.3261588 15.5611323,16.2774579 16.683397,19.0657476 C17.8057359,21.8541114 19.2629524,24.4614074 21.0550466,26.8876355 C22.8471408,29.3138636 24.7840409,31.5680716 26.8657471,33.6502596 C28.9474532,35.7324476 30.9658391,37.6335677 32.9209049,39.3536199 C34.8758965,41.0737463 36.5412391,42.6037199 37.9169328,43.9435406 C38.9306486,44.8850343 39.6818898,45.8084323 40.1706562,46.7137347 C40.6594227,47.619037 40.9038059,48.6873116 40.9038059,49.9185584 C40.9038059,51.149731 40.6594227,52.2270534 40.1706562,53.1505256 C39.6818898,54.0739236 38.9306486,54.9882738 37.9169328,55.8935761 C36.5412391,57.2333969 34.8758965,58.7814662 32.9209049,60.5377839 C30.9658391,62.2941016 28.9474532,64.2314501 26.8657471,66.3498294 C24.7840409,68.4682087 22.8471408,70.7586451 21.0550466,73.2211387 C19.2629524,75.6835582 17.8057359,78.2908208 16.683397,81.0429265 C15.5611323,83.7950546 15,86.6739231 15,89.6795321 L15,91.580677 C15,94.2603779 15.7240669,96.3335255 17.1722006,97.8001197 C18.6203343,99.2667066 20.6839489,100 23.3630445,100 Z M29.0108104,92.5583991 C28.1419747,92.5583991 27.4993565,92.29586 27.082956,91.7707816 C26.6666296,91.2457107 26.5308694,90.602946 26.6756753,89.8424876 C26.8204813,89.0820314 27.3092477,88.3940009 28.1419747,87.778396 L46.7145063,73.9272034 C47.0403012,73.6737157 47.2756387,73.4383609 47.4205188,73.2211387 C47.5653247,73.0038424 47.6377277,72.6960307 47.6377277,72.2977036 L47.6377277,46.1706423 C47.6377277,44.7220992 47.447656,43.5542243 47.0675126,42.6670176 C46.6873691,41.7798109 45.9904395,40.9016891 44.9767236,40.0326523 C43.9630078,39.1635413 42.7139916,38.1495908 41.2296749,36.9908008 C39.7452841,35.8320108 38.2880676,34.6188968 36.8580253,33.3514587 C35.4279831,32.0840205 34.2604156,30.8165824 33.3553227,29.5491443 C32.8122819,28.7887556 32.5678986,28.1369409 32.6221731,27.5937001 C32.6764475,27.0505336 33.0475452,26.7789503 33.7354662,26.7789503 L66.155985,26.7789503 C66.8438318,26.7789503 67.2148924,27.0505336 67.2691668,27.5937001 C67.3235154,28.1369409 67.0791693,28.7887556 66.5361284,29.5491443 C65.6672185,30.8165824 64.5177425,32.0840205 63.0877002,33.3514587 C61.657658,34.6188968 60.2004415,35.8320108 58.7160507,36.9908008 C57.231734,38.1495908 55.9645892,39.1635413 54.9146163,40.0326523 C53.8647175,40.9016891 53.1587421,41.7798109 52.7966901,42.6670176 C52.4347123,43.5542243 52.2537234,44.7220992 52.2537234,46.1706423 L52.2537234,72.2977036 C52.2537234,72.6960307 52.3351721,73.0038424 52.4980696,73.2211387 C52.660967,73.4383609 52.8872217,73.6737157 53.1768336,73.9272034 L71.8037509,87.778396 C72.6364037,88.3940009 73.1251701,89.0820314 73.2700502,89.8424876 C73.4148562,90.602946 73.2790589,91.2457107 72.8626584,91.7707816 C72.446332,92.29586 71.8037138,92.5583991 70.934804,92.5583991 L29.0108104,92.5583991 Z" />
</svg>
