<?xml version="1.0" encoding="UTF-8"?>
<svg viewBox="0 0 100 100" version="1.1" xmlns="http://www.w3.org/2000/svg">
    <path d="M3.60134003,50.6904422 C4.77386935,50.6904422 5.73701843,50.0627675 6.61641541,49.3514028 L12.2278057,44.5810747 L12.2278057,84.7522587 C12.2278057,90.6524013 15.7035176,94 21.6917923,94 L78.3500838,94 C84.2964824,94 87.7721943,90.6105563 87.7721943,84.7522587 L87.7721943,44.5810747 L93.4254606,49.3514028 C94.2629816,50.0627675 95.2261307,50.6904422 96.39866,50.6904422 C98.6599665,50.6904422 100,49.0584879 100,47.3428436 C100,46.3804089 99.6231156,45.3761293 98.6599665,44.6229196 L87.7721943,35.4588683 L87.7721943,18.469805 C87.7721943,16.6286258 86.599665,15.4569662 84.7571189,15.4569662 L80.2763819,15.4569662 C78.4757119,15.4569662 77.2613065,16.6286258 77.2613065,18.469805 L77.2613065,26.6295768 L55.0251256,8.0085592 C53.4338358,6.66951973 51.7169179,6 50,6 C48.2830821,6 46.5661642,6.66951973 44.9748744,8.0085592 L1.3400335,44.6229196 C0.418760469,45.3761293 0,46.3804089 0,47.3428436 C0,49.0584879 1.3400335,50.6904422 3.60134003,50.6904422 Z M62.1440536,62.6581075 C62.1440536,60.7332382 60.8877722,59.4778887 58.961474,59.4778887 L41.080402,59.4778887 C39.1541039,59.4778887 37.8559464,60.7332382 37.8559464,62.6581075 L37.8559464,87.2629577 L23.1155779,87.2629577 C20.4355109,87.2629577 18.9698492,85.7983833 18.9698492,83.0784593 L18.9698492,38.9320019 L48.5343384,14.1597718 C48.9949749,13.7831669 49.5393635,13.573942 50,13.573942 C50.5025126,13.573942 51.0050251,13.7831669 51.4656616,14.1597718 L81.0301508,38.9320019 L81.0301508,83.0784593 C81.0301508,85.7983833 79.5644891,87.2629577 76.9262982,87.2629577 L62.1440536,87.2629577 L62.1440536,62.6581075 Z" />
</svg>
