<?xml version="1.0" encoding="UTF-8"?>
<svg viewBox="0 0 100 100" version="1.1" xmlns="http://www.w3.org/2000/svg">
    <path d="M11.637931,88 L88.4051724,88 C96.0344828,88 100,83.9638418 100,76.4926554 L100,23.5502825 C100,16.079096 96.0344828,12 88.4051724,12 L11.637931,12 C4.00862069,12 0,15.9502825 0,23.5502825 L0,76.4926554 C0,84.0497175 4.00862069,88 11.637931,88 Z M11.7241379,84.8225989 C6.12068966,84.8225989 3.18965517,81.9028249 3.18965517,76.320904 L3.18965517,23.7220339 C3.18965517,18.0971751 6.12068966,15.1774011 11.7241379,15.1774011 L88.2758621,15.1774011 C93.7068966,15.1774011 96.8103448,18.0971751 96.8103448,23.7220339 L96.8103448,76.320904 C96.8103448,81.9028249 93.7068966,84.8225989 88.2758621,84.8225989 L11.7241379,84.8225989 Z M30.862069,81.5163842 L69.137931,81.5163842 C69.8706897,81.5163842 70.4310345,80.9581921 70.4310345,80.2282486 C70.4310345,79.4983051 69.8706897,78.9830508 69.137931,78.9830508 L30.862069,78.9830508 C30.1293103,78.9830508 29.5689655,79.4983051 29.5689655,80.2282486 C29.5689655,80.9581921 30.1293103,81.5163842 30.862069,81.5163842 Z" />
</svg>
