<?xml version="1.0" encoding="UTF-8"?>
<svg viewBox="0 0 100 100" version="1.1" xmlns="http://www.w3.org/2000/svg">
    <path d="M12.2554068,78 L87.7960865,78 C95.8805355,78 100,73.9188192 100,65.8081181 L100,34.1402214 C100,26.0811808 95.8805355,22 87.7960865,22 L12.2554068,22 C4.17095778,22 0,26.0811808 0,34.1402214 L0,65.8081181 C0,73.9188192 4.17095778,78 12.2554068,78 Z M12.2554068,75.4686347 C5.50978373,75.4686347 2.57466529,72.4723247 2.57466529,65.704797 L2.57466529,34.295203 C2.57466529,27.5276753 5.50978373,24.5313653 12.2554068,24.5313653 L87.8475798,24.5313653 C94.5932029,24.5313653 97.476828,27.5276753 97.476828,34.295203 L97.476828,65.704797 C97.476828,72.4723247 94.5932029,75.4686347 87.8475798,75.4686347 L12.2554068,75.4686347 Z M7.15756952,57.5424354 C8.29042225,57.5424354 9.06282183,56.7675277 9.06282183,55.5793358 L9.06282183,44.4206642 C9.06282183,43.2324723 8.29042225,42.4575646 7.15756952,42.4575646 C5.97322348,42.4575646 5.20082389,43.2324723 5.20082389,44.4206642 L5.20082389,55.5793358 C5.20082389,56.7675277 5.97322348,57.5424354 7.15756952,57.5424354 Z M36.6117405,72.1623616 L63.5427394,72.1623616 C64.2636457,72.1623616 64.8300721,71.5940959 64.8300721,70.8708487 C64.8300721,70.1476015 64.2636457,69.5793358 63.5427394,69.5793358 L36.6117405,69.5793358 C35.8908342,69.5793358 35.3244078,70.1476015 35.3244078,70.8708487 C35.3244078,71.5940959 35.8908342,72.1623616 36.6117405,72.1623616 Z" />
</svg>
