<?xml version="1.0" encoding="UTF-8"?>
<svg viewBox="0 0 100 100" version="1.1" xmlns="http://www.w3.org/2000/svg">
    <path d="M1.36817102,10.7276318 C0.889431943,13.0751792 0.541717088,15.6505059 0.325026459,18.4536118 C0.108342153,21.2567178 0,23.6896864 0,25.7525176 C0,34.4149024 1.23250858,42.2689351 3.69752573,49.3146156 C6.16258083,56.3603595 9.67469784,62.415262 14.2338768,67.4793232 C18.7931189,72.5434413 24.2713423,76.4409732 30.668547,79.171919 C37.0657516,81.9028629 44.1931837,83.2683348 52.0508433,83.2683348 C57.146943,83.2683348 61.581614,82.6479641 65.3548562,81.4072226 C69.1281617,80.1664855 72.3051063,78.6396935 74.8856901,76.8268466 C77.4662107,75.0139996 79.4991555,73.2443254 80.9845247,71.5178238 C82.4698305,69.7912969 83.4725653,68.4455731 83.9927291,67.4806524 L78.2316595,67.3188618 C80.2269485,69.4284072 81.9102719,71.619731 83.28163,73.8928332 C84.6529248,76.1659417 85.8552896,78.6201723 86.8887246,81.2555248 C87.9226022,83.890871 88.9520534,86.8133862 89.9770783,90.0230704 C90.3248658,91.1139801 90.8484442,91.8828784 91.5478134,92.329765 C92.2471826,92.7765883 93.0003008,93 93.807168,93 C95.5144888,93 96.9732996,92.3395731 98.1836003,91.0187192 C99.3945334,89.6978654 100,88.0090517 100,85.9522781 C100,84.3480626 99.5045608,82.5254076 98.5136824,80.484313 C97.5221716,78.4432184 96.2799376,76.3693923 94.7869804,74.2628345 C93.2940232,72.1562767 91.7599638,70.199255 90.1848023,68.3917695 C88.6090084,66.5843472 87.2206404,65.1154448 86.0196983,63.9850621 C82.6454,60.8633754 79.0399179,58.4514219 75.2032518,56.7492015 C71.3665857,55.0470445 67.462607,53.7457562 63.4913155,52.8453366 C59.5200873,51.9449803 55.6389993,51.1662835 51.8480515,50.5092462 C48.0571037,49.8522089 44.5219378,49.0226518 41.2425539,48.020575 C37.9632333,47.0185615 35.0807066,45.564819 32.594974,43.6593475 C30.1092413,41.7539394 28.2023221,39.0863553 26.8742162,35.6565953 C26.5717675,34.8417551 26.7454399,34.2125691 27.3952336,33.7690373 C28.044964,33.3254421 28.7504669,33.4880557 29.5117423,34.256878 C32.157394,36.9052193 34.9326124,38.8602218 37.8373974,40.1218853 C40.7421825,41.3836121 43.7307843,42.2494392 46.803203,42.7193664 C49.8756217,43.1892937 53.02683,43.5557914 56.2568281,43.8188595 C59.4868262,44.0818643 62.7530257,44.515838 66.0554268,45.1207808 C69.3578912,45.7256602 72.6801794,46.78575 76.0222915,48.3010502 C79.3644669,49.8163503 82.700224,52.1154428 86.0295628,55.1983277 C86.8160686,55.8809375 87.5931525,56.0893475 88.3608146,55.8235575 C89.1278442,55.5577676 89.583446,55.011091 89.7276197,54.1835279 C89.8458675,53.5192112 89.9347114,52.6890529 89.9941515,51.6930527 C90.0529592,50.6970525 90.0823631,49.6827591 90.0823631,48.6501724 C90.0823631,41.0993074 88.4642656,34.8514397 85.2280706,29.9065695 C81.9916859,24.9617625 77.5209714,21.2622564 71.8159273,18.8080512 C66.1108199,16.353846 59.5748796,15.1267434 52.2081065,15.1267434 C48.5060658,15.1267434 44.6254837,15.4351015 40.5663601,16.0518177 C36.5072997,16.6685339 32.7805977,16.976892 29.3862542,16.976892 C26.901723,16.976892 24.3488674,16.8270014 21.7276873,16.5272203 C19.1064439,16.2274391 16.5285792,15.5316315 13.994093,14.4397976 C11.4596069,13.3479636 9.08013917,11.608872 6.85568985,9.22252268 C5.91811778,8.25051259 4.86248764,7.85812587 3.68879943,8.04536251 C2.51517445,8.23253585 1.74163165,9.12662562 1.36817102,10.7276318 Z" />
</svg>
