<?xml version="1.0" encoding="UTF-8"?>
<svg viewBox="0 0 100 100" version="1.1" xmlns="http://www.w3.org/2000/svg">
    <path d="M49.9997842,100 C56.8298371,100 63.2595611,98.6927941 69.2889563,96.0783822 C75.3183515,93.4640238 80.6369395,89.8529242 85.2447205,85.2450833 C89.8525014,80.6372411 93.4634926,75.3186279 96.077694,69.2892438 C98.6925647,63.2598262 100,56.8300783 100,50 C100,43.1699217 98.6925647,36.7401738 96.077694,30.7107562 C93.4634926,24.6813386 89.8525014,19.3627308 85.2447205,14.7549328 C80.6369395,10.1470678 75.3101863,6.5359628 69.2644607,3.92161784 C63.2187351,1.30720595 56.7808459,0 49.950793,0 C43.1207401,0 36.691016,1.30720595 30.6616208,3.92161784 C24.6322257,6.5359628 19.3218028,10.1470678 14.7303523,14.7549328 C10.1388348,19.3627308 6.53590841,24.6813386 3.92157315,30.7107562 C1.30719105,36.7401738 0,43.1699217 0,50 C0,56.8300783 1.30719105,63.2598262 3.92157315,69.2892438 C6.53590841,75.3186279 10.147,80.6372411 14.7548478,85.2450833 C19.3626957,89.8529242 24.6813172,93.4640238 30.7107124,96.0783822 C36.7400407,98.6927941 43.1697312,100 49.9997842,100 Z M49.9997842,91.6666499 C44.2154787,91.6666499 38.8070066,90.5882176 33.7743677,88.4313529 C28.7417288,86.2744935 24.3218143,83.2924691 20.5146242,79.4852795 C16.7074341,75.6780685 13.7335959,71.2581343 11.5931098,66.2254767 C9.45255671,61.1928192 8.38228017,55.7843269 8.38228017,50 C8.38228017,44.2156731 9.45255671,38.8071808 11.5931098,33.7745233 C13.7335959,28.7418657 16.6992689,24.3137696 20.4901286,20.4902349 C24.2809884,16.6667001 28.6927377,13.6846523 33.7253765,11.5440912 C38.7580154,9.40359712 44.1664876,8.33335007 49.950793,8.33335007 C55.7350984,8.33335007 61.1435706,9.40359712 66.1762094,11.5440912 C71.2088483,13.6846523 75.636928,16.6667001 79.4604485,20.4902349 C83.283969,24.3137696 86.274171,28.7418657 88.4310545,33.7745233 C90.5880049,38.8071808 91.6664801,44.2156731 91.6664801,50 C91.6664801,55.7843269 90.5961701,61.1928192 88.4555501,66.2254767 C86.314997,71.2581343 83.3411589,75.6780685 79.5340357,79.4852795 C75.7268455,83.2924691 71.2987324,86.2744935 66.2496962,88.4313529 C61.2007269,90.5882176 55.7840896,91.6666499 49.9997842,91.6666499 Z M23.3332232,40.2940887 L76.7644278,40.2940887 C77.8428361,40.2940887 78.7333445,39.9754775 79.4359529,39.3382552 C80.1385614,38.700966 80.4898656,37.8758096 80.4898656,36.862786 C80.4898656,35.8170347 80.1385614,34.9755144 79.4359529,34.3382251 C78.7333445,33.7010028 77.8428361,33.3823916 76.7644278,33.3823916 L23.3332232,33.3823916 C22.254815,33.3823916 21.3643066,33.7010028 20.6616981,34.3382251 C19.9590897,34.9755144 19.6077855,35.8170347 19.6077855,36.862786 C19.6077855,37.8758096 19.9590897,38.700966 20.6616981,39.3382552 C21.3643066,39.9754775 22.254815,40.2940887 23.3332232,40.2940887 Z M30.5881341,56.5195654 L69.509517,56.5195654 C70.5879253,56.5195654 71.4784336,56.2091195 72.1810421,55.5882276 C72.8837175,54.9673357 73.2350552,54.1340141 73.2350552,53.0882628 C73.2350552,52.0425114 72.8837175,51.2009911 72.1810421,50.5637018 C71.4784336,49.9264795 70.5879253,49.6078683 69.509517,49.6078683 L30.5881341,49.6078683 C29.5097258,49.6078683 28.6192174,49.9264795 27.916609,50.5637018 C27.2139336,51.2009911 26.8625959,52.0425114 26.8625959,53.0882628 C26.8625959,54.1340141 27.2139336,54.9673357 27.916609,55.5882276 C28.6192174,56.2091195 29.5097258,56.5195654 30.5881341,56.5195654 Z M38.1860836,72.7941339 L61.9605587,72.7941339 C63.038967,72.7941339 63.9213101,72.4754893 64.6075882,71.8382 C65.2938663,71.2009777 65.6370053,70.3758213 65.6370053,69.3627308 C65.6370053,68.3169795 65.2938663,67.4754926 64.6075882,66.8382703 C63.9213101,66.200981 63.038967,65.8823364 61.9605587,65.8823364 L38.1860836,65.8823364 C37.0750145,65.8823364 36.1763409,66.200981 35.4900629,66.8382703 C34.8037848,67.4754926 34.4606458,68.3169795 34.4606458,69.3627308 C34.4606458,70.3758213 34.8037848,71.2009777 35.4900629,71.8382 C36.1763409,72.4754893 37.0750145,72.7941339 38.1860836,72.7941339 Z" />
</svg>
