<?xml version="1.0" encoding="UTF-8"?>
<svg viewBox="0 0 100 100" version="1.1" xmlns="http://www.w3.org/2000/svg">
    <path d="M50,100 C43.1045752,100 36.6339869,98.7009804 30.5882353,96.1029412 C24.5424837,93.504902 19.2320261,89.9101307 14.6568627,85.3186275 C10.0816993,80.7271242 6.49509804,75.4166667 3.89705882,69.3872549 C1.29901961,63.3578431 0,56.8954248 0,50 C0,43.1045752 1.29901961,36.6339869 3.89705882,30.5882353 C6.49509804,24.5424837 10.0816993,19.2320261 14.6568627,14.6568627 C19.2320261,10.0816993 24.5424837,6.49509804 30.5882353,3.89705882 C36.6339869,1.29901961 43.1045752,0 50,0 C56.8954248,0 63.3660131,1.29901961 69.4117647,3.89705882 C75.4575163,6.49509804 80.7679739,10.0816993 85.3431373,14.6568627 C89.9183007,19.2320261 93.504902,24.5424837 96.1029412,30.5882353 C98.7009804,36.6339869 100,43.1045752 100,50 C100,56.8954248 98.7009804,63.3578431 96.1029412,69.3872549 C93.504902,75.4166667 89.9183007,80.7271242 85.3431373,85.3186275 C80.7679739,89.9101307 75.4575163,93.504902 69.4117647,96.1029412 C63.3660131,98.7009804 56.8954248,100 50,100 Z M22.5490196,39.9019608 L77.6470588,39.9019608 C78.7581699,39.9019608 79.6813725,39.5751634 80.4166667,38.9215686 C81.1519608,38.2679739 81.5196078,37.4183007 81.5196078,36.372549 C81.5196078,35.2941176 81.1519608,34.4199346 80.4166667,33.75 C79.6813725,33.0800654 78.7581699,32.745098 77.6470588,32.745098 L22.5490196,32.745098 C21.4379085,32.745098 20.5147059,33.0800654 19.7794118,33.75 C19.0441176,34.4199346 18.6764706,35.2941176 18.6764706,36.372549 C18.6764706,37.4183007 19.0441176,38.2679739 19.7794118,38.9215686 C20.5147059,39.5751634 21.4379085,39.9019608 22.5490196,39.9019608 Z M30.0490196,56.6666667 L70.1470588,56.6666667 C71.2908497,56.6666667 72.2222222,56.3398693 72.9411765,55.6862745 C73.6601307,55.0326797 74.0196078,54.1666667 74.0196078,53.0882353 C74.0196078,52.0098039 73.6601307,51.1356209 72.9411765,50.4656863 C72.2222222,49.7957516 71.2908497,49.4607843 70.1470588,49.4607843 L30.0490196,49.4607843 C28.9052288,49.4607843 27.9738562,49.7957516 27.254902,50.4656863 C26.5359477,51.1356209 26.1764706,52.0098039 26.1764706,53.0882353 C26.1764706,54.1666667 26.5359477,55.0326797 27.254902,55.6862745 C27.9738562,56.3398693 28.9052288,56.6666667 30.0490196,56.6666667 Z M37.8921569,73.4313725 L62.3529412,73.4313725 C63.4640523,73.4313725 64.379085,73.1045752 65.0980392,72.4509804 C65.8169935,71.7973856 66.1764706,70.9313725 66.1764706,69.8529412 C66.1764706,68.7745098 65.8169935,67.9084967 65.0980392,67.254902 C64.379085,66.6013072 63.4640523,66.2745098 62.3529412,66.2745098 L37.8921569,66.2745098 C36.748366,66.2745098 35.8169935,66.6013072 35.0980392,67.254902 C34.379085,67.9084967 34.0196078,68.7745098 34.0196078,69.8529412 C34.0196078,70.9313725 34.379085,71.7973856 35.0980392,72.4509804 C35.8169935,73.1045752 36.748366,73.4313725 37.8921569,73.4313725 Z" />
</svg>
