<?xml version="1.0" encoding="UTF-8"?>
<svg viewBox="0 0 100 100" version="1.1" xmlns="http://www.w3.org/2000/svg">
    <path d="M94.4444444,66.8276774 C97.5126931,66.8276774 100,69.328687 100,72.4138387 C100,75.4989904 97.5126931,78 94.4444444,78 L5.55555556,78 C2.48730695,78 0,75.4989904 0,72.4138387 C0,69.328687 2.48730695,66.8276774 5.55555556,66.8276774 L94.4444444,66.8276774 Z M94.4444444,33.4138387 C97.5126931,33.4138387 100,35.9148483 100,39 C100,42.0851517 97.5126931,44.5861613 94.4444444,44.5861613 L5.55555556,44.5861613 C2.48730695,44.5861613 0,42.0851517 0,39 C0,35.9148483 2.48730695,33.4138387 5.55555556,33.4138387 L94.4444444,33.4138387 Z M94.4444444,0 C97.5126931,0 100,2.50100961 100,5.5861613 C100,8.671313 97.5126931,11.1723226 94.4444444,11.1723226 L5.55555556,11.1723226 C2.48730695,11.1723226 0,8.671313 0,5.5861613 C0,2.50100961 2.48730695,0 5.55555556,0 L94.4444444,0 Z" transform="translate(0.0 11.0)" />
</svg>
