<?xml version="1.0" encoding="UTF-8"?>
<svg viewBox="0 0 100 100" version="1.1" xmlns="http://www.w3.org/2000/svg">
    <path d="M3.10152787,20.1877263 L80.0613043,20.1877263 C80.9653769,20.1877263 81.7244142,19.8888586 82.3384161,19.2911232 C82.9518536,18.6933879 83.2585724,17.9609678 83.2585724,17.0938631 C83.2585724,16.2267584 82.9518536,15.4943384 82.3384161,14.896603 C81.7244142,14.2988677 80.9653769,14 80.0613043,14 L3.10152787,14 C2.232275,14 1.49804047,14.2988677 0.898824282,14.896603 C0.299608094,15.4943384 0,16.2267584 0,17.0938631 C0,17.9609678 0.299608094,18.6933879 0.898824282,19.2911232 C1.49804047,19.8888586 2.232275,20.1877263 3.10152787,20.1877263 Z M3.10152787,41.8205333 L28.951572,41.8205333 C29.8143914,41.8205333 30.5542129,41.5144881 31.1710365,40.9023976 C31.7878037,40.2903072 32.0961872,39.5507096 32.0961872,38.6836049 C32.0961872,37.8101389 31.7878037,37.0745382 31.1710365,36.4768029 C30.5542129,35.8790675 29.8143914,35.5801998 28.951572,35.5801998 L3.10152787,35.5801998 C2.232275,35.5801998 1.49804047,35.8790675 0.898824282,36.4768029 C0.299608094,37.0745382 0,37.8101389 0,38.6836049 C0,39.5507096 0.299608094,40.2903072 0.898824282,40.9023976 C1.49804047,41.5144881 2.232275,41.8205333 3.10152787,41.8205333 Z M3.10152787,63.4102751 L28.951572,63.4102751 C29.8143914,63.4102751 30.5542129,63.1042299 31.1710365,62.4921394 C31.7878037,61.880049 32.0961872,61.1404514 32.0961872,60.2733467 C32.0961872,59.406242 31.7878037,58.6722457 31.1710365,58.0713578 C30.5542129,57.4704137 29.8143914,57.1699416 28.951572,57.1699416 L3.10152787,57.1699416 C2.232275,57.1699416 1.49804047,57.4704137 0.898824282,58.0713578 C0.299608094,58.6722457 0,59.406242 0,60.2733467 C0,61.1404514 0.299608094,61.880049 0.898824282,62.4921394 C1.49804047,63.1042299 2.232275,63.4102751 3.10152787,63.4102751 Z M3.10152787,85 L28.951572,85 C29.8143914,85 30.5542129,84.701138 31.1710365,84.1034139 C31.7878037,83.5056898 32.0961872,82.7589259 32.0961872,81.8631222 C32.0961872,80.9960119 31.7878037,80.2619968 31.1710365,79.6610768 C30.5542129,79.0601591 29.8143914,78.7597003 28.951572,78.7597003 L3.10152787,78.7597003 C2.232275,78.7597003 1.49804047,79.0601591 0.898824282,79.6610768 C0.299608094,80.2619968 0,80.9960119 0,81.8631222 C0,82.7589259 0.299608094,83.5056898 0.898824282,84.1034139 C1.49804047,84.701138 2.232275,85 3.10152787,85 Z M45.447935,84.5690513 L94.4104947,84.5690513 C96.1300386,84.5690513 97.4915088,84.0685112 98.4949053,83.0674312 C99.4983018,82.0663567 100,80.7193299 100,79.0263506 L100,41.539511 C100,39.8593444 99.4983018,38.5242914 98.4949053,37.534352 C97.4915088,36.5444126 96.1300386,36.0494429 94.4104947,36.0494429 L45.447935,36.0494429 C43.7636059,36.0494429 42.4108547,36.5444126 41.3896816,37.534352 C40.3685648,38.5242914 39.8580064,39.8593444 39.8580064,41.539511 L39.8580064,79.0263506 C39.8580064,80.7193299 40.3685648,82.0663567 41.3896816,83.0674312 C42.4108547,84.0685112 43.7636059,84.5690513 45.447935,84.5690513 Z M45.8218384,47.8097369 C44.9108244,47.8097369 44.4553174,47.376072 44.4553174,46.5087421 L44.4553174,41.9125749 C44.4553174,41.003756 44.9108244,40.5493465 45.8218384,40.5493465 L49.7198475,40.5493465 C50.630918,40.5493465 51.0864532,41.003756 51.0864532,41.9125749 L51.0864532,46.5087421 C51.0864532,47.376072 50.630918,47.8097369 49.7198475,47.8097369 L45.8218384,47.8097369 Z M45.8218384,58.5373921 C44.9108244,58.5373921 44.4553174,58.1148735 44.4553174,57.2698363 L44.4553174,52.683211 C44.4553174,51.7680308 44.9108244,51.3104406 45.8218384,51.3104406 L49.7198475,51.3104406 C50.630918,51.3104406 51.0864532,51.7680308 51.0864532,52.683211 L51.0864532,57.2698363 C51.0864532,58.1148735 50.630918,58.5373921 49.7198475,58.5373921 L45.8218384,58.5373921 Z M45.8218384,69.255421 C44.9108244,69.255421 44.4553174,68.8361112 44.4553174,67.9974915 L44.4553174,63.4013243 C44.4553174,62.4861441 44.9108244,62.0285539 45.8218384,62.0285539 L49.7198475,62.0285539 C50.630918,62.0285539 51.0864532,62.4861441 51.0864532,63.4013243 L51.0864532,67.9974915 C51.0864532,68.8361112 50.630918,69.255421 49.7198475,69.255421 L45.8218384,69.255421 Z M45.8218384,80.0261229 C44.9108244,80.0261229 44.4553174,79.5892664 44.4553174,78.7155533 L44.4553174,74.1289542 C44.4553174,73.220169 44.9108244,72.7657764 45.8218384,72.7657764 L49.7198475,72.7657764 C50.630918,72.7657764 51.0864532,73.220169 51.0864532,74.1289542 L51.0864532,78.7155533 C51.0864532,79.5892664 50.630918,80.0261229 49.7198475,80.0261229 L45.8218384,80.0261229 Z M90.1813309,47.8097369 C89.2417048,47.8097369 88.7718918,47.376072 88.7718918,46.5087421 L88.7718918,41.9125749 C88.7718918,41.003756 89.2417048,40.5493465 90.1813309,40.5493465 L94.0456489,40.5493465 C94.9790672,40.5493465 95.4457764,41.003756 95.4457764,41.9125749 L95.4457764,46.5087421 C95.4457764,47.376072 94.9790672,47.8097369 94.0456489,47.8097369 L90.1813309,47.8097369 Z M90.1813309,58.5373921 C89.2417048,58.5373921 88.7718918,58.1148735 88.7718918,57.2698363 L88.7718918,52.683211 C88.7718918,51.7680308 89.2417048,51.3104406 90.1813309,51.3104406 L94.0456489,51.3104406 C94.9790672,51.3104406 95.4457764,51.7680308 95.4457764,52.683211 L95.4457764,57.2698363 C95.4457764,58.1148735 94.9790672,58.5373921 94.0456489,58.5373921 L90.1813309,58.5373921 Z M90.1813309,69.255421 C89.2417048,69.255421 88.7718918,68.8361112 88.7718918,67.9974915 L88.7718918,63.4013243 C88.7718918,62.4861441 89.2417048,62.0285539 90.1813309,62.0285539 L94.0456489,62.0285539 C94.9790672,62.0285539 95.4457764,62.4861441 95.4457764,63.4013243 L95.4457764,67.9974915 C95.4457764,68.8361112 94.9790672,69.255421 94.0456489,69.255421 L90.1813309,69.255421 Z M90.1813309,80.0261229 C89.2417048,80.0261229 88.7718918,79.5892664 88.7718918,78.7155533 L88.7718918,74.1289542 C88.7718918,73.220169 89.2417048,72.7657764 90.1813309,72.7657764 L94.0456489,72.7657764 C94.9790672,72.7657764 95.4457764,73.220169 95.4457764,74.1289542 L95.4457764,78.7155533 C95.4457764,79.5892664 94.9790672,80.0261229 94.0456489,80.0261229 L90.1813309,80.0261229 Z M56.8393349,78.3717831 C56.4461593,78.3717831 56.1336842,78.2545976 55.9019098,78.0202265 C55.6701918,77.7858611 55.5543328,77.4725764 55.5543328,77.0803724 L55.5543328,64.7638772 C55.5543328,63.8742547 55.9826669,63.4294434 56.8393349,63.4294434 L83.0283217,63.4294434 C83.8911975,63.4294434 84.3226354,63.8742547 84.3226354,64.7638772 L84.3226354,77.0803724 C84.3226354,77.4725764 84.2125891,77.7858611 83.9924965,78.0202265 C83.7718396,78.2545976 83.450448,78.3717831 83.0283217,78.3717831 L56.8393349,78.3717831 Z M56.8393349,57.2225489 C56.4461593,57.2225489 56.1336842,57.1053718 55.9019098,56.8710176 C55.6701918,56.6366635 55.5543328,56.3233844 55.5543328,55.9311804 L55.5543328,43.4855568 C55.5543328,43.0933527 55.6701918,42.7800455 55.9019098,42.5456351 C56.1336842,42.3112809 56.4461593,42.1941039 56.8393349,42.1941039 L83.0283217,42.1941039 C83.450448,42.1941039 83.7718396,42.3112809 83.9924965,42.5456351 C84.2125891,42.7800455 84.3226354,43.0933527 84.3226354,43.4855568 L84.3226354,55.9311804 C84.3226354,56.3233844 84.2125891,56.6366635 83.9924965,56.8710176 C83.7718396,57.1053718 83.450448,57.2225489 83.0283217,57.2225489 L56.8393349,57.2225489 Z" />
</svg>
