<?xml version="1.0" encoding="UTF-8"?>
<svg viewBox="0 0 100 100" version="1.1" xmlns="http://www.w3.org/2000/svg">
    <path d="M20.1017398,34.175456 C21.2043702,34.175456 22.1373763,33.7870726 22.9007581,33.0103056 C23.6640819,32.2335965 24.0457438,31.3085682 24.0457438,30.2352207 C24.0457438,29.1336439 23.6640819,28.2015294 22.9007581,27.4388771 C22.1373763,26.6762826 21.2043702,26.2949853 20.1017398,26.2949853 C19.0556799,26.2949853 18.1368309,26.6833399 17.3451928,27.460049 C16.5535548,28.2368159 16.1577358,29.1618732 16.1577358,30.2352207 C16.1577358,31.2802811 16.5535548,32.1982521 17.3451928,32.9891337 C18.1368309,33.7800153 19.0556799,34.175456 20.1017398,34.175456 Z M20.1017398,47.1401406 C21.2043702,47.1401406 22.1373763,46.7588144 22.9007581,45.9961621 C23.6640819,45.2335676 24.0457438,44.301482 24.0457438,43.1999052 C24.0457438,42.0983284 23.6640819,41.1662139 22.9007581,40.4035616 C22.1373763,39.6409671 21.2043702,39.2596699 20.1017398,39.2596699 C19.0556799,39.2596699 18.1368309,39.6480533 17.3451928,40.4248203 C16.5535548,41.2015294 16.1577358,42.1265577 16.1577358,43.1999052 C16.1577358,44.2732527 16.5535548,45.1982811 17.3451928,45.9749902 C18.1368309,46.7517571 19.0556799,47.1401406 20.1017398,47.1401406 Z M20.1017398,60.0624812 C21.2043702,60.0624812 22.1373763,59.6811551 22.9007581,58.9185027 C23.6640819,58.1559083 24.0457438,57.2238227 24.0457438,56.1222459 C24.0457438,55.0488984 23.6640819,54.1308984 22.9007581,53.3682461 C22.1373763,52.6056516 21.2043702,52.2243544 20.1017398,52.2243544 C19.0273657,52.2243544 18.1014526,52.6056516 17.3240007,53.3682461 C16.5464908,54.1308984 16.1577358,55.0488984 16.1577358,56.1222459 C16.1577358,57.2238227 16.5464908,58.1559083 17.3240007,58.9185027 C18.1014526,59.6811551 19.0273657,60.0624812 20.1017398,60.0624812 Z M20.1017398,73.6626881 C21.2043702,73.6626881 22.1373763,73.2743105 22.9007581,72.4975551 C23.6640819,71.7208228 24.0457438,70.795783 24.0457438,69.7224354 C24.0457438,68.6208587 23.6640819,67.6816868 22.9007581,66.9049199 C22.1373763,66.1282108 21.2043702,65.7398562 20.1017398,65.7398562 C19.0556799,65.7398562 18.1368309,66.1352681 17.3451928,66.9260918 C16.5535548,67.7169734 16.1577358,68.6490879 16.1577358,69.7224354 C16.1577358,70.7674959 16.5535548,71.6854756 17.3451928,72.4763745 C18.1368309,73.2672503 19.0556799,73.6626881 20.1017398,73.6626881 Z M32.9092002,32.8196715 L81.4247052,32.8196715 C82.1884344,32.8196715 82.8244894,32.5654637 83.3328701,32.0570481 C83.8418299,31.5486325 84.0963098,30.9413567 84.0963098,30.2352207 C84.0963098,29.5008555 83.8348816,28.8723788 83.3120253,28.3497908 C82.7891691,27.8272605 82.1600623,27.5659954 81.4247052,27.5659954 L32.9092002,27.5659954 C32.1741326,27.5659954 31.5450548,27.8272605 31.0219669,28.3497908 C30.4989369,28.8723788 30.2374219,29.5008555 30.2374219,30.2352207 C30.2374219,30.9413567 30.4918729,31.5486325 31.0007747,32.0570481 C31.5096766,32.5654637 32.1458184,32.8196715 32.9092002,32.8196715 Z M32.9092002,45.8266999 L59.7963466,45.8266999 C60.5314721,45.8266999 61.1534858,45.5724921 61.6623877,45.0640765 C62.1712896,44.5556609 62.4257405,43.9342705 62.4257405,43.1999052 C62.4257405,42.46554 62.1712896,41.8370633 61.6623877,41.3144753 C61.1534858,40.7919451 60.5314721,40.5306799 59.7963466,40.5306799 L32.9092002,40.5306799 C32.1741326,40.5306799 31.5450548,40.7919451 31.0219669,41.3144753 C30.4989369,41.8370633 30.2374219,42.46554 30.2374219,43.1999052 C30.2374219,43.9342705 30.4989369,44.5556609 31.0219669,45.0640765 C31.5450548,45.5724921 32.1741326,45.8266999 32.9092002,45.8266999 Z M32.9092002,58.7913844 L81.4247052,58.7913844 C82.1884344,58.7913844 82.8244894,58.5371766 83.3328701,58.028761 C83.8418299,57.5203454 84.0963098,56.8848404 84.0963098,56.1222459 C84.0963098,55.4161099 83.8418299,54.8088341 83.3328701,54.3004185 C82.8244894,53.7920029 82.1884344,53.5377951 81.4247052,53.5377951 L32.9092002,53.5377951 C32.1458184,53.5377951 31.5096766,53.7920029 31.0007747,54.3004185 C30.4918729,54.8088341 30.2374219,55.4161099 30.2374219,56.1222459 C30.2374219,56.8848404 30.4918729,57.5203454 31.0007747,58.028761 C31.5096766,58.5371766 32.1458184,58.7913844 32.9092002,58.7913844 Z M32.9092002,72.3492648 L59.7963466,72.3492648 C60.5314721,72.3492648 61.1534858,72.0879881 61.6623877,71.5654348 C62.1712896,71.0429045 62.4257405,70.4285714 62.4257405,69.7224354 C62.4257405,68.9880702 62.1712896,68.3666798 61.6623877,67.8582642 C61.1534858,67.3498486 60.5314721,67.0956408 59.7963466,67.0956408 L32.9092002,67.0956408 C32.1458184,67.0956408 31.5096766,67.3498486 31.0007747,67.8582642 C30.4918729,68.3666798 30.2374219,68.9880702 30.2374219,69.7224354 C30.2374219,70.4285714 30.4989369,71.0429045 31.0219669,71.5654348 C31.5450548,72.0879881 32.1741326,72.3492648 32.9092002,72.3492648 Z M13.3163333,89 L86.6836667,89 C91.1508165,89 94.4868481,87.9054863 96.6917615,85.716459 C98.8972538,83.5274316 100,80.2580139 100,75.9082058 L100,24.1341467 C100,19.784356 98.8972538,16.5078839 96.6917615,14.3047303 C94.4868481,12.1015768 91.1508165,11 86.6836667,11 L13.3163333,11 C8.87755551,11 5.54847219,12.0945195 3.32908332,14.2835584 C1.10969444,16.4725973 0,19.7561268 0,24.1341467 L0,75.9082058 C0,80.2580139 1.10969444,83.5274316 3.32908332,85.716459 C5.54847219,87.9054863 8.87755551,89 13.3163333,89 Z M13.4011888,82.1787073 C11.2807547,82.1787073 9.65506539,81.620858 8.52412087,80.5051596 C7.39323425,79.3894637 6.82779094,77.730039 6.82779094,75.5268854 L6.82779094,24.5155018 C6.82779094,22.3123483 7.39323425,20.6458685 8.52412087,19.5160625 C9.65506539,18.3861986 11.2807547,17.8212667 13.4011888,17.8212667 L86.5985506,17.8212667 C88.6905548,17.8212667 90.309209,18.3861986 91.4545132,19.5160625 C92.5998175,20.6458685 93.1724696,22.3123483 93.1724696,24.5155018 L93.1724696,75.5268854 C93.1724696,77.730039 92.5998175,79.3894637 91.4545132,80.5051596 C90.309209,81.620858 88.6905548,82.1787073 86.5985506,82.1787073 L13.4011888,82.1787073 Z" />
</svg>
