<?xml version="1.0" encoding="UTF-8"?>
<svg viewBox="0 0 100 100" version="1.1" xmlns="http://www.w3.org/2000/svg">
    <path d="M26.5384615,100 L73.4615385,100 C81,100 85,95.922528 85,87.8695209 L85,52.7522936 C85,45.667686 81.9230769,41.6921509 76.025641,40.8256881 L76.025641,28.4913354 C76.025641,9.32721713 63.4102564,0 49.974359,0 C36.5897436,0 23.974359,9.32721713 23.974359,28.4913354 L23.974359,40.8256881 C18.1282051,41.6921509 15,45.667686 15,52.7522936 L15,87.8695209 C15,95.922528 19,100 26.5384615,100 Z M32.1282051,27.3700306 C32.1282051,14.5259939 40.3846154,7.69622834 49.974359,7.69622834 C59.5641026,7.69622834 67.9230769,14.5259939 67.9230769,27.3700306 L67.9230769,40.6727829 L32.1282051,40.6727829 L32.1282051,27.3700306 Z" />
</svg>
