<?xml version="1.0" encoding="UTF-8"?>
<svg viewBox="0 0 100 100" version="1.1" xmlns="http://www.w3.org/2000/svg">
    <path d="M0,75.2501659 C0,76.8108825 1.15113257,78 2.71073153,78 L97.2892685,78 C98.8488674,78 100,76.8108825 100,75.2501659 C100,73.6522893 98.8488674,72.4631719 97.2892685,72.4631719 L89.1942072,72.4631719 L89.1942072,29.2090246 C89.1942072,24.4525547 86.7434088,22 81.953212,22 L18.046788,22 C13.3308578,22 10.8429261,24.4525547 10.8429261,29.2090246 L10.8429261,72.4631719 L2.71073153,72.4631719 C1.15113257,72.4631719 0,73.6522893 0,75.2501659 Z M13.5907909,72.4631719 L13.5907909,29.6549436 C13.5907909,26.3848706 15.2246565,24.786994 18.4923877,24.786994 L41.515039,24.786994 C41.997772,24.786994 42.2577052,25.0099536 42.2577052,25.4930325 L42.2577052,25.8274718 C42.2577052,27.0165893 43.0375046,27.8341075 44.2257705,27.8341075 L55.8856294,27.8341075 C57.0738953,27.8341075 57.8165615,27.0165893 57.8165615,25.8274718 L57.8165615,25.4930325 C57.8165615,25.0099536 58.0764946,24.786994 58.5592276,24.786994 L81.5076123,24.786994 C84.7753435,24.786994 86.4092091,26.3848706 86.4092091,29.6549436 L86.4092091,72.4631719 L13.5907909,72.4631719 Z" />
</svg>
