<?xml version="1.0" encoding="UTF-8"?>
<svg viewBox="0 0 100 100" version="1.1" xmlns="http://www.w3.org/2000/svg">
    <path d="M0,40.4459719 C0,46.0212094 1.05764041,51.250131 3.17292122,56.132737 C5.28827191,61.0153429 8.2224004,65.3150698 11.9753067,69.0319179 C15.7282829,72.7487659 20.0698036,75.6546524 24.999869,77.7495773 C29.9299343,79.8445229 35.2096817,80.8919958 40.839111,80.8919958 C45.2744719,80.8919958 49.5051034,80.2162043 53.5310055,78.8646213 C57.5569076,77.5130452 61.2416523,75.6546143 64.5852396,73.2893285 L89.7642293,98.2766907 C90.3783476,98.8511271 91.0521728,99.2819372 91.7857049,99.5691208 C92.5192371,99.8563736 93.2952872,100 94.1138554,100 C95.2744544,100 96.2981014,99.7381093 97.1847962,99.2143279 C98.0721898,98.6906157 98.7632388,97.9725875 99.2579433,97.0602432 C99.7526478,96.1479404 100,95.1342618 100,94.0192074 C100,93.2082631 99.8550125,92.4480016 99.5650374,91.7384228 C99.2750623,91.028844 98.8568694,90.4037386 98.3104585,89.8631068 L73.2852254,64.9264723 C75.9123297,61.5475322 77.9679385,57.7799945 79.4520519,53.6238594 C80.9362352,49.4677934 81.6783268,45.0751643 81.6783268,40.4459719 C81.6783268,34.8707345 80.6206515,29.6418128 78.5053008,24.7592069 C76.39002,19.876601 73.4558915,15.576874 69.7029153,11.860026 C65.9499391,8.14317799 61.6084184,5.23729498 56.678353,3.14237699 C51.7483575,1.047459 46.4686102,0 40.839111,0 C35.2096817,0 29.9299343,1.047459 24.999869,3.14237699 C20.0698036,5.23729498 15.7282829,8.14317799 11.9753067,11.860026 C8.2224004,15.576874 5.28827191,19.876601 3.17292122,24.7592069 C1.05764041,29.6418128 0,34.8707345 0,40.4459719 Z M8.75123807,40.4459719 C8.75123807,36.0533774 9.57857538,31.939524 11.23325,28.1044117 C12.8879945,24.2692993 15.1909556,20.8903246 18.1421332,17.9674874 C21.0933807,15.0447193 24.5051995,12.7639278 28.3775895,11.1251128 C32.2499795,9.48636691 36.40382,8.66699399 40.839111,8.66699399 C45.2744719,8.66699399 49.4283473,9.48636691 53.3007373,11.1251128 C57.1731273,12.7639278 60.5763866,15.0447193 63.5105151,17.9674874 C66.4446436,20.8903246 68.7476046,24.2692993 70.4193983,28.1044117 C72.091122,31.939524 72.9269839,36.0533774 72.9269839,40.4459719 C72.9269839,44.8386357 72.091122,48.9525237 70.4193983,52.787636 C68.7476046,56.6226791 66.4446436,59.9931768 63.5105151,62.899129 C60.5763866,65.805012 57.1731273,68.0858035 53.3007373,69.7415036 C49.4283473,71.3971345 45.2744719,72.2249499 40.839111,72.2249499 C36.40382,72.2249499 32.2499795,71.3971345 28.3775895,69.7415036 C24.5051995,68.0858035 21.0933807,65.805012 18.1421332,62.899129 C15.1909556,59.9931768 12.8879945,56.6226791 11.23325,52.787636 C9.57857538,48.9525237 8.75123807,44.8386357 8.75123807,40.4459719 Z" />
</svg>
