<?xml version="1.0" encoding="UTF-8"?>
<svg viewBox="0 0 100 100" version="1.1" xmlns="http://www.w3.org/2000/svg">
    <path d="M18.8145487,67.5445173 C12.6777429,67.5445173 8.00778327,65.9850047 4.80466996,62.8659794 C1.60155665,59.7469541 0,55.2333646 0,49.3252109 L0,42.7572634 C0,36.8491097 1.60155665,32.3355201 4.80466996,29.2164948 C8.00778327,26.0974695 12.6777429,24.5379569 18.8145487,24.5379569 L28.4687921,24.5379569 L28.4687921,67.5445173 L18.8145487,67.5445173 Z M34.6205658,67.5895033 L34.6205658,24.5379569 C38.4822631,24.1180881 42.800479,23.4133083 47.5752133,22.4236176 C52.3499476,21.4339269 57.1695854,20.1743205 62.0341266,18.6447985 C66.8986679,17.1152765 71.4114653,15.3308341 75.5725191,13.2914714 C75.5725191,13.5613871 75.5725191,13.8163074 75.5725191,14.0562324 C75.5725191,14.2961575 75.5725191,14.5510778 75.5725191,14.8209934 L75.5725191,77.3964386 C75.5725191,77.6363636 75.5725191,77.8762887 75.5725191,78.1162137 C75.5725191,78.3561387 75.5725191,78.5810684 75.5725191,78.7910028 C71.4713366,76.7816307 67.05583,75.0196813 62.3259991,73.5051546 C57.5961682,71.9906279 52.8513696,70.7385192 48.0916031,69.7488285 C43.3318366,68.7591378 38.8414908,68.0393627 34.6205658,67.5895033 Z M90.8396947,89.7675726 C89.0435564,89.7675726 87.4569675,89.3851921 86.0799282,88.6204311 C84.7028888,87.8556701 83.6326897,86.7835052 82.8693309,85.4039363 C82.1059722,84.0243674 81.7242928,82.4348641 81.7242928,80.6354264 L81.7242928,11.1771321 C81.7242928,9.37769447 82.1059722,7.78069353 82.8693309,6.38612933 C83.6326897,4.99156514 84.7028888,3.91190253 86.0799282,3.14714152 C87.4569675,2.38238051 89.0435564,2 90.8396947,2 C92.6657686,2 94.2673253,2.38238051 95.6443646,3.14714152 C97.021404,3.91190253 98.0916031,4.99156514 98.8549618,6.38612933 C99.6183206,7.78069353 100,9.37769447 100,11.1771321 L100,80.6354264 C100,82.4348641 99.6183206,84.0243674 98.8549618,85.4039363 C98.0916031,86.7835052 97.021404,87.8556701 95.6443646,88.6204311 C94.2673253,89.3851921 92.6657686,89.7675726 90.8396947,89.7675726 Z M36.6861248,98 C34.0817243,98 32.0086813,97.3102156 30.466996,95.9306467 C28.9253106,94.5510778 27.5856908,92.6316776 26.4481365,90.1724461 L18.9043556,73.6626054 C19.622811,73.6626054 20.3113306,73.6776007 20.9699147,73.7075914 C21.6284987,73.737582 22.1523724,73.7525773 22.5415357,73.7525773 C28.229307,73.9025305 32.532555,74.0824742 35.4512797,74.2924086 C38.3700045,74.502343 40.6825326,74.7572634 42.3888639,75.0571696 L44.9034576,87.158388 C45.3824278,89.4676664 45.3075887,91.4320525 44.6789403,93.0515464 C44.0502919,94.6710403 43.0249963,95.900656 41.6030534,96.7403936 C40.1811106,97.5801312 38.5421344,98 36.6861248,98 Z" />
</svg>
