<?xml version="1.0" encoding="UTF-8"?>
<svg viewBox="0 0 100 100" version="1.1" xmlns="http://www.w3.org/2000/svg">
    <path d="M33.3034926,0 C30.1427409,0 27.8451634,2.63675428 27.8440124,5.76643099 L28.0746019,64.3166622 C28.0737548,66.6201009 27.065824,68.1548152 25.0970297,68.6437715 L16.5692768,70.4760076 C5.95017862,72.670612 1.00347889,78.1493909 0.999997859,86.1300291 C0.997551213,94.2671565 7.29350307,100.002572 16.0899179,100 L16.6211036,99.990106 L16.8909525,99.9786866 L17.4384754,99.9420562 C25.0809028,99.307234 35.455055,93.3309239 35.4603745,78.8668989 L35.4794645,30.8857284 L35.492193,30.4190857 C35.5682311,28.7310855 35.9773162,28.1743033 37.4000481,27.7846989 L37.7946369,27.6862214 L38.2378985,27.5915252 L88.9374184,27.5010773 C90.2928618,27.500576 91.2650231,28.2678485 91.5291166,30.1283728 L91.4348182,64.2936005 C91.433971,66.5970391 90.4260402,68.1317535 88.4572459,68.6207098 L79.9294931,70.4529459 C69.3103948,72.6475503 64.3636951,78.1263291 64.3607601,86.1069674 C64.3577674,94.2440948 70.6537193,99.9795099 79.4501341,99.9762568 C79.712752,99.9761597 79.9799698,99.9693319 80.2511688,99.9556249 L80.7986917,99.9189945 C82.3640081,99.7889707 84.043923,99.4348664 85.7258715,98.8296482 L86.3194016,98.6055709 C92.6473793,96.1032538 98.8164889,89.9968203 98.8205907,78.8438372 L98.8430543,29.874204 L98.9997818,7.50081402 C99.0013648,7.29765954 98.9865149,6.80795047 98.9552321,6.03168682 C98.9563483,2.99684879 96.0818215,0 92.6655708,0 C90.3880704,0 70.600711,0 33.3034926,0 Z" />
</svg>
