<?xml version="1.0" encoding="UTF-8"?>
<svg viewBox="0 0 100 100" version="1.1" xmlns="http://www.w3.org/2000/svg">
    <path d="M75,22.6381922 L75,3.92001994 C75,1.28155417 72.85,-0.411046516 70.3,0.086777215 L44.6,5.662403 C41.4,6.35935622 39.65,8.10173928 39.65,10.8895522 L39.75,66.247551 C40,68.6868873 38.85,70.2799233 36.65,70.7279646 L28.7,72.3707829 C18.7,74.4616426 14,79.5394447 14,87.056583 C14,94.6732861 19.9,100 28.2,100 C35.55,100 46.55,94.6235037 46.55,80.1368331 L46.55,34.5859618 C46.55,31.947496 47.05,31.3998899 49.4,30.9020662 L72.25,25.9238288 C73.95,25.5753522 75,24.2810105 75,22.6381922 Z" />
</svg>
