<?xml version="1.0" encoding="UTF-8"?>
<svg viewBox="0 0 100 100" version="1.1" xmlns="http://www.w3.org/2000/svg">
    <path d="M56.1829336,100 C58.6971556,100 60.4417178,98.6652977 60.9548243,96.1498973 L65.9832683,71.2525667 L84.3011712,71.2525667 C87.0719465,71.2525667 89.0730619,69.1991786 89.0730619,66.4271047 C89.0730619,64.1683778 87.4824317,62.3203285 85.224763,62.3203285 L67.7791411,62.3203285 L73.2693809,35.2156057 L91.2281093,35.2156057 C94.0501952,35.2156057 96,33.1622177 96,30.3901437 C96,28.1314168 94.4606804,26.2833676 92.1517011,26.2833676 L75.0652538,26.2833676 L79.2727273,5.59548255 C79.3240379,5.28747433 79.4266592,4.6201232 79.4266592,3.95277207 C79.4266592,1.43737166 77.5794757,0 75.1678751,0 C72.2431679,0 70.9604016,1.59137577 70.4986057,4.00410678 L65.9832683,26.2833676 L41.7133296,26.2833676 L45.8694925,5.59548255 C45.9721138,5.28747433 46.0747351,4.6201232 46.0747351,3.95277207 C46.0747351,1.43737166 44.2275516,0 41.7646403,0 C38.8912437,0 37.5571668,1.59137577 37.0953709,4.00410678 L32.5800335,26.2833676 L15.6988288,26.2833676 C12.9280535,26.2833676 10.9269381,28.4394251 10.9269381,31.2628337 C10.9269381,33.5728953 12.5175683,35.2156057 14.775237,35.2156057 L30.7841606,35.2156057 L25.2939208,62.3203285 L8.77189069,62.3203285 C5.9498048,62.3203285 4,64.476386 4,67.2997947 C4,69.6098563 5.53931958,71.2525667 7.84829894,71.2525667 L23.498048,71.2525667 L18.8287786,94.4558522 C18.7261573,94.9691992 18.623536,95.5852156 18.623536,96.0985626 C18.623536,98.613963 20.3680982,100 22.8310095,100 C25.2939208,100 27.0897936,98.6652977 27.6029002,96.1498973 L32.6313441,71.2525667 L56.9012828,71.2525667 L52.1807027,94.4558522 C52.0780814,94.9691992 52.0267708,95.5852156 52.0267708,96.0985626 C52.0267708,98.613963 53.771333,100 56.1829336,100 Z M58.6971556,62.3203285 L34.427217,62.3203285 L39.9174568,35.2156057 L64.1873954,35.2156057 L58.6971556,62.3203285 Z" />
</svg>
