<?xml version="1.0" encoding="UTF-8"?>
<svg viewBox="0 0 100 100" version="1.1" xmlns="http://www.w3.org/2000/svg">
    <path d="M26.5245,89.47334 L37.6223,89.47334 C41.9373667,89.47334 44.0949,87.29851 44.0949,82.94885 L44.0949,16.4729 C44.0949,12.1576333 41.9373667,10 37.6223,10 L26.5245,10 C22.1748333,10 20,12.1576333 20,16.4729 L20,82.94885 C20,87.29851 22.1748333,89.47334 26.5245,89.47334 Z M61.9914,89.47334 L73.0893,89.47334 C77.4044333,89.47334 79.562,87.29851 79.562,82.94885 L79.562,16.4729 C79.562,12.1576333 77.4044333,10 73.0893,10 L61.9914,10 C57.6418667,10 55.4671,12.1576333 55.4671,16.4729 L55.4671,82.94885 C55.4671,87.29851 57.6418667,89.47334 61.9914,89.47334 Z" />
</svg>
