<?xml version="1.0" encoding="UTF-8"?>
<svg viewBox="0 0 100 100" version="1.1" xmlns="http://www.w3.org/2000/svg">
    <path d="M50.0269033,50 C62.8328563,50 73.2713223,38.6069114 73.2713223,24.6760259 C73.2713223,10.8531317 62.8866629,0 50.0269033,0 C37.2747567,0 26.7824843,11.0691145 26.7824843,24.7840173 C26.7824843,38.6609071 37.2209502,50 50.0269033,50 Z M50.0269033,41.8466523 C42.1711505,41.8466523 35.4453349,34.3412527 35.4453349,24.7840173 C35.4453349,15.3887689 42.0635375,8.15334773 50.0269033,8.15334773 C58.0440756,8.15334773 64.6084717,15.2267819 64.6084717,24.6760259 C64.6084717,34.2332613 57.9364625,41.8466523 50.0269033,41.8466523 Z M16.1825987,100 L83.8174013,100 C92.7492845,100 97,97.300216 97,91.3606911 C97,77.2138229 79.1900401,56.74946 50.0269033,56.74946 C20.8099599,56.74946 3,77.2138229 3,91.3606911 C3,97.300216 7.25071551,100 16.1825987,100 Z M13.653692,91.8466523 C12.2547224,91.8466523 11.6628506,91.4686825 11.6628506,90.3347732 C11.6628506,81.425486 25.3297081,64.9028078 50.0269033,64.9028078 C74.6702919,64.9028078 88.3371494,81.425486 88.3371494,90.3347732 C88.3371494,91.4686825 87.7990841,91.8466523 86.4001145,91.8466523 L13.653692,91.8466523 Z" />
</svg>
