<?xml version="1.0" encoding="UTF-8"?>
<svg viewBox="0 0 100 100" version="1.1" xmlns="http://www.w3.org/2000/svg">
    <path d="M12.5496878,100 C9.5708801,100 7.23437782,99.3418613 5.54018095,98.025584 C3.84598408,96.7093066 2.99888565,94.9017427 2.99888565,92.6028921 C2.99888565,89.0063033 4.07870343,85.2335929 6.238339,81.2847608 C8.39797458,77.3359288 11.5257226,73.6281053 15.6215832,70.1612903 C19.7174438,66.6944753 24.6604028,63.8765295 30.4504602,61.7074527 C36.2405177,59.538376 42.7473507,58.4538376 49.9709593,58.4538376 C57.2318031,58.4538376 63.7572536,59.538376 69.5473111,61.7074527 C75.3373685,63.8765295 80.2710187,66.6944753 84.3482618,70.1612903 C88.4255048,73.6281053 91.5532528,77.3359288 93.731506,81.2847608 C95.9097591,85.2335929 96.9988856,89.0063033 96.9988856,92.6028921 C96.9988856,94.9017427 96.1517872,96.7093066 94.4575903,98.025584 C92.7633935,99.3418613 90.4268912,100 87.4480835,100 L12.5496878,100 Z M50.026812,48.4983315 C46.0426567,48.4983315 42.3563822,47.4137931 38.9679884,45.2447164 C35.5795947,43.0756396 32.8521239,40.146459 30.7855761,36.4571746 C28.7190282,32.7678902 27.6857543,28.6243975 27.6857543,24.0266963 C27.6857543,19.5031516 28.7190282,15.4245458 30.7855761,11.7908788 C32.8521239,8.15721172 35.5795947,5.2836485 38.9679884,3.1701891 C42.3563822,1.0567297 46.0426567,1.13686838e-13 50.026812,1.13686838e-13 C54.0109672,1.13686838e-13 57.6972418,1.03819058 61.0856355,3.11457175 C64.4740292,5.19095291 67.2015,8.03670745 69.2680479,11.6518354 C71.3345957,15.2669633 72.3678696,19.3548387 72.3678696,23.9154616 C72.3678696,28.550241 71.3345957,32.7215425 69.2680479,36.429366 C67.2015,40.1371895 64.4740292,43.0756396 61.0856355,45.2447164 C57.6972418,47.4137931 54.0109672,48.4983315 50.026812,48.4983315 Z" />
</svg>
