<?xml version="1.0" encoding="UTF-8"?>
<svg viewBox="0 0 100 100" version="1.1" xmlns="http://www.w3.org/2000/svg">
    <path d="M10.28,76.44 L89.72,76.44 C96.12,76.44 100,72.52 100,66.16 L100,20.28 C100,13.92 96.12,10 89.72,10 L10.28,10 C3.92,10 0,13.92 0,20.28 L0,66.16 C0,72.52 3.92,76.44 10.28,76.44 Z M89.6,16.44 C92.08,16.44 93.56,17.92 93.56,20.36 L93.56,66.08 C93.56,68.52 92.08,70 89.6,70 L72.7138886,69.9994575 C71.0736122,63.1830513 62.4792614,55.2269188 49.4860368,55.2269188 C36.5178474,55.2269188 27.9260885,63.1830513 26.2860804,69.9994575 L10.4,70 C7.92,70 6.44,68.52 6.44,66.08 L6.44,20.36 C6.44,17.92 7.92,16.44 10.4,16.44 L89.6,16.44 Z M29.88,90 L70.12,90 C71.88,90 73.36,88.56 73.36,86.76 C73.36,84.96 71.88,83.52 70.12,83.52 L29.88,83.52 C28.12,83.52 26.64,84.96 26.64,86.76 C26.64,88.56 28.12,90 29.88,90 Z M49.5139632,50.2491657 C55.4901961,50.2491657 60.684492,44.9098999 60.684492,37.9577308 C60.684492,31.0889878 55.4901961,26 49.5139632,26 C43.5377302,26 38.3434343,31.2002225 38.3434343,38.0133482 C38.3434343,44.9098999 43.5098039,50.2491657 49.5139632,50.2491657 Z" />
</svg>
