<?xml version="1.0" encoding="UTF-8"?>
<svg viewBox="0 0 100 100" version="1.1" xmlns="http://www.w3.org/2000/svg">
    <path d="M26.3805,91.15234 C27.3571,91.15234 28.2848667,90.9814433 29.1638,90.63965 C30.0426667,90.29785 30.9704,89.8339833 31.947,89.24805 L88.8805,56.3379 C90.9313,55.1334333 92.3554667,54.0673333 93.153,53.1396 C93.9505333,52.2118667 94.3493,51.0969667 94.3493,49.7949 C94.3493,48.4928333 93.9505333,47.3779333 93.153,46.4502 C92.3554667,45.5224667 90.9313,44.4726667 88.8805,43.3008 L31.947,10.3418 C30.9704,9.7884 30.0426667,9.3408 29.1638,8.999 C28.2848667,8.6572 27.3571,8.4863 26.3805,8.4863 C24.5901667,8.4863 23.1660333,9.12106667 22.1081,10.3906 C21.0501667,11.6601333 20.5212,13.3528667 20.5212,15.4688 L20.5212,84.121094 C20.5212,86.236978 21.0501667,87.9378233 22.1081,89.22363 C23.1660333,90.5094367 24.5901667,91.15234 26.3805,91.15234 Z" />
</svg>
