<?xml version="1.0" encoding="UTF-8"?>
<svg viewBox="0 0 100 100" version="1.1" xmlns="http://www.w3.org/2000/svg">
    <path d="M47.4567617,71.2860892 C51.1274149,71.2860892 52.8054278,68.7664042 52.8054278,65.4068241 L52.8054278,63.6220472 C52.9103036,56.6929134 55.374885,53.8057743 63.7649494,48.0314961 C72.7842686,41.9422572 78.5,34.9081365 78.5,24.7769029 C78.5,9.02887139 65.7051518,0 49.7640294,0 C37.9130635,0 27.5303588,5.6167979 23.0731371,15.7480315 C21.9719411,18.2152231 21.5,20.6299213 21.5,22.6246719 C21.5,25.6167979 23.2304508,27.7165354 26.4291628,27.7165354 C29.1034959,27.7165354 30.8863845,26.1417323 31.6729531,23.5695538 C34.3472861,13.5958005 40.9544618,9.81627297 49.3969641,9.81627297 C59.6223551,9.81627297 67.6453542,15.5905512 67.6453542,24.7244094 C67.6453542,32.2309711 62.9783809,36.4304462 56.2663293,41.1548556 C48.0335787,46.8766404 42.0032199,53.0183727 42.0032199,62.2572178 L42.0032199,65.5643045 C42.0032199,68.9238845 43.8385465,71.2860892 47.4567617,71.2860892 Z M47.4567617,100 C51.6517939,100 54.9553818,96.6404199 54.9553818,92.5459318 C54.9553818,88.3989501 51.6517939,85.0918635 47.4567617,85.0918635 C43.3666053,85.0918635 40.0105796,88.3989501 40.0105796,92.5459318 C40.0105796,96.6404199 43.3666053,100 47.4567617,100 Z" />
</svg>
