<?xml version="1.0" encoding="UTF-8"?>
<svg viewBox="0 0 100 100" version="1.1" xmlns="http://www.w3.org/2000/svg">
    <path d="M16.3223422,49.4686899 L46.2764391,49.4686899 C47.6073963,49.4686899 48.5637195,49.1692813 49.1454087,48.570464 C49.7270399,47.9717045 50.0178556,47.0078944 50.0178556,45.6790336 L50.0178556,26.9449417 C50.0178556,25.5861805 49.7270399,24.6074202 49.1454087,24.0086607 C48.5637195,23.4099012 47.6073963,23.1105215 46.2764391,23.1105215 L16.3223422,23.1105215 C14.991385,23.1105215 14.0410281,23.4099012 13.4712716,24.0086607 C12.9015731,24.6074202 12.6167238,25.5861805 12.6167238,26.9449417 L12.6167238,45.6790336 C12.6167238,47.0078944 12.9015731,47.9717045 13.4712716,48.570464 C14.0410281,49.1692813 14.991385,49.4686899 16.3223422,49.4686899 Z M13.3095722,89 L86.6904278,89 C91.1628657,89 94.4990925,87.898492 96.6991079,85.6954759 C98.8997026,83.4924656 100,80.2093229 100,75.8460477 L100,24.1539696 C100,19.7907118 98.8997026,16.5075691 96.6991079,14.3045414 C94.4990925,12.1015138 91.1628657,11 86.6904278,11 L13.3095722,11 C8.89714522,11 5.57577643,12.0984486 3.34546586,14.2953458 C1.11515529,16.4923008 0,19.7785087 0,24.1539696 L0,75.8460477 C0,80.2215202 1.11515529,83.5077137 3.34546586,85.7046282 C5.57577643,87.9015427 8.89714522,89 13.3095722,89 Z M13.4178352,82.1420008 C11.2977571,82.1420008 9.66874359,81.581375 8.53079457,80.4601235 C7.39278762,79.3388754 6.82378415,77.6900106 6.82378415,75.5135289 L6.82378415,24.4864884 C6.82378415,22.2799907 7.39278762,20.6236138 8.53079457,19.5173575 C9.66874359,18.4111013 11.2977571,17.8579732 13.4178352,17.8579732 L86.5818172,17.8579732 C88.6833591,17.8579732 90.3078834,18.4111013 91.4553902,19.5173575 C92.6023177,20.6236138 93.1757814,22.2799907 93.1757814,24.4864884 L93.1757814,75.5135289 C93.1757814,77.6900106 92.6023177,79.3388754 91.4553902,80.4601235 C90.3078834,81.581375 88.6833591,82.1420008 86.5818172,82.1420008 L13.4178352,82.1420008 Z" />
</svg>
