<?xml version="1.0" encoding="UTF-8"?>
<svg viewBox="0 0 100 100" version="1.1" xmlns="http://www.w3.org/2000/svg">
    <path d="M100,38.9187682 C100,35.3197736 99.0668113,32.6002302 97.2004339,30.7601381 C95.3340564,28.920046 92.5618304,28 88.8837557,28 L11.0747321,28 C7.42399743,28 4.66552508,28.920046 2.79931505,30.7601381 C0.933105016,32.6002302 0,35.3197736 0,38.9187682 L0.0408426987,61.0811736 C0.0408426987,64.6801682 0.973947715,67.3997393 2.84015775,69.2398868 C4.70642357,71.0799623 7.46489592,72 11.1155748,72 L88.9247657,72 C92.6028405,72 95.368092,71.0799623 97.2205204,69.2398868 C99.0735068,67.3997393 100,64.6801682 100,61.0811736 L100,38.9187682 Z M93.3789633,40.0959605 L93.3789633,59.9040644 C93.3789633,61.7171118 92.9021862,63.0971947 91.9486319,64.0443131 C90.9950777,64.9913762 89.6330964,65.4649077 87.8626882,65.4649077 L12.0963854,65.4649077 C10.3527593,65.4649077 9.00416908,64.9913762 8.05061482,64.0443131 C7.09706055,63.0971947 6.62028342,61.7171118 6.62028342,59.9040644 L6.62028342,40.0959605 C6.62028342,38.255813 7.09706055,36.868969 8.05061482,35.9354283 C9.00416908,35.0018322 10.3663735,34.5350341 12.1372281,34.5350341 L87.9028613,34.5350341 C89.6464875,34.5350341 90.9950777,35.0018322 91.9486319,35.9354283 C92.9021862,36.868969 93.3789633,38.255813 93.3789633,40.0959605 Z M15.6926353,32.2619499 L12.341609,32.2619499 L12.341609,54.2213537 C12.341609,54.6813906 12.5050635,55.0669992 12.8319725,55.3781794 C13.1588814,55.689415 13.5539174,55.8314828 14.0170803,55.8043827 C14.5074716,55.8043827 14.9025076,55.6487926 15.2021881,55.3376123 C15.5018686,55.0264321 15.6517089,54.6408236 15.6517089,54.1807867 L15.6926353,32.2619499 Z M22.9259776,32.2619499 L19.5748677,32.2619499 L19.5748677,47.0774815 C19.5748677,47.5645631 19.7383501,47.963694 20.0653148,48.2748742 C20.3922238,48.5860544 20.7736455,48.7281222 21.20958,48.7010775 C21.7271998,48.6740328 22.13585,48.5116815 22.4355305,48.2140236 C22.735211,47.9163657 22.8850512,47.523996 22.8850512,47.0369145 L22.9259776,32.2619499 Z M30.1183936,32.2619499 L26.7265247,32.2619499 L26.7265247,47.0774815 C26.7265247,47.5645631 26.8899791,47.963694 27.2168881,48.2748742 C27.5437971,48.5860544 27.938833,48.7281222 28.4019959,48.7010775 C28.8923873,48.6740328 29.2942304,48.5116815 29.6075251,48.2140236 C29.9208756,47.9163657 30.0775509,47.523996 30.0775509,47.0369145 L30.1183936,32.2619499 Z M37.2699669,32.2619499 L33.9189406,32.2619499 L33.9189406,47.0774815 C33.9189406,47.5645631 34.082423,47.963694 34.4093878,48.2748742 C34.7362968,48.5860544 35.1313327,48.7281222 35.5944956,48.7010775 C36.084887,48.6740328 36.4799229,48.5116815 36.7796034,48.2140236 C37.0792839,47.9163657 37.2291242,47.523996 37.2291242,47.0369145 L37.2699669,32.2619499 Z M44.5033093,32.2619499 L41.152283,32.2619499 L41.152283,47.0774815 C41.152283,47.5645631 41.3157375,47.963694 41.6426465,48.2748742 C41.9696112,48.5860544 42.351033,48.7281222 42.7869116,48.7010775 C43.3045872,48.6740328 43.7132653,48.5116815 44.0129458,48.2140236 C44.3126263,47.9163657 44.4624666,47.523996 44.4624666,47.0369145 L44.5033093,32.2619499 Z M51.7366516,32.2619499 L48.3856254,32.2619499 L48.3856254,54.2213537 C48.3856254,54.6813906 48.5490799,55.0669992 48.8759888,55.3781794 C49.2028978,55.689415 49.5843195,55.8314828 50.020254,55.8043827 C50.5378738,55.8043827 50.946524,55.6487926 51.2462045,55.3376123 C51.5459408,55.0264321 51.6958089,54.6408236 51.6958089,54.1807867 L51.7366516,32.2619499 Z M58.9290676,32.2619499 L55.5780414,32.2619499 L55.5780414,47.0774815 C55.5780414,47.5645631 55.7346887,47.963694 56.0479835,48.2748742 C56.361334,48.5860544 56.7495628,48.7281222 57.2126699,48.7010775 C57.7031171,48.6740328 58.1049881,48.5116815 58.4182828,48.2140236 C58.7315775,47.9163657 58.8882249,47.523996 58.8882249,47.0369145 L58.9290676,32.2619499 Z M66.1215673,32.2619499 L62.770541,32.2619499 L62.770541,47.0774815 C62.770541,47.5645631 62.9339955,47.963694 63.2609045,48.2748742 C63.5878135,48.5860544 63.9828494,48.7281222 64.4460123,48.7010775 C64.9364037,48.6740328 65.3314396,48.5116815 65.6311201,48.2140236 C65.9308006,47.9163657 66.0806409,47.523996 66.0806409,47.0369145 L66.1215673,32.2619499 Z M73.3141507,32.2619499 L69.962957,32.2619499 L69.962957,47.0774815 C69.962957,47.5645631 70.1264394,47.963694 70.4534042,48.2748742 C70.7803131,48.5860544 71.161707,48.7281222 71.5975856,48.7010775 C72.1152612,48.6740328 72.5239393,48.5116815 72.8236198,48.2140236 C73.1233003,47.9163657 73.2731406,47.523996 73.2731406,47.0369145 L73.3141507,32.2619499 Z M80.5469909,32.2619499 L77.1967179,32.2619499 L77.1967179,47.0774815 C77.1967179,47.5645631 77.3532257,47.963694 77.6662415,48.2748742 C77.9798152,48.5860544 78.3681556,48.7281222 78.8312627,48.7010775 C79.3217099,48.6740328 79.7234414,48.5116815 80.0364571,48.2140236 C80.3500309,47.9163657 80.5068177,47.523996 80.5068177,47.0369145 L80.5469909,32.2619499 Z M87.7396579,32.2619499 L84.388548,32.2619499 L84.388548,54.2213537 C84.388548,54.6813906 84.5520304,55.0669992 84.8789951,55.3781794 C85.2059599,55.689415 85.6009958,55.8314828 86.064103,55.8043827 C86.5545501,55.8043827 86.949586,55.6487926 87.2492108,55.3376123 C87.5488355,55.0264321 87.6986478,54.6408236 87.6986478,54.1807867 L87.7396579,32.2619499 Z" />
</svg>
