<?xml version="1.0" encoding="UTF-8"?>
<svg viewBox="0 0 100 100" version="1.1" xmlns="http://www.w3.org/2000/svg">
    <path d="M50,100 C77.3529412,100 100,77.3039216 100,50 C100,22.6470588 77.3039216,0 49.9509804,0 C22.6470588,0 0,22.6470588 0,50 C0,77.3039216 22.6960784,100 50,100 Z M50,91.6666667 C26.8627451,91.6666667 8.38235294,73.1372549 8.38235294,50 C8.38235294,26.8627451 26.8137255,8.33333333 49.9509804,8.33333333 C73.0882353,8.33333333 91.6176471,26.8627451 91.6667634,50 C91.7156863,73.1372549 73.1372549,91.6666667 50,91.6666667 Z M29.4607843,74.7058824 L57.5980392,60.9803922 C59.1666667,60.1960784 60.245098,59.1176471 61.0294118,57.5980392 L74.7058824,29.5098039 C76.2745098,26.1764706 73.872549,23.5784314 70.4411765,25.2941176 L42.4019608,38.9705882 C40.8823529,39.6568627 39.8529412,40.6862745 39.0196078,42.3529412 L25.245098,70.4901961 C23.6764706,73.7254902 26.2254902,76.2745098 29.4607843,74.7058824 Z M50,56.0294118 C46.6666667,56.0294118 44.0196078,53.3333333 44.0196078,50.0490196 C44.0196078,46.7156863 46.6666667,44.0196078 50,44.0196078 C53.3333333,44.0196078 56.0294118,46.7156863 56.0294118,50.0490196 C56.0294118,53.3333333 53.3333333,56.0294118 50,56.0294118 Z" />
</svg>
