<?xml version="1.0" encoding="UTF-8"?>
<svg viewBox="0 0 100 100" version="1.1" xmlns="http://www.w3.org/2000/svg">
    <path d="M49.9887081,100 C51.0920008,100 51.9494202,99.6570734 52.5609662,98.9712203 C53.1724443,98.2854347 53.4781834,97.4037393 53.4781834,96.3261341 L53.4781834,85.6213987 L61.9985147,90.4163539 C62.9334372,90.9341811 63.829693,91.1371041 64.6872819,91.0251228 C65.544803,90.9131416 66.2512522,90.3953144 66.8066296,89.4716412 C67.2213819,88.6949578 67.2969518,87.8833233 67.0333391,87.0367376 C66.7697265,86.1901531 66.170425,85.4905008 65.2354347,84.9377809 L53.4781834,78.3271187 L53.4781834,72.0228852 L52.4561588,54.3359985 L67.4677301,64.0288739 L72.9214789,67.1596827 L72.8161627,80.590586 C72.8161627,81.6753766 73.113117,82.5588751 73.7070254,83.2410815 C74.3009339,83.9232879 75.0442184,84.2643911 75.9368788,84.2643911 C77.0050322,84.2643911 77.8080128,83.9232879 78.3458205,83.2410815 C78.8835604,82.5588751 79.1524303,81.6753766 79.1524303,80.590586 L79.2049357,70.7178666 L88.6343439,76.1751195 C89.5764571,76.7279619 90.4832953,76.8959642 91.3548586,76.6791263 C92.2264218,76.4622884 92.9187272,75.9130555 93.4317745,75.0314276 C93.9446863,74.107795 94.0781206,73.1964869 93.8320777,72.2975033 C93.5859669,71.3985198 92.9989777,70.690111 92.0711102,70.172277 L82.6837268,64.8304428 L91.2363143,59.8044549 C92.1360975,59.2445486 92.7511371,58.5692979 93.081433,57.778703 C93.4117289,56.988108 93.3167917,56.1519966 92.7966215,55.2703687 C92.297277,54.4587038 91.610229,53.9601502 90.7354775,53.7747078 C89.8606581,53.5893329 88.9557532,53.7729857 88.0207628,54.3256661 L76.3786979,61.1566782 L70.8937104,58.026072 L54.8268407,50.0106869 L70.9044964,42.0060394 L76.3582452,38.8432205 L87.9992926,45.6742326 C88.9342829,46.226913 89.8551294,46.4105658 90.761832,46.2251909 C91.6685345,46.0397486 92.350393,45.5586181 92.8074075,44.7817996 C93.320387,43.8653253 93.4099312,43.0012895 93.07604,42.1896921 C92.7422166,41.3780272 92.1253455,40.7097661 91.2254265,40.1849089 L82.6945128,35.1908297 L92.0818962,29.8489955 C93.0168866,29.2963151 93.6144243,28.5861505 93.8745094,27.7185017 C94.1345267,26.8508529 93.9904759,25.9341761 93.442357,24.9684711 C92.957394,24.0940691 92.2685483,23.5484458 91.37582,23.3316011 C90.4830918,23.1147565 89.5728618,23.2862873 88.6451299,23.8461936 L79.2049357,29.2090978 L79.1415425,19.3462447 C79.1415425,18.2964626 78.8727065,17.4340138 78.3350345,16.7588982 C77.7973624,16.0838502 77.0083562,15.7498378 75.9680157,15.7568611 C75.0753553,15.7568611 74.3268814,16.0856736 73.7225939,16.7432984 C73.1183064,17.4009908 72.8161627,18.2686395 72.8161627,19.3462447 L72.9105911,32.8092189 L67.4677301,36.0030349 L52.4561588,45.6959103 L53.4781834,27.9245413 L53.4781834,21.6728509 L65.2354347,15.0621613 C66.170425,14.5094134 66.7697265,13.80975 67.0333391,12.9631712 C67.2969518,12.1165923 67.2213819,11.3049612 66.8066296,10.5282778 C66.2512522,9.60457758 65.544803,9.08674361 64.6872819,8.97477585 C63.829693,8.8628081 62.9334372,9.0482167 61.9985147,9.53100166 L53.4781834,14.378503 L53.4781834,3.6737646 C53.4781834,2.5961594 53.1724443,1.714464 52.5609662,1.0286784 C51.9494202,0.3428928 51.0920008,0 49.9887081,0 C48.9555583,0 48.1262911,0.3428928 47.5009065,1.0286784 C46.875454,1.714464 46.5627278,2.5961594 46.5627278,3.6737646 L46.5627278,14.3892406 L37.8939364,9.53100166 C36.9590138,9.0482167 36.076902,8.8628081 35.2476009,8.97477585 C34.4183676,9.08674361 33.7261301,9.60457758 33.1708884,10.5282778 C32.7280518,11.3049612 32.6454608,12.1148365 32.9231156,12.9579037 C33.2007704,13.8009709 33.8034637,14.481354 34.7311956,14.9990529 L46.5627278,21.6835885 L46.5627278,27.9245413 L47.5428295,45.6959103 L32.5623951,36.0030349 L27.0667234,32.8092189 L27.1720395,19.3462447 C27.2072467,18.2686395 26.9226726,17.4009908 26.3183173,16.7432984 C25.7138941,16.0856736 24.9618248,15.7568611 24.0621094,15.7568611 C22.9865619,15.7568611 22.1817497,16.0944189 21.647673,16.7695345 C21.1135963,17.4445825 20.8465579,18.303486 20.8465579,19.3462447 L20.7831647,29.2090978 L11.4064656,23.8461936 C10.4994917,23.3283596 9.59265342,23.16733 8.68595086,23.3631047 C7.77931614,23.558947 7.06592045,24.0940691 6.54576379,24.9684711 C5.99764493,25.9341761 5.86238914,26.8595645 6.13999642,27.7446365 C6.4176037,28.6297085 7.00633966,29.3311615 7.9062043,29.8489955 L17.2936895,35.1908297 L8.76267393,40.1849089 C7.85556436,40.7097661 7.24566341,41.3692819 6.9329711,42.163456 C6.62025165,42.9576977 6.70284258,43.8340919 7.18074389,44.7926385 C7.63779225,45.5693219 8.31966772,46.0485952 9.22637028,46.2304584 C10.1330728,46.4123216 11.0574468,46.226913 11.9994922,45.6742326 L23.6299571,38.8955914 L29.0837058,42.0060394 L45.1612598,50.0106869 L29.0944918,58.026072 L23.6407431,61.1674158 L11.9673377,54.3256661 C11.0324151,53.7729857 10.1257465,53.5875771 9.24733175,53.7694403 C8.36891701,53.9513035 7.71871102,54.4305768 7.29671376,55.2072602 C6.78376812,56.1730327 6.6730861,57.0406815 6.9646677,57.8102066 C7.25622894,58.5797991 7.85196902,59.2445486 8.75188793,59.8044549 L17.3044755,64.8304428 L7.91709205,70.172277 C7.01718671,70.6971343 6.43541756,71.4090885 6.1717846,72.3081396 C5.90815842,73.2071907 6.03281815,74.1114417 6.54576379,75.0208927 C7.06592045,75.9444375 7.7811138,76.4971517 8.69134386,76.6790351 C9.60150608,76.8609186 10.5065466,76.6929467 11.4064656,76.1751195 L20.7831647,70.8227097 L20.8357719,80.590586 C20.8357719,81.6753766 21.104608,82.5588751 21.64228,83.2410815 C22.179952,83.9232879 22.9829326,84.2643911 24.0512217,84.2643911 C24.9438821,84.2643911 25.6959853,83.9232879 26.3075313,83.2410815 C26.9190772,82.5588751 27.2072467,81.6753766 27.1720395,80.590586 L27.1194323,67.1596827 L32.5623951,64.0814474 L47.5428295,54.3359985 L46.5627278,72.0228852 L46.5627278,78.3163406 L34.7311956,84.9483756 C33.8034637,85.5010955 33.2007704,86.1989821 32.9231156,87.0420355 C32.6454608,87.8850892 32.7280518,88.6949578 33.1708884,89.4716412 C33.7261301,90.3953144 34.4183676,90.9131416 35.2476009,91.0251228 C36.076902,91.1371041 36.9590138,90.9341811 37.8939364,90.4163539 L46.5627278,85.6106247 L46.5627278,96.3261341 C46.5627278,97.4037393 46.875454,98.2854347 47.5009065,98.9712203 C48.1262911,99.6570734 48.9555583,100 49.9887081,100 Z" />
</svg>
