<?xml version="1.0" encoding="UTF-8"?>
<svg viewBox="0 0 100 100" version="1.1" xmlns="http://www.w3.org/2000/svg">
    <path d="M19.5893793,82.9745503 L61.9606738,82.9745503 C69.702134,82.9745503 73.5500531,79.1668575 73.5500531,71.5927182 L73.5500531,35.641697 C73.5500531,28.0675577 69.702134,24.2598875 61.9606738,24.2598875 L44.4231692,24.2598875 L44.4231692,51.458231 C44.4231692,53.408841 42.7539142,55.0317256 40.7554688,55.0317256 C38.7569478,55.0317256 37.0876928,53.408841 37.0876928,51.458231 L37.0876928,24.2598875 L19.5893793,24.2598875 C11.8871102,24.2598875 8,28.0516648 8,35.641697 L8,71.5927182 C8,79.1827504 11.8871102,82.9745503 19.5893793,82.9745503 Z M41.1721205,100 L80.4106207,100 C88.1126628,100 92,96.2082227 92,88.6181905 L92,51.9344158 C92,44.3364748 88.1126628,40.5526063 80.4106207,40.5526063 L78.6023809,40.5526063 L78.6023809,72.1312694 C78.6023809,82.5722563 73.0364827,87.9963333 62.5016325,87.9963333 L29.5828169,87.9963333 L29.5828169,88.3842409 C29.5828169,96.075355 33.2349316,100 41.1721205,100 Z M40.763413,27.1395925 C42.3703253,27.1395925 43.7343736,25.8206316 43.7343736,24.2988289 L43.7343736,13.5676496 L43.4914339,8.07849441 L45.9662257,10.6670804 L51.5665485,16.632345 C52.1075072,17.209913 52.8602343,17.5066057 53.5658261,17.5066057 C55.1175833,17.5066057 56.2858273,16.4215945 56.2858273,14.9077006 C56.2858273,14.1272909 55.9565612,13.5497983 55.3764869,12.9722303 L42.9033399,0.975417961 C42.1665767,0.250068543 41.5473114,0 40.763413,0 C40.0187057,0 39.3914962,0.250068543 38.6626772,0.975417961 L26.1423948,12.9722303 C25.6014361,13.5497983 25.2722456,14.1272909 25.2722456,14.9077006 C25.2722456,16.4215945 26.3933543,17.5066057 27.9531313,17.5066057 C28.6586475,17.5066057 29.45049,17.209913 29.9835046,16.632345 L35.5918472,10.6670804 L38.0745831,8.07051029 L37.8317191,13.5676496 L37.8317191,24.2988289 C37.8317191,25.8206316 39.1956918,27.1395925 40.763413,27.1395925 Z" />
</svg>
