<?xml version="1.0" encoding="UTF-8"?>
<svg viewBox="0 0 21 20" xmlns="http://www.w3.org/2000/svg">
    <path d="M4.01531446,19.8270441 C4.40168729,20.1285963 4.89169759,20.0249395 5.47596587,19.6008944 L10.4610053,15.9351426 L15.4554627,19.6008944 C16.0397117,20.0249395 16.5203039,20.1285963 16.9160948,19.8270441 C17.3024677,19.5349292 17.3873076,19.0543216 17.1516819,18.3664062 L15.1821647,12.5049895 L20.2142752,8.8863628 C20.7986593,8.47171643 21.0341113,8.03823391 20.8833834,7.56705977 C20.7326555,7.11474108 20.2897356,6.88857209 19.5640804,6.89799017 L13.3917069,6.93570109 L11.5164284,1.04600505 C11.2902594,0.348661915 10.9510155,0 10.4610053,0 C9.98039373,0 9.6411499,0.348661915 9.41498091,1.04600505 L7.53970243,6.93570109 L1.36730962,6.89799017 C0.641692955,6.88857209 0.198792352,7.11474108 0.0480258913,7.56705977 C-0.112177948,8.03823391 0.132827201,8.47171643 0.717095485,8.8863628 L5.74924456,12.5049895 L3.77972739,18.3664062 C3.54414032,19.0543216 3.62896093,19.5349292 4.01531446,19.8270441 Z" />
</svg>
