<?xml version="1.0" encoding="UTF-8"?>
<svg viewBox="0 0 21 20" xmlns="http://www.w3.org/2000/svg">
    <path d="M4.01531446,19.8270441 C4.40168729,20.1285963 4.89169759,20.0249395 5.47596587,19.6008944 L10.4610053,15.9351426 L15.4554627,19.6008944 C16.0397117,20.0249395 16.5203039,20.1285963 16.9160948,19.8270441 C17.3024677,19.5349292 17.3873076,19.0543216 17.1516819,18.3664062 L15.1821647,12.5049895 L20.2142752,8.8863628 C20.7986593,8.47171643 21.0341113,8.03823391 20.8833834,7.56705977 C20.7326555,7.11474108 20.2897356,6.88857209 19.5640804,6.89799017 L13.3917069,6.93570109 L11.5164284,1.04600505 C11.2902594,0.348661915 10.9510155,0 10.4610053,0 C9.98039373,0 9.6411499,0.348661915 9.41498091,1.04600505 L7.53970243,6.93570109 L1.36730962,6.89799017 C0.641692955,6.88857209 0.198792352,7.11474108 0.0480258913,7.56705977 C-0.112177948,8.03823391 0.132827201,8.47171643 0.717095485,8.8863628 L5.74924456,12.5049895 L3.77972739,18.3664062 C3.54414032,19.0543216 3.62896093,19.5349292 4.01531446,19.8270441 Z M10.4610053,14.3143028 L10.4610053,2.28990555 C10.4892595,2.28990555 10.5081149,2.3087417 10.517533,2.36528878 L12.1572244,7.82150229 C12.2797367,8.20787512 12.5247418,8.36805966 12.9111146,8.35864158 L18.6122368,8.25498482 C18.6687839,8.25498482 18.6876972,8.25498482 18.6971539,8.28325835 C18.7066106,8.31153189 18.6876972,8.33036805 18.6500635,8.35864158 L13.9571197,11.6003328 C13.6272939,11.8265018 13.5519107,12.1186166 13.683841,12.486134 L15.5591195,17.8763843 C15.5685376,17.9329256 15.5779556,17.9423494 15.5591195,17.9611952 C15.540264,17.9894669 15.5119905,17.9706191 15.4742989,17.9423494 L10.9415975,14.4839247 C10.7908117,14.3708306 10.6306272,14.3048847 10.4610053,14.3143028 Z" />
</svg>
