<?xml version="1.0" encoding="UTF-8"?>
<svg viewBox="0 0 100 100" version="1.1" xmlns="http://www.w3.org/2000/svg">
    <path d="M34.2363654,57.1877821 L44.1899127,57.1877821 C41.6163565,56.0984955 39.503281,54.3505837 37.8506863,51.9440467 C36.19804,49.5374578 35.3717168,46.839559 35.3717168,43.8503502 C35.3717168,41.1651102 36.034031,38.7141894 37.3586594,36.4975875 C38.6832877,34.2810376 40.4557629,32.5077821 42.676085,31.177821 C44.8963554,29.8478599 47.343727,29.1828794 50.0182,29.1828794 C52.6674567,29.1828794 55.1022461,29.8478599 57.3225681,31.177821 C59.5428385,32.5077821 61.3152879,34.2810376 62.6399163,36.4975875 C63.9645446,38.7141894 64.6268588,41.1651102 64.6268588,43.8503502 C64.6268588,46.839559 63.8005356,49.5374578 62.1478893,51.9440467 C60.4952946,54.3505837 58.3822192,56.0984955 55.8086629,57.1877821 L65.7622102,57.1877821 C67.3012801,55.3891829 68.5059504,53.3499351 69.3762211,51.0700389 C70.2469053,48.7901427 70.6822473,46.3835798 70.6822473,43.8503502 C70.6822473,41.0130999 70.1460919,38.3405188 69.0737811,35.832607 C68.0014703,33.3247471 66.5065547,31.1081712 64.5890344,29.1828794 C62.6714624,27.2576394 60.4637485,25.7503761 57.9658926,24.6610895 C55.4680884,23.5718029 52.8188576,23.0271595 50.0182,23.0271595 C47.1923778,23.0271595 44.5305388,23.5718029 42.032683,24.6610895 C39.5348271,25.7503761 37.327139,27.2576394 35.4096187,29.1828794 C33.4920467,31.1081712 31.9971053,33.3247471 30.9247945,35.832607 C29.8524837,38.3405188 29.3163283,41.0130999 29.3163283,43.8503502 C29.3163283,46.3835798 29.751567,48.7901427 30.6220444,51.0700389 C31.4925219,53.3499351 32.6972955,55.3891829 34.2363654,57.1877821 Z M9.71206112,45.9782879 L19.0222065,45.9782879 C20.0062087,45.9782879 20.8198979,45.6742931 21.4632741,45.0663035 C22.1066503,44.4583139 22.4283383,43.7363424 22.4283383,42.9003891 C22.4031221,42.0390661 22.0751299,41.3044099 21.4443619,40.6964202 C20.8135939,40.0884825 20.0062087,39.7845136 19.0222065,39.7845136 L9.71206112,39.7845136 C8.72805887,39.7845136 7.92067373,40.0884825 7.2899057,40.6964202 C6.65913768,41.3044099 6.34375367,42.0390661 6.34375367,42.9003891 C6.34375367,43.7363424 6.65913768,44.4583139 7.2899057,45.0663035 C7.92067373,45.6742931 8.72805887,45.9782879 9.71206112,45.9782879 Z M30.4895816,24.2810895 C31.0699171,23.6730999 31.353755,22.9257847 31.3410952,22.039144 C31.3284871,21.1525032 30.9689488,20.3545525 30.2624803,19.6452918 L23.6773179,13.0335409 C22.9708495,12.349546 22.1886806,12.0012192 21.3308113,11.9885603 C20.4729936,11.9759014 19.7413089,12.2735668 19.1357571,12.8815564 C18.5302054,13.4641764 18.2337335,14.1924773 18.2463417,15.0664591 C18.2589498,15.9403891 18.6184881,16.7320104 19.3249565,17.441323 L25.9101964,24.0530739 C26.5914486,24.7370687 27.3799216,25.091725 28.2756153,25.1170428 C29.171309,25.1423606 29.9092978,24.8637095 30.4895816,24.2810895 Z M69.5087615,24.2810895 C70.1143649,24.8637095 70.8587094,25.1423606 71.741795,25.1170428 C72.6248806,25.091725 73.4072045,24.7370687 74.0887667,24.0530739 L80.6739291,17.441323 C81.3802942,16.7320104 81.7396775,15.9467185 81.7520789,15.0854475 C81.7649971,14.2241245 81.4686544,13.4894942 80.863051,12.8815564 C80.2827672,12.2735668 79.5572832,11.9759014 78.686599,11.9885603 C77.8164316,12.0012192 77.027907,12.349546 76.3210252,13.0335409 L69.7358628,19.6452918 C69.0295493,20.3545525 68.6637845,21.1525032 68.6385682,22.039144 C68.6133003,22.9257847 68.9033647,23.6730999 69.5087615,24.2810895 Z M80.9762141,45.9782879 L90.286592,45.9782879 C91.2704392,45.9782879 92.0778244,45.6742931 92.7087474,45.0663035 C93.3396705,44.4583139 93.655132,43.7363424 93.655132,42.9003891 C93.655132,42.0390661 93.3396705,41.3044099 92.7087474,40.6964202 C92.0778244,40.0884825 91.2704392,39.7845136 90.286592,39.7845136 L80.9762141,39.7845136 C80.0176865,39.7845136 79.2103013,40.0884825 78.5540587,40.6964202 C77.8983328,41.3044099 77.5704698,42.0390661 77.5704698,42.9003891 C77.5957894,43.7363424 77.9301114,44.4583139 78.5734359,45.0663035 C79.2167604,45.6742931 80.0176865,45.9782879 80.9762141,45.9782879 Z M50.0182,16.1494163 C50.8508531,16.1494163 51.5699296,15.8264332 52.1754297,15.1804669 C52.7809815,14.5344488 53.0837574,13.7174578 53.0837574,12.7294942 L53.0837574,3.3818677 C53.0837574,2.39390402 52.7809815,1.58326848 52.1754297,0.949961089 C51.5699296,0.316653696 50.8508531,0 50.0182,0 C49.1603823,0 48.4286976,0.316653696 47.8231459,0.949961089 C47.2175941,1.58326848 46.9148182,2.39390402 46.9148182,3.3818677 L46.9148182,12.7294942 C46.9148182,13.7174578 47.2175941,14.5407782 47.8231459,15.1994553 C48.4286976,15.8580804 49.1603823,16.1747341 50.0182,16.1494163 Z M4.79202402,62.0136342 L95.2068616,62.0136342 C96.0899472,62.0136342 96.8593529,61.7159792 97.5150789,61.1206693 C98.1713215,60.5253593 98.4994428,59.8097198 98.4994428,58.973751 C98.4994428,58.1377613 98.1713215,57.4157977 97.5150789,56.8078599 C96.8593529,56.1998703 96.0899472,55.8958755 95.2068616,55.8958755 L4.79202402,55.8958755 C3.90893845,55.8958755 3.13940352,56.1998703 2.48341924,56.8078599 C1.82743496,57.4157977 1.49944282,58.1377613 1.49944282,58.973751 C1.49944282,59.8097198 1.82743496,60.5253593 2.48341924,61.1206693 C3.13940352,61.7159792 3.90893845,62.0136342 4.79202402,62.0136342 Z M29.1139582,82.1011673 C29.5545688,82.1011673 29.9086689,81.9372739 30.1762584,81.6094869 C30.4437835,81.2817 30.5618169,80.8992819 30.5303585,80.4622327 L30.2470398,75.9668912 L33.9770809,78.4955016 C34.3233164,78.7452449 34.7167717,78.8232885 35.1574467,78.7296324 C35.5980574,78.6359826 35.9442928,78.4174612 36.1961532,78.0740681 C36.4164907,77.730675 36.4637105,77.3326508 36.3378126,76.8799954 C36.2118502,76.4273464 35.9128022,76.0917596 35.4406688,75.873235 L31.4274056,73.9065327 L35.4879531,71.8930023 C35.9285637,71.7056964 36.2039533,71.3935207 36.3141221,70.9564753 C36.4242909,70.5194299 36.4006971,70.1136019 36.2433408,69.7389915 C36.0230032,69.3643835 35.6767677,69.1458608 35.2046343,69.0834234 C34.7325009,69.0209859 34.3233164,69.0990295 33.9770809,69.3175541 L30.2470398,71.8930023 L30.5775461,67.3976799 C30.6405273,66.9294183 30.5224939,66.5391972 30.223446,66.2270164 C29.9243981,65.914842 29.5545688,65.7587549 29.1139582,65.7587549 C28.6103019,65.7587549 28.2247112,65.914842 27.9571861,66.2270164 C27.6895966,66.5391972 27.5715632,66.9294183 27.6030861,67.3976799 L27.8863081,71.8930023 L24.1091761,69.3175541 C23.7629406,69.0990295 23.3694854,69.0209859 22.9288103,69.0834234 C22.4881352,69.1458608 22.1576289,69.3643835 21.9372914,69.7389915 C21.7484122,70.1136019 21.7011924,70.5116255 21.795632,70.9330622 C21.8900716,71.3544976 22.1576289,71.6744776 22.598304,71.8930023 L26.6587547,73.9065327 L22.598304,75.873235 C22.1576289,76.0917596 21.8743424,76.4195433 21.7484445,76.8565862 C21.6225465,77.293629 21.6697663,77.6994563 21.8901038,78.0740681 C22.1104414,78.4486799 22.4488123,78.6750076 22.9052165,78.7530512 C23.3616208,78.8310948 23.7629406,78.7608543 24.1091761,78.5423297 L27.8863081,76.0137096 L27.6502736,80.4622327 C27.6188153,80.8992819 27.728984,81.2817 27.9807799,81.6094869 C28.2325758,81.9372739 28.6103019,82.1011673 29.1139582,82.1011673 Z M55.4669801,82.1011673 C55.9076535,82.1011673 56.2617844,81.9372739 56.5293729,81.6094869 C56.796897,81.2817 56.9149299,80.8992819 56.8834716,80.4622327 L56.600154,75.9668912 L60.3300838,78.4955016 C60.676318,78.7452449 61.0697717,78.8232885 61.5104451,78.7296324 C61.9511184,78.6359826 62.2973848,78.4174612 62.5492442,78.0740681 C62.7695808,77.730675 62.8167682,77.3326508 62.6908063,76.8799954 C62.5649088,76.4273464 62.2658943,76.0917596 61.7937627,75.873235 L57.7333278,73.9065327 L61.8409501,71.8930023 C62.2816234,71.7056964 62.5570443,71.3935207 62.6672126,70.9564753 C62.7773809,70.5194299 62.7537872,70.1136019 62.5964315,69.7389915 C62.3760949,69.3643835 62.0298607,69.1458608 61.5577291,69.0834234 C61.0855331,69.0209859 60.676318,69.0990295 60.3300838,69.3175541 L56.600154,71.8930023 L56.930659,67.3976799 C56.99364,66.9294183 56.8756071,66.5391972 56.5765603,66.2270164 C56.2775135,65.914842 55.9076535,65.7587549 55.4669801,65.7587549 C54.9633903,65.7587549 54.5778011,65.914842 54.3102126,66.2270164 C54.0426886,66.5391972 53.9246557,66.9294183 53.9561139,67.3976799 L54.2394315,71.8930023 L50.4150302,69.3175541 C50.1002543,69.0990295 49.722562,69.0209859 49.2819531,69.0834234 C48.8412797,69.1458608 48.5107747,69.3643835 48.2904381,69.7389915 C48.0701014,70.1136019 48.0150172,70.5116255 48.1251855,70.9330622 C48.2353539,71.3544976 48.5107747,71.6744776 48.9514481,71.8930023 L53.0118829,73.9065327 L48.9514481,75.873235 C48.5107747,76.0917596 48.2274571,76.4195433 48.1014952,76.8565862 C47.9755977,77.293629 48.0228173,77.6994563 48.243154,78.0740681 C48.4634907,78.4486799 48.8018602,78.6750076 49.2582627,78.7530512 C49.7146652,78.8310948 50.1002543,78.7608543 50.4150302,78.5423297 L54.2394315,76.0137096 L54.003398,80.4622327 C53.9718753,80.8992819 54.0820436,81.2817 54.333903,81.6094869 C54.5856979,81.9372739 54.9633903,82.1011673 55.4669801,82.1011673 Z M81.8200602,82.1011673 C82.2607352,82.1011673 82.6148675,81.9372739 82.8824571,81.6094869 C83.1499822,81.2817 83.2680156,80.8992819 83.2365572,80.4622327 L82.9060509,75.9668912 L86.6831829,78.4955016 C87.0294184,78.7452449 87.4228736,78.8232885 87.8635487,78.7296324 C88.3042238,78.6359826 88.6504593,78.4174612 88.9022552,78.0740681 C89.1225927,77.730675 89.1698125,77.3326508 89.0439145,76.8799954 C88.9180166,76.4273464 88.6190009,76.0917596 88.1468674,75.873235 L84.0864167,73.9065327 L88.194055,71.8930023 C88.6347301,71.7056964 88.910152,71.3935207 89.0203208,70.9564753 C89.1304895,70.5194299 89.1068957,70.1136019 88.9495394,69.7389915 C88.7292019,69.3643835 88.3829342,69.1458608 87.9107363,69.0834234 C87.4386028,69.0209859 87.0294184,69.0990295 86.6831829,69.3175541 L82.9060509,71.8930023 L83.2837447,67.3976799 C83.3466615,66.9294183 83.2286281,66.5391972 82.9296447,66.2270164 C82.6305967,65.914842 82.2607352,65.7587549 81.8200602,65.7587549 C81.3164683,65.7587549 80.9308777,65.914842 80.6632881,66.2270164 C80.395763,66.5391972 80.2777297,66.9294183 80.309188,67.3976799 L80.5925068,71.8930023 L76.7680905,69.3175541 C76.4533134,69.0990295 76.0755873,69.0209859 75.6349122,69.0834234 C75.1942372,69.1458608 74.8637309,69.3643835 74.6433933,69.7389915 C74.4230558,70.1136019 74.3679714,70.5116255 74.4781402,70.9330622 C74.588309,71.3544976 74.8637309,71.6744776 75.3044059,71.8930023 L79.3649534,73.9065327 L75.3044059,75.873235 C74.8637309,76.0917596 74.5804444,76.4195433 74.4545464,76.8565862 C74.3286485,77.293629 74.3758682,77.6994563 74.5962058,78.0740681 C74.8165433,78.4486799 75.1549142,78.6750076 75.6113185,78.7530512 C76.0677227,78.8310948 76.4533134,78.7608543 76.7680905,78.5423297 L80.5925068,76.0137096 L80.3563756,80.4622327 C80.3249172,80.8992819 80.435086,81.2817 80.6868819,81.6094869 C80.9387423,81.9372739 81.3164683,82.1011673 81.8200602,82.1011673 Z M19.037798,100 C19.4784082,100 19.832508,99.8287963 20.1000973,99.486389 C20.3676222,99.1439816 20.4856554,98.7548766 20.4541971,98.3190738 L20.1708786,93.8833335 L23.9008198,96.4047228 C24.2471194,96.6226242 24.6406066,96.6926548 25.0812813,96.6148147 C25.5218915,96.5369745 25.8681267,96.3112955 26.1199868,95.9377776 C26.3403242,95.5953703 26.3875439,95.1984876 26.2616461,94.7471295 C26.1356838,94.2957715 25.8366361,93.9611418 25.3645031,93.7432404 L21.3512434,91.8287938 L25.4117873,89.8210155 C25.8523975,89.6031141 26.127787,89.276262 26.2379556,88.8404593 C26.3481243,88.4046565 26.3245306,88.0155515 26.1671744,87.6731441 C25.946837,87.2996262 25.6006018,87.0739472 25.1284688,86.996107 C24.6563358,86.9182669 24.2471194,86.9882975 23.9008198,87.2061989 L20.1708786,89.8210155 L20.5013846,85.2918479 C20.5643658,84.8560452 20.4463325,84.4747177 20.1472848,84.1478657 C19.8482372,83.8210136 19.4784082,83.6575875 19.037798,83.6575875 C18.5341421,83.6575875 18.1485518,83.8210136 17.8810269,84.1478657 C17.6134376,84.4747177 17.4954044,84.8560452 17.5269272,85.2918479 L17.810149,89.8210155 L14.0330203,87.2061989 C13.6867851,86.9882975 13.2933301,86.9104893 12.8526554,86.9727741 C12.4119808,87.0349952 12.0814747,87.2684519 11.8611374,87.6731441 C11.6722584,88.0155515 11.6250387,88.3968789 11.7194782,88.8171264 C11.8139176,89.2373738 12.0814747,89.5720036 12.5221494,89.8210155 L16.5825966,91.8287938 L12.5221494,93.7899062 C12.0814747,93.976697 11.7981885,94.2879938 11.6722906,94.7237966 C11.5463928,95.1595356 11.5935803,95.564196 11.8138532,95.9377776 C12.0341905,96.3424698 12.3725934,96.5759265 12.8290617,96.6381476 C13.2854655,96.7004325 13.6867851,96.6226242 14.0330203,96.4047228 L17.810149,93.8833335 L17.5741147,98.3190738 C17.5426563,98.7548766 17.652825,99.1439816 17.9046207,99.486389 C18.1564164,99.8287963 18.5341421,100 19.037798,100 Z M45.3908136,100 C45.8314869,100 46.1856179,99.8287963 46.4532064,99.486389 C46.7207304,99.1439816 46.8387633,98.7548766 46.8073051,98.3190738 L46.5239874,93.8833335 L50.2539173,96.4047228 C50.6001514,96.6226242 50.9936052,96.6926548 51.4342785,96.6148147 C51.8749519,96.5369745 52.2212182,96.3112955 52.4730776,95.9377776 C52.6934143,95.5953703 52.7406017,95.1984876 52.6146397,94.7471295 C52.4887423,94.2957715 52.1897277,93.9611418 51.7175961,93.7432404 L47.6571613,91.8287938 L51.7647835,89.8210155 C52.2054569,89.6031141 52.4808777,89.276262 52.591046,88.8404593 C52.7012144,88.4046565 52.6776207,88.0155515 52.520265,87.6731441 C52.2999283,87.2996262 51.9536942,87.0739472 51.4815626,86.996107 C51.0093665,86.9182669 50.6001514,86.9882975 50.2539173,87.2061989 L46.5239874,89.8210155 L46.8544924,85.2918479 C46.9174734,84.8560452 46.7994405,84.4747177 46.5003937,84.1478657 C46.201347,83.8210136 45.8314869,83.6575875 45.3908136,83.6575875 C44.8872237,83.6575875 44.5016346,83.8210136 44.234046,84.1478657 C43.966522,84.4747177 43.8484891,84.8560452 43.8799474,85.2918479 L44.163265,89.8210155 L40.3388637,87.2061989 C40.0240878,86.9882975 39.6463632,86.9104893 39.2056898,86.9727741 C38.765081,87.0349952 38.4346082,87.2684519 38.2142715,87.6731441 C38.0253931,88.0155515 37.9781735,88.3968789 38.0726127,88.8171264 C38.1670519,89.2373738 38.4346082,89.5720036 38.8752815,89.8210155 L42.9357164,91.8287938 L38.8752815,93.7899062 C38.4346082,93.976697 38.1512905,94.2879938 38.0253286,94.7237966 C37.8994312,95.1595356 37.9466508,95.564196 38.1669874,95.9377776 C38.3873241,96.3424698 38.7256937,96.5759265 39.1820961,96.6381476 C39.6384986,96.7004325 40.0240878,96.6226242 40.3388637,96.4047228 L44.163265,93.8833335 L43.9272314,98.3190738 C43.8957087,98.7548766 44.005877,99.1439816 44.2577364,99.486389 C44.5095314,99.8287963 44.8872237,100 45.3908136,100 Z M71.7438936,100 C72.1845687,100 72.5386688,99.8287963 72.8061939,99.486389 C73.0737834,99.1439816 73.191849,98.7548766 73.1603906,98.3190738 L72.8298843,93.8833335 L76.6070163,96.4047228 C76.9532518,96.6226242 77.3467071,96.6926548 77.7873822,96.6148147 C78.2280572,96.5369745 78.5742927,96.3112955 78.8260886,95.9377776 C79.0464262,95.5953703 79.0936459,95.1984876 78.967748,94.7471295 C78.84185,94.2957715 78.5428343,93.9611418 78.0707009,93.7432404 L74.0102502,91.8287938 L78.1178885,89.8210155 C78.5585635,89.6031141 78.8339854,89.276262 78.9441542,88.8404593 C79.054323,88.4046565 79.0307292,88.0155515 78.8733729,87.6731441 C78.6530353,87.2996262 78.3067676,87.0739472 77.8345697,86.996107 C77.3624363,86.9182669 76.9532518,86.9882975 76.6070163,87.2061989 L72.8298843,89.8210155 L73.2075782,85.2918479 C73.2704949,84.8560452 73.1524616,84.4747177 72.8534781,84.1478657 C72.5544302,83.8210136 72.1845687,83.6575875 71.7438936,83.6575875 C71.2403018,83.6575875 70.8547111,83.8210136 70.5871216,84.1478657 C70.3195965,84.4747177 70.2015631,84.8560452 70.2330215,85.2918479 L70.5163402,89.8210155 L66.691924,87.2061989 C66.3771469,86.9882975 65.9994208,86.9104893 65.5587457,86.9727741 C65.1180706,87.0349952 64.7875643,87.2684519 64.5672268,87.6731441 C64.3468893,88.0155515 64.2918049,88.3968789 64.4019736,88.8171264 C64.5121424,89.2373738 64.7875643,89.5720036 65.2282394,89.8210155 L69.2887868,91.8287938 L65.2282394,93.7899062 C64.7875643,93.976697 64.5042778,94.2879938 64.3783799,94.7237966 C64.2524819,95.1595356 64.2997017,95.564196 64.5200392,95.9377776 C64.7403768,96.3424698 65.0787477,96.5759265 65.5351519,96.6381476 C65.9915562,96.7004325 66.3771469,96.6226242 66.691924,96.4047228 L70.5163402,93.8833335 L70.280209,98.3190738 C70.2487507,98.7548766 70.3589194,99.1439816 70.6107153,99.486389 C70.8625757,99.8287963 71.2403018,100 71.7438936,100 Z" />
</svg>
