<?xml version="1.0" encoding="UTF-8"?>
<svg viewBox="0 0 100 100" version="1.1" xmlns="http://www.w3.org/2000/svg">
    <path d="M49.9750881,26.5045225 C45.6666711,26.5045225 41.7314758,27.570451 38.1695022,29.702308 C34.6075916,31.834165 31.7593561,34.676012 29.6247959,38.2278491 C27.4902357,41.779749 26.4229555,45.703815 26.4229555,50.0000472 C26.4229555,54.2962164 27.4902357,58.220251 29.6247959,61.7721509 C31.7593561,65.3240509 34.6075916,68.1659293 38.1695022,70.2977863 C41.7314758,72.4295804 45.6666711,73.4954775 49.9750881,73.4954775 C54.2574545,73.4954775 58.1796246,72.4295804 61.7415983,70.2977863 C65.303572,68.1659293 68.1518074,65.3240509 70.2863046,61.7721509 C72.4208648,58.220251 73.4881449,54.2962164 73.4881449,50.0000472 C73.4881449,45.703815 72.4208648,41.779749 70.2863046,38.2278491 C68.1518074,34.676012 65.303572,31.834165 61.7415983,29.702308 C58.1796246,27.570451 54.2574545,26.5045225 49.9750881,26.5045225 Z M54.0340388,4.01746923 C54.0340388,2.95531459 53.6370059,2.02018201 52.8429402,1.21207147 C52.0488114,0.404023822 51.1028582,0 50.0050808,0 C48.9005542,0 47.951258,0.404023822 47.1571923,1.21207147 C46.3631265,2.02018201 45.9660937,2.95531459 45.9660937,4.01746923 L45.9660937,13.7303629 C45.9660937,14.7925176 46.3631265,15.7293169 47.1571923,16.5407611 C47.951258,17.3522052 48.9005542,17.7579272 50.0050808,17.7579272 C51.1028582,17.7579272 52.0488114,17.3522052 52.8429402,16.5407611 C53.6370059,15.7293169 54.0340388,14.7925176 54.0340388,13.7303629 L54.0340388,4.01746923 Z M72.7859181,21.6037799 C72.0278688,22.3598111 71.6488442,23.2966419 71.6488442,24.4142724 C71.6488442,25.5319028 72.0278688,26.4849927 72.7859181,27.2735421 C73.5833269,28.0294475 74.5407914,28.4155454 75.6583117,28.431836 C76.7758319,28.4481894 77.7332965,28.0620914 78.5307053,27.2735421 L85.4206085,20.4031244 C86.1852808,19.6079708 86.5676169,18.6451003 86.5676169,17.5145129 C86.5676169,16.3839255 86.1852808,15.4372826 85.4206085,14.6745842 C84.6298858,13.9186788 83.6740928,13.5407261 82.5532295,13.5407261 C81.4324293,13.5407261 80.4929414,13.9186788 79.734766,14.6745842 L72.7859181,21.6037799 Z M95.9609183,54.0276115 C97.0325822,54.0276115 97.9736784,53.6300347 98.7842071,52.8348811 C99.5947357,52.0397904 100,51.0948457 100,50.0000472 C100,48.9051857 99.5947357,47.9602096 98.7842071,47.1651189 C97.9736784,46.3699653 97.0325822,45.9723885 95.9609183,45.9723885 L86.2797058,45.9723885 C85.1751792,45.9723885 84.225883,46.3699653 83.4318173,47.1651189 C82.6376885,47.9602096 82.2406241,48.9051857 82.2406241,50.0000472 C82.2406241,51.0948457 82.6376885,52.0397904 83.4318173,52.8348811 C84.225883,53.6300347 85.1751792,54.0276115 86.2797058,54.0276115 L95.9609183,54.0276115 Z M78.4816951,72.7753295 C77.7169597,72.0193612 76.7758319,71.641377 75.6583117,71.641377 C74.5407914,71.641377 73.5833269,72.0193612 72.7859181,72.7753295 C72.0278688,73.5638285 71.6488442,74.5169215 71.6488442,75.6346086 C71.6488442,76.7522957 72.0278688,77.6890793 72.7859181,78.4449596 L79.734766,85.374193 C80.4929414,86.1301864 81.4324293,86.5000316 82.5532295,86.4837285 C83.6740928,86.4674254 84.6298858,86.0813306 85.4206085,85.3254441 C86.1852808,84.5627596 86.5676169,83.6242462 86.5676169,82.509904 C86.5676169,81.3955631 86.1852808,80.4408568 85.4206085,79.6457849 L78.4816951,72.7753295 Z M54.0340388,86.2696654 C54.0340388,85.207473 53.6370059,84.2706595 52.8429402,83.4592248 C52.0488114,82.6477901 51.1028582,82.2420728 50.0050808,82.2420728 C48.9005542,82.2420728 47.951258,82.6477901 47.1571923,83.4592248 C46.3631265,84.2706595 45.9660937,85.207473 45.9660937,86.2696654 L45.9660937,95.9825308 C45.9660937,97.0446854 46.3631265,97.979818 47.1571923,98.7879285 C47.951258,99.5959762 48.9005542,100 50.0050808,100 C51.1028582,100 52.0488114,99.5959762 52.8429402,98.7879285 C53.6370059,97.979818 54.0340388,97.0446854 54.0340388,95.9825308 L54.0340388,86.2696654 Z M14.5694002,79.5968662 C13.7720545,80.3853589 13.3733816,81.3384501 13.3733816,82.4561397 C13.3733816,83.5738267 13.7557493,84.5139553 14.5204846,85.2765253 C15.2786601,86.0325251 16.2263162,86.4186482 17.3634532,86.4348947 C18.5005902,86.4511475 19.4481833,86.0813306 20.2062325,85.3254441 L27.1061649,78.4549981 C27.8969507,77.7056906 28.2923436,76.7705486 28.2923436,75.649572 C28.2923436,74.5285954 27.9132559,73.5738167 27.1550805,72.7852359 C26.3970943,72.0293305 25.4494697,71.6513778 24.3122065,71.6513778 C23.1750065,71.6513778 22.2240388,72.0293305 21.4593035,72.7852359 L14.5694002,79.5968662 Z M4.03902497,45.9723885 C2.93449838,45.9723885 1.9851959,46.3699653 1.19111754,47.1651189 C0.39703918,47.9602096 0,48.9051857 0,50.0000472 C0,51.0948457 0.39703918,52.0397904 1.19111754,52.8348811 C1.9851959,53.6300347 2.93449838,54.0276115 4.03902497,54.0276115 L13.6714165,54.0276115 C14.77588,54.0276115 15.7251762,53.6300347 16.519305,52.8348811 C17.3133707,52.0397904 17.7104036,51.0948457 17.7104036,50.0000472 C17.7104036,48.9051857 17.3133707,47.9602096 16.519305,47.1651189 C15.7251762,46.3699653 14.77588,45.9723885 13.6714165,45.9723885 L4.03902497,45.9723885 Z M21.4593035,27.2735421 C22.2174789,28.0294475 23.1569983,28.4074002 24.2778616,28.4074002 C25.3986618,28.4074002 26.3414296,28.0294475 27.1061649,27.2735421 C27.8969507,26.5175738 28.2923436,25.5726292 28.2923436,24.4387082 C28.2923436,23.3047872 27.9132559,22.3598111 27.1550805,21.6037799 L20.2651772,14.6745842 C19.5464244,13.9186788 18.616808,13.5407261 17.476328,13.5407261 C16.3357849,13.5407261 15.3864572,13.9186788 14.6283449,14.6745842 C13.8309992,15.4305525 13.4323263,16.3754972 13.4323263,17.5094182 C13.4323263,18.643402 13.814694,19.5916803 14.5794293,20.3542528 L21.4593035,27.2735421 Z" />
</svg>
