<?xml version="1.0" encoding="UTF-8"?>
<svg viewBox="0 0 100 100" version="1.1" xmlns="http://www.w3.org/2000/svg">
    <path d="M31.8680143,26.3526119 L68.1783591,26.3526119 C69.0130797,26.3526119 69.7086801,26.0572139 70.2651605,25.4664179 C70.8216409,24.8756219 71.0998811,24.1604478 71.0998811,23.3208955 C71.0998811,22.5124378 70.8216409,21.8283582 70.2651605,21.2686567 C69.7086801,20.7089552 69.0130797,20.4291045 68.1783591,20.4291045 L31.8680143,20.4291045 C31.0023781,20.4291045 30.2913199,20.7089552 29.7348395,21.2686567 C29.1783591,21.8283582 28.9001189,22.5124378 28.9001189,23.3208955 C28.9001189,24.1604478 29.1783591,24.8756219 29.7348395,25.4664179 C30.2913199,26.0572139 31.0023781,26.3526119 31.8680143,26.3526119 Z M31.8680143,43.1436567 L68.1783591,43.1436567 C69.0130797,43.1436567 69.7086801,42.8482587 70.2651605,42.2574627 C70.8216409,41.6666667 71.0998811,40.9514925 71.0998811,40.1119403 C71.0998811,39.3034826 70.8216409,38.619403 70.2651605,38.0597015 C69.7086801,37.5 69.0130797,37.2201493 68.1783591,37.2201493 L31.8680143,37.2201493 C31.0023781,37.2201493 30.2913199,37.5 29.7348395,38.0597015 C29.1783591,38.619403 28.9001189,39.3034826 28.9001189,40.1119403 C28.9001189,40.9514925 29.1783591,41.6666667 29.7348395,42.2574627 C30.2913199,42.8482587 31.0023781,43.1436567 31.8680143,43.1436567 Z M31.8680143,59.9347015 L49.0261593,59.9347015 C49.8917955,59.9347015 50.6028537,59.6470771 51.1593341,59.0718284 C51.7158145,58.4965796 51.9940547,57.8047264 51.9940547,56.9962687 C51.9940547,56.1567164 51.7158145,55.4493159 51.1593341,54.8740672 C50.6028537,54.2988184 49.8917955,54.011194 49.0261593,54.011194 L31.8680143,54.011194 C31.0023781,54.011194 30.2913199,54.2988184 29.7348395,54.8740672 C29.1783591,55.4493159 28.9001189,56.1567164 28.9001189,56.9962687 C28.9001189,57.8047264 29.1783591,58.4965796 29.7348395,59.0718284 C30.2913199,59.6470771 31.0023781,59.9347015 31.8680143,59.9347015 Z M11,85.4011194 L11,14.6455224 C11,9.79477612 12.1979786,6.14116915 14.5939358,3.68470149 C16.989893,1.22823383 20.5838288,0 25.3757432,0 L74.6242568,0 C79.4161712,0 83.010107,1.22823383 85.4060642,3.68470149 C87.8020214,6.14116915 89,9.79477612 89,14.6455224 L89,85.4011194 C89,90.2829602 87.8020214,93.9365672 85.4060642,96.3619403 C83.010107,98.7873134 79.4161712,100 74.6242568,100 L25.3757432,100 C20.5838288,100 16.989893,98.7873134 14.5939358,96.3619403 C12.1979786,93.9365672 11,90.2829602 11,85.4011194 Z" />
</svg>
