<?xml version="1.0" encoding="UTF-8"?>
<svg viewBox="0 0 100 100" version="1.1" xmlns="http://www.w3.org/2000/svg">
    <path d="M67.851658,0.879691243 C68.8646473,1.44910352 69.6942601,2.21517895 70.5153056,3.19342355 C71.6639134,4.5619463 72.8887753,6.50066165 74.1797431,8.93101754 C76.7502047,13.7701284 79.4781811,20.3695528 81.766575,27.426886 C87.6148687,45.4628361 89.7896173,63.1135222 86.3784617,76.4133895 C82.4290275,91.8119689 68.8014666,100 48.5956897,100 C28.9608351,100 15.0770936,91.508739 10.8480228,76.5436521 C7.14255123,63.4313851 9.22606845,46.1429178 15.163524,28.1790082 C17.4576889,21.2379589 20.2167626,14.6598457 22.858279,9.66598336 C24.1377992,7.247014 25.3567353,5.26437479 26.4667303,3.82972577 C27.1718371,2.91838773 27.8646049,2.17801639 28.6341502,1.58415796 C30.3377845,0.269462549 32.3490715,-0.415399783 34.7992471,0.497531005 C38.611537,1.91798305 44.75,20 45,20 L52,20 C52.25,20 58.6337069,3.29930019 60.6824203,1.51454401 C62.9106316,-0.426583566 65.6694253,-0.346965439 67.851658,0.879691243 Z M64.3337463,5.69494689 C59.6250399,9.79698135 56.001834,25.563337 54.1502979,25.563337 L42.1153134,25.563337 C40.2637774,25.563337 37.7779099,7.52823273 32.8576331,5.69494689 C29.4749428,4.43456287 8.67643827,48.4357588 16.1938084,75.0368977 C19.6107949,87.1283245 30.9305895,94.4526439 48.5956897,94.4526439 C66.5290441,94.4526439 77.7624515,87.6504116 80.9975709,75.0368977 C87.9599786,47.8909366 67.5486368,2.89426433 64.3337463,5.69494689 Z M35,48 C39.418278,48 43,44.418278 43,40 C43,35.581722 39.418278,32 35,32 C30.581722,32 27,35.581722 27,40 C27,44.418278 30.581722,48 35,48 Z M63,48 C67.418278,48 71,44.418278 71,40 C71,35.581722 67.418278,32 63,32 C58.581722,32 55,35.581722 55,40 C55,44.418278 58.581722,48 63,48 Z" />
</svg>
