<?xml version="1.0" encoding="UTF-8"?>
<svg viewBox="0 0 100 100" version="1.1" xmlns="http://www.w3.org/2000/svg">
    <path d="M29.918336,100 L71.126484,100 C74.3320551,100 76.9384606,99.0420593 78.9457005,97.1261778 C80.9529405,95.2103086 82.0314753,92.6358483 82.181305,89.4027968 L85.2819891,24.1131615 L90.6745713,24.1131615 C91.6032457,24.1131615 92.3896064,23.7763955 93.0336534,23.1028635 C93.6778845,22.4292703 94,21.6284931 94,20.7005321 C94,19.7725098 93.6705218,18.9792122 93.0115655,18.3206395 C92.3523024,17.6620054 91.5733043,17.3326884 90.6745713,17.3326884 L10.3703408,17.3326884 C9.47158941,17.3326884 8.68517962,17.669485 8.01111145,18.3430783 C7.33703715,19.0166102 7,19.8024282 7,20.7005321 C7,21.6284931 7.33703715,22.4292703 8.01111145,23.1028635 C8.68517962,23.7763955 9.47158941,24.1131615 10.3703408,24.1131615 L15.762923,24.1131615 L18.8636071,89.447702 C19.0134368,92.6807535 20.0844556,95.247725 22.0766635,97.1486166 C24.0689327,99.0495389 26.6828236,100 29.918336,100 Z M30.5474737,93.2196005 C29.259257,93.2196005 28.1807528,92.7855322 27.3119612,91.9173958 C26.4431696,91.0492593 25.9788017,89.9566091 25.9188576,88.6394452 L22.7732613,24.1131615 L78.0469982,24.1131615 L75.0810504,88.6394452 C75.0211676,89.9865459 74.5567997,91.0866788 73.6879467,91.9398438 C72.8191551,92.7930149 71.7256803,93.2196005 70.4075222,93.2196005 L30.5474737,93.2196005 Z M37.1983311,85.5411026 C38.0371813,85.5411026 38.7112618,85.2941329 39.2205724,84.8001935 C39.7298218,84.3062578 39.9844464,83.6701269 39.9844464,82.8918008 L38.5914348,34.8450711 C38.5914348,34.0667634 38.3292941,33.4381091 37.8050127,32.959108 C37.2807314,32.4801683 36.6141363,32.2406985 35.8052275,32.2406985 C34.9663773,32.2406985 34.2848422,32.4876479 33.7606221,32.9815468 C33.2363408,33.4755071 32.9891708,34.111641 33.0191122,34.8899487 L34.3672117,82.8918008 C34.3972145,83.7000637 34.6668405,84.3436803 35.1760898,84.8226507 C35.6854005,85.3016186 36.3594809,85.5411026 37.1983311,85.5411026 Z M50.499954,85.5411026 C51.3687456,85.5411026 52.0727674,85.2941329 52.6120195,84.8001935 C53.1513329,84.3062578 53.4209897,83.6701269 53.4209897,82.8918008 L53.4209897,34.8899487 C53.4209897,34.111641 53.1513329,33.4755071 52.6120195,32.9815468 C52.0727674,32.4876479 51.3687456,32.2406985 50.499954,32.2406985 C49.6611038,32.2406985 48.9720526,32.4876479 48.4328006,32.9815468 C47.8935485,33.4755071 47.6239224,34.111641 47.6239224,34.8899487 L47.6239224,82.8918008 C47.6239224,83.6701269 47.8935485,84.3062578 48.4328006,84.8001935 C48.9720526,85.2941329 49.6611038,85.5411026 50.499954,85.5411026 Z M63.846581,85.5411026 C64.6554284,85.5411026 65.3145075,85.3016186 65.8238181,84.8226507 C66.3331288,84.3436803 66.6027549,83.7000637 66.6326963,82.8918008 L67.9808878,34.8899487 C68.0108292,34.111641 67.7711446,33.4755071 67.2618339,32.9815468 C66.7525232,32.4876479 66.0634721,32.2406985 65.1946805,32.2406985 C64.3858331,32.2406985 63.726754,32.4801683 63.2174433,32.959108 C62.7081327,33.4381091 62.4385066,34.0817226 62.4085652,34.8899487 L61.0603737,82.8918008 C61.0304322,83.6701269 61.2701169,84.3062578 61.7794276,84.8001935 C62.2887382,85.2941329 62.9777894,85.5411026 63.846581,85.5411026 Z M30.7722183,20.5208377 L37.917385,20.5208377 L37.917385,10.911512 C37.917385,9.65420332 38.3292941,8.63639513 39.1531122,7.85808744 C39.9769917,7.07977976 41.0630119,6.69062591 42.4111728,6.69062591 L58.4989109,6.69062591 C59.8470718,6.69062591 60.933092,7.07977976 61.7569715,7.85808744 C62.5807896,8.63639513 62.9926987,9.65420332 62.9926987,10.911512 L62.9926987,20.5208377 L70.1378654,20.5208377 L70.1378654,10.4624601 C70.1378654,7.22943309 69.1417308,4.67741767 67.1494616,2.80641382 C65.1572537,0.935471273 62.4385066,0 58.9932202,0 L41.9168635,0 C38.4715771,0 35.75283,0.935471273 33.7606221,2.80641382 C31.7683529,4.67741767 30.7722183,7.22943309 30.7722183,10.4624601 L30.7722183,20.5208377 Z" />
</svg>
