<?xml version="1.0" encoding="UTF-8"?>
<svg viewBox="0 0 100 100" version="1.1" xmlns="http://www.w3.org/2000/svg">
    <path d="M10.28,76.44 L89.72,76.44 C96.12,76.44 100,72.52 100,66.16 L100,20.28 C100,13.92 96.12,10 89.72,10 L10.28,10 C3.92,10 0,13.92 0,20.28 L0,66.16 C0,72.52 3.92,76.44 10.28,76.44 Z M10.4,70 C7.92,70 6.44,68.52 6.44,66.08 L6.44,20.36 C6.44,17.92 7.92,16.44 10.4,16.44 L89.6,16.44 C92.08,16.44 93.56,17.92 93.56,20.36 L93.56,66.08 C93.56,68.52 92.08,70 89.6,70 L10.4,70 Z M29.88,90 L70.12,90 C71.88,90 73.36,88.56 73.36,86.76 C73.36,84.96 71.88,83.52 70.12,83.52 L29.88,83.52 C28.12,83.52 26.64,84.96 26.64,86.76 C26.64,88.56 28.12,90 29.88,90 Z" />
</svg>
