<?xml version="1.0" encoding="UTF-8"?>
<svg viewBox="0 0 100 100" version="1.1" xmlns="http://www.w3.org/2000/svg">
    <path d="M10.260797,76.442528 L89.7390391,76.442528 C93.156355,76.442528 95.7209807,75.6074232 97.4329162,73.9372136 C99.1443054,72.267004 100,69.6796935 100,66.1752821 L100,20.3095763 C100,16.8051375 99.1443054,14.2107651 97.4329162,12.5264591 C95.7209807,10.842153 93.156355,10 89.7390391,10 L10.260797,10 C6.84337184,10 4.2788827,10.842153 2.56732962,12.5264591 C0.855776539,14.2107651 0,16.8051375 0,20.3095763 L0,66.1752821 C0,69.6796935 0.855776539,72.267004 2.56732962,73.9372136 C4.2788827,75.6074232 6.84337184,76.442528 10.260797,76.442528 Z M29.8987833,90 L70.1011347,90 C71.0010753,90 71.7636622,89.6814768 72.3888956,89.0444303 C73.0143474,88.4073838 73.3270734,87.6556362 73.3270734,86.7891874 C73.3270734,85.8603075 73.0143474,85.0844363 72.3888956,84.4615738 C71.7636622,83.8387167 71.0010753,83.5272882 70.1011347,83.5272882 L29.8987833,83.5272882 C28.9987882,83.5272882 28.236092,83.8387167 27.6106947,84.4615738 C26.9853521,85.0844363 26.6726808,85.8603075 26.6726808,86.7891874 C26.6726808,87.6556362 26.9853521,88.4073838 27.6106947,89.0444303 C28.236092,89.6814768 28.9987882,90 29.8987833,90 Z" />
</svg>
