<?xml version="1.0" encoding="UTF-8"?>
<svg viewBox="0 0 100 100" version="1.1" xmlns="http://www.w3.org/2000/svg">
    <path d="M49.9813919,66.5607477 C56.9780424,66.5607477 63.8258281,78 77.2608857,78 C90.3237812,78 100,66.1121495 100,50.4485981 C100,24.7663551 77.7074805,22 49.9813919,22 C22.2925195,22 0,24.7663551 0,50.4485981 C0,66.1121495 9.67621883,78 22.7391143,78 C36.1741719,78 42.9847413,66.5607477 49.9813919,66.5607477 Z M49.9813919,63.7570093 C41.3100112,63.7570093 35.2065501,75.2336449 22.7391143,75.2336449 C10.9787868,75.2336449 2.75400074,65.1028037 2.75400074,50.4485981 C2.75400074,27.1962617 22.5158169,24.7663551 49.9813919,24.7663551 C77.4841831,24.7663551 97.2459993,27.1962617 97.2459993,50.4485981 C97.2459993,65.1028037 89.0212132,75.2336449 77.2608857,75.2336449 C64.7934499,75.2336449 58.6155564,63.7570093 49.9813919,63.7570093 Z" />
</svg>
