<?xml version="1.0" encoding="UTF-8"?>
<svg viewBox="0 0 100 100" version="1.1" xmlns="http://www.w3.org/2000/svg">
    <path d="M4.44961801,36.1374495 C11.4684492,33.9070003 18.5265711,32.7917756 25.6239837,32.7917756 C28.6382233,32.7917756 31.4257344,32.905374 33.9865173,33.1325709 C36.5473001,33.359834 39.0924132,33.5939176 41.6218566,33.8348217 C44.1513666,34.0756596 46.8161151,34.1960786 49.6161022,34.1960786 C54.0147986,34.1960786 57.49018,32.8903093 60.0422463,30.2787705 C62.5943127,27.6672318 63.8703459,24.4300575 63.8703459,20.5672475 C63.8703459,16.6021957 62.5514289,13.3497248 59.913595,10.8098349 C57.2756946,8.26994496 54.0782093,7 50.3211392,7 C47.5289371,7 45.0050496,7.76899942 42.7494767,9.30699825 C40.4939039,10.8449971 38.8489505,12.766403 37.8146168,15.0712161 C37.4217097,15.8810725 37.3151823,16.7010604 37.4950346,17.5311798 C37.6748869,18.3612992 38.1924198,18.9956426 39.0476331,19.43421 C39.8200066,19.8111939 40.6334341,19.8725788 41.4879156,19.6183646 C42.3424636,19.3641505 43.0315314,18.7499707 43.5551192,17.7758253 C44.0729848,16.528461 44.9407073,15.4774024 46.1582868,14.6226496 C47.3759329,13.7678968 48.7635503,13.3405204 50.3211392,13.3405204 C52.3200748,13.3405204 54.0248126,13.9928753 55.4353524,15.2975852 C56.8458257,16.6023612 57.5510623,18.3589154 57.5510623,20.5672475 C57.5510623,22.7831287 56.8283927,24.551834 55.3830535,25.8733634 C53.9377808,27.1948928 52.0154637,27.8556576 49.6161022,27.8556576 C46.9538488,27.8556576 44.380457,27.742026 41.8959268,27.514763 C39.4113966,27.2874999 36.8560699,27.0534494 34.2299467,26.8126115 C31.6038235,26.5717073 28.7351692,26.4512552 25.6239837,26.4512552 C21.6651702,26.4512552 17.7167367,26.7798993 13.7786831,27.4371876 C9.84069598,28.094542 6.07221454,28.980815 2.47323874,30.0960065 C1.45281143,30.3981631 0.746210769,30.9317877 0.353436746,31.6968802 C-0.0393372763,32.4619727 -0.104744165,33.2631213 0.15721608,34.1003262 C0.419375939,34.9716999 0.927992681,35.611407 1.68306631,36.0194476 C2.43813993,36.4275543 3.36032383,36.4668883 4.44961801,36.1374495 Z M80.6650783,58.8217404 C84.458079,58.8217404 87.810365,58.0862477 90.7219364,56.6152624 C93.6329754,55.1443432 95.9069128,53.1097693 97.5437484,50.5115406 C99.1812495,47.9133781 100,44.9576669 100,41.6444071 C100,38.3388287 99.2331491,35.3955005 97.6994474,32.8144225 C96.1664111,30.2333444 94.1067262,28.2106568 91.5203928,26.7463595 C88.933394,25.281996 86.0411519,24.5498143 82.8436666,24.5498143 C78.4568805,24.5498143 74.7575653,25.902897 71.7457212,28.6090624 C68.7338105,31.3152279 66.9450019,34.6724901 66.3792955,38.680849 C66.2344422,39.6689666 66.4051788,40.5249445 66.8915053,41.2487827 C67.3777653,41.9726208 68.0622088,42.4030764 68.9448358,42.5401494 C69.8549431,42.6772886 70.6632804,42.4731028 71.3698478,41.927592 C72.0764817,41.3820812 72.5365923,40.5330894 72.7501794,39.3806167 C73.1437518,36.8478784 74.2913333,34.7927766 76.1929238,33.2153113 C78.0945144,31.6379123 80.3114286,30.8492128 82.8436666,30.8492128 C85.8648261,30.8492128 88.4263741,31.8487862 90.5283107,33.847933 C92.6295818,35.8470799 93.6802174,38.4459046 93.6802174,41.6444071 C93.6802174,44.8644308 92.4998327,47.4824258 90.1390632,49.4983923 C87.7781606,51.5143587 84.6201656,52.5223419 80.6650783,52.5223419 C76.9333591,52.5223419 73.1257533,52.0994684 69.2422609,51.2537213 C65.3587019,50.4079743 61.3421999,49.428101 57.192755,48.3141014 C53.0433765,47.200168 48.7316121,46.2203278 44.2574615,45.3745807 C39.7833109,44.5287675 35.1104778,44.1058608 30.238962,44.1058608 C25.2495409,44.1058608 20.4506515,44.4963865 15.8422937,45.2774377 C11.2340024,46.0584227 6.77765079,47.2125509 2.47323874,48.7398223 C1.49426463,49.0691286 0.798010629,49.6181159 0.38447674,50.3867843 C-0.0289906119,51.1553864 -0.104744165,51.9582567 0.15721608,52.7953953 C0.419375939,53.6324677 0.927992681,54.2653543 1.68306631,54.6940551 C2.43813993,55.1227559 3.35676405,55.1346753 4.43893865,54.7298133 C8.42583119,53.2634632 12.5235096,52.1761167 16.7319738,51.4677738 C20.940438,50.7594308 25.4427674,50.4052593 30.238962,50.4052593 C35.1238519,50.4052593 39.7292155,50.8367413 44.0550528,51.6997052 C48.3808901,52.562603 52.5547545,53.5407215 56.576646,54.6340608 C60.5986041,55.7274001 64.5927826,56.698665 68.5591814,57.5478554 C72.5255802,58.3971121 76.5608792,58.8217404 80.6650783,58.8217404 Z M49.6993412,93 C53.4353854,93 56.5861277,91.7542017 59.1515682,89.2626052 C61.7170752,86.7710286 62.9998287,83.5357348 62.9998287,79.5567241 C62.9998287,73.8308403 60.1433176,69.4350647 54.4302954,66.3693972 C48.7173396,63.3037297 40.4489574,61.7708959 29.6251487,61.7708959 C25.111408,61.7708959 20.4924706,62.1769498 15.7683367,62.9890577 C11.0441362,63.8012318 6.61593009,64.9192045 2.48371849,66.3429759 C1.49775788,66.6724146 0.798010629,67.2231567 0.38447674,67.9952022 C-0.0289906119,68.7673139 -0.104744165,69.5684295 0.15721608,70.3985489 C0.419375939,71.2356014 0.927992681,71.8599259 1.68306631,72.2715224 C2.43813993,72.6831254 3.35676405,72.7105765 4.43893865,72.3538754 C8.31617651,70.9708618 12.3893689,69.9094234 16.6585158,69.1695603 C20.9277292,68.4297634 25.2499402,68.0598649 29.6251487,68.0598649 C38.4700497,68.0598649 45.1904911,69.0935444 49.7864728,71.1609032 C54.3824545,73.2282754 56.6804454,76.0268823 56.6804454,79.5567241 C56.6804454,81.7859218 55.9941721,83.5355991 54.6216255,84.805756 C53.2490789,86.0759128 51.6083175,86.7109912 49.6993412,86.7109912 C47.7768578,86.7109912 46.2379328,86.1124358 45.0825664,84.915325 C43.9271999,83.7182075 43.1801442,82.0976861 42.841399,80.0537607 C42.7036653,79.175336 42.3210383,78.4170547 41.6935181,77.778917 C41.0659979,77.1407859 40.2248573,76.8559952 39.1700964,76.9245449 C38.046402,76.9930881 37.2603882,77.4270168 36.8120549,78.2263312 C36.3637217,79.0256523 36.2119151,79.9023192 36.3566354,80.8563321 C36.8057006,84.2386734 38.2061266,87.1082017 40.5579134,89.464917 C42.9097003,91.821639 45.9568429,93 49.6993412,93 Z" />
</svg>
