<?xml version="1.0" encoding="UTF-8"?>
<svg viewBox="0 0 100 100" version="1.1" xmlns="http://www.w3.org/2000/svg">
    <path d="M69.8058958,0 C70.9611037,0 71.9546729,0.399428927 72.7866036,1.19828678 C73.6117156,1.99051722 74.0160193,2.97248915 74,4.14420256 C73.9830097,5.31591598 73.5787061,6.31770641 72.7866036,7.14957386 L42.8891954,36.98745 L72.7866036,66.8746684 C73.5787061,67.6735326 73.9747573,68.6505952 73.9747573,69.8058561 C73.9747573,70.9611163 73.5787061,71.9546983 72.7866036,72.7866021 C71.9877462,73.6117274 71.0024294,74.0160313 69.830653,74 C68.6588766,73.9829898 67.6768734,73.5786859 66.8846435,72.7866021 L36.9874264,42.8892227 L7.14966491,72.7866021 C6.35080756,73.5786859 5.36549069,73.9747279 4.1937143,73.9747279 C3.02193791,73.9747279 2.02346181,73.5786859 1.19828602,72.7866021 C0.399428673,71.9876231 0,71.0022725 0,69.8305502 C0,68.6588266 0.399428673,67.6735326 1.19828602,66.8746684 L31.0855619,36.98745 L1.19828602,7.14957386 C0.399428673,6.31770641 0,5.32413651 0,4.16886418 C0,3.01359184 0.399428673,2.02339937 1.19828602,1.19828678 C1.99051596,0.399428927 2.98073966,0 4.16895711,0 C5.3572383,0 6.35080756,0.399428927 7.14966491,1.19828678 L36.9874264,31.0854861 L66.8846435,1.19828678 C67.6768734,0.399428927 68.6506242,0 69.8058958,0 Z" transform="translate(13.0 13.0)" />
</svg>
