<?xml version="1.0" encoding="UTF-8"?>
<svg viewBox="0 0 100 100" version="1.1" xmlns="http://www.w3.org/2000/svg">
    <path d="M49.9741662,100 C77.3070515,100 100,77.3470595 100,50.0000502 C100,22.6529405 77.255143,0 49.9221573,0 C22.6306382,0 0,22.6529405 0,50.0000502 C0,77.3470595 22.6825467,100 49.9741662,100 Z M49.9741662,91.6948594 C26.8955687,91.6948594 8.39415597,73.1425087 8.39415597,50.0000502 C8.39415597,26.8574913 26.8435598,8.30513055 49.9221573,8.30513055 C73.0527637,8.30513055 91.6474512,26.8574913 91.6474512,50.0000502 C91.6474512,73.1425087 73.1046722,91.6948594 49.9741662,91.6948594 Z M33.2262967,70.7223429 C34.3503115,70.7223429 35.3280386,70.3371978 36.025741,69.5457116 L49.9221573,55.5795309 L63.8705826,69.5457116 C64.6202939,70.2958103 65.5566549,70.7223429 66.711393,70.7223429 C68.8756861,70.7223429 70.6337475,68.9738204 70.6337475,66.7776696 C70.6337475,65.6637223 70.1968928,64.7789133 69.4683666,63.987427 L55.5401225,50.0626338 L69.5203755,36.033769 C70.3008102,35.2422828 70.6857564,34.3574737 70.6857564,33.30611 C70.6857564,31.099311 68.9275946,29.4029247 66.7634019,29.4029247 C65.7124808,29.4029247 64.8801376,29.736034 64.0265089,30.5794555 L49.9221573,44.5871243 L35.9737321,30.6314913 C35.2241212,29.8294573 34.3503115,29.45486 33.2262967,29.45486 C31.0726464,29.45486 29.3144846,31.1513468 29.3144846,33.3474975 C29.3144846,34.4095095 29.7407969,35.3462539 30.4798654,36.0857043 L44.3975673,50.0626338 L30.4798654,64.0394628 C29.7407969,64.7789133 29.3144846,65.7156576 29.3144846,66.7776696 C29.3144846,68.9738204 31.0726464,70.7223429 33.2262967,70.7223429 Z" />
</svg>
