<?xml version="1.0" encoding="UTF-8"?>
<svg viewBox="0 0 600 600" version="1.1" xmlns="http://www.w3.org/2000/svg">
    <g stroke="none" stroke-width="1" fill="none" fill-rule="evenodd" fill-opacity="0.35">
        <path d="M0,0 L600,0 L600,600 L0,600 Z M147.5,599.503226 L0,600 L0,523 L147.5,599.503226 Z M248.577444,126.839667 L276.285714,174.452494 L134,258.150831 L160.210526,300 L313.479699,213.795724 L403.593985,349.868171 L265.052632,444.342043 L212.881203,358.638955 L160.210526,389.963183 L231.353383,511 L466,355.381235 L306.240602,89 L248.577444,126.839667 Z M497,600 L600,525 L600,600 L497,600 Z M82.6366559,0 L110.977492,32.25 L40,100 L67.8392283,133 L196,0 L82.6366559,0 Z M417,0 L555,168 L600,117.973333 L600,72.6755556 L553.25,106.773333 L462.5,0 L417,0 Z" fill="#FFFFFF" />
    </g>
</svg>
