<?xml version="1.0" encoding="UTF-8"?>
<svg viewBox="0 0 128 128" xmlns="http://www.w3.org/2000/svg">
    <path d="M100 0 C115.463973 -2.84068575e-15 128 12.536027 128 28 L128 100 C128 115.463973 115.463973 128 100 128 L28 128 C12.536027 128 1.8937905e-15 115.463973 0 100 L0 28 C-1.8937905e-15 12.536027 12.536027 2.84068575e-15 28 0 L100 0 Z" fill="#5465FA" />
    <path d="M56.5153694 0.000603047758 L56.5836267 0.0044824671 C62.8722801 1.07304164 68.886894 2.93873343 74.4957164 5.47103988 C74.5443023 5.49165055 74.5858234 5.5260423 74.6101164 5.57409319 C84.547795 19.9569207 89.4559639 36.1812925 87.621102 54.8590649 C87.6141611 54.9380928 87.5725161 55.0102911 87.5065781 55.058342 C79.9796036 60.4973616 72.6884939 63.7993361 65.4980265 65.9879689 C65.3835025 66.0223606 65.2586913 65.9811393 65.1892828 65.8849155 C63.5278181 63.6103033 62.018928 61.2120272 60.6974407 58.6935018 C60.6210914 58.5458124 60.6904998 58.367146 60.8465449 58.3087288 C63.2433674 57.4188116 65.5223194 56.3536428 67.7145109 55.0927337 C67.8879081 54.9930952 67.8983194 54.7490601 67.7388039 54.6322257 C67.2740152 54.2920888 66.8126969 53.934756 66.3720772 53.5774232 C66.288911 53.5121764 66.1778574 53.4983954 66.084156 53.5430315 C51.8523254 60.0129501 36.2607089 60.0129501 21.8589515 53.5430315 C21.76525 53.5018101 21.6541965 53.5155912 21.5745008 53.580838 C21.134005 53.9381708 20.6725627 54.2920888 20.2112445 54.6322257 C20.051729 54.7490601 20.0656107 54.9930952 20.2390078 55.0927337 C22.4311993 56.3296174 24.7101514 57.4188116 27.1035034 58.3121436 C27.2595485 58.3705608 27.3324274 58.5458124 27.2560781 58.6935018 C25.9623542 61.2155639 24.4534641 63.6138401 22.7607655 65.8883303 C22.6878866 65.9811393 22.5665458 66.0223606 22.4520219 65.9879689 C15.2962587 63.7993361 8.00509939 60.4973616 0.478126162 55.058342 C0.415689544 55.0102911 0.370597601 54.934678 0.363660475 54.8556501 C-1.16948416 38.6999398 1.95576883 22.3414158 13.3642249 5.57067841 C13.3918643 5.5260423 13.4335094 5.49165055 13.4820953 5.47103988 C19.0943881 2.93531864 25.1090021 1.06962686 31.394185 0.0044824671 C31.508709 -0.0127012152 31.623109 0.0388364165 31.6821061 0.138474944 C32.4591089 1.49220641 33.3470413 3.22740465 33.9471765 4.64636948 C40.5723369 3.64998421 47.3014861 3.64998421 54.0653394 4.64636948 C54.6653507 3.25825967 55.5221732 1.49220641 56.2957056 0.138474944 C56.3547027 0.0353972409 56.4691027 -0.0161403908 56.5836267 0.0044824671 Z M29.4067485 27.5640844 C25.0015429 27.5640844 21.4981515 31.4809639 21.4981515 36.2912974 C21.4981515 41.1016308 25.0708274 45.0185103 29.4067485 45.0185103 C33.81183 45.0185103 37.3152215 41.1016308 37.3152215 36.2912974 C37.38463 31.5153557 33.8465343 27.5640844 29.4067485 27.5640844 Z M58.6474125 27.5640844 C54.242207 27.5640844 50.7389395 31.4809639 50.7389395 36.2912974 C50.7389395 41.1016308 54.3116155 45.0185103 58.6474125 45.0185103 C63.0873223 45.0185103 66.5560095 41.1016308 66.5560095 36.2912974 C66.625294 31.5153557 63.0873223 27.5640844 58.6474125 27.5640844 Z" transform="translate(20.0 31.0)" fill="#FAFAFA" />
</svg>
