<?xml version="1.0" encoding="UTF-8"?>
<svg viewBox="0 0 128 128" xmlns="http://www.w3.org/2000/svg">
    <defs>
        <clipPath id="goo-background">
            <path d="M100 0 C115.463973 -2.84068575e-15 128 12.536027 128 28 L128 100 C128 115.463973 115.463973 128 100 128 L28 128 C12.536027 128 1.8937905e-15 115.463973 0 100 L0 28 C-1.8937905e-15 12.536027 12.536027 2.84068575e-15 28 0 L100 0 Z" />
        </clipPath>
    </defs>

    <g clip-path="url(#goo-background)">
        <path d="M100 0 C115.463973 -2.84068575e-15 128 12.536027 128 28 L128 100 C128 115.463973 115.463973 128 100 128 L28 128 C12.536027 128 1.8937905e-15 115.463973 0 100 L0 28 C-1.8937905e-15 12.536027 12.536027 2.84068575e-15 28 0 L100 0 Z" fill="#FAFAFA" stroke="#000" stroke-width="2" />
        <path d="M26.805 0 C30.471 0 34.182 2.073 34.182 6.036 C34.182 7.981 32.662 10.063 30.399 10.063 C28.81 10.063 27.468 8.749 27.468 7.193 C27.468 6.299 27.956 5.667 28.536 5.166 C28.074 4.738 27.502 4.461 26.745 4.461 C25.897 4.461 25.218 4.723 24.727 5.242 C24.175 5.826 23.879 6.712 23.879 7.761 C23.879 7.797 23.881 7.834 23.882 7.87 C26.81 9.729 28.639 13.064 28.639 16.695 C28.639 23.777 22.57 27.482 16.574 27.482 C14.318 27.482 12.029 26.947 9.375 25.798 C8.927 25.606 8.285 25.412 7.925 25.412 C6.919 25.412 6.167 26.533 6.167 27.536 C6.167 29.85 9.32 30.147 12.067 30.147 L14.32 30.147 C17.659 30.147 21.208 30.243 24.648 31.39 C29.321 32.948 32.111 36.311 32.111 40.385 C32.111 47.943 23.38 50.624 15.903 50.624 C12.173 50.624 0 49.908 0 40.691 C0 37.486 1.969 34.851 5.102 33.491 C2.953 32.609 0.609 31.019 0.609 27.596 C0.609 24.65 2.452 22.342 5.488 21.232 C4.327 19.579 4.02 17.597 4.02 16.147 C4.02 9.456 10.269 5.846 16.148 5.846 C17.164 5.846 18.251 5.93 19.355 6.182 C19.424 4.715 19.938 3.379 20.951 2.318 C22.337 0.866 24.525 0 26.805 0 Z M16.4075874 35.4616451 L16.0245132 35.4616001 C14.4777504 35.471624 11.082 35.61716 8.994 36.629 C8.107 37.057 6.046 38.304 6.046 40.629 C6.046 42.695 7.925 44.136 9.675 44.792 C11.514 45.445 14.13 45.677 15.965 45.677 C17.652 45.677 26.068 45.427 26.067 40.508 C26.067 36.117 19.89 35.461 16.208 35.461 Z M49.085 5.846 C54.228 5.846 58 7.42 60.614 10.657 C63.123 13.735 64.562 18.2 64.562 22.907 C64.562 33.419 58.463 40.211 49.024 40.211 C39.955 40.211 34.095 33.491 34.095 23.09 C34.095 12.615 39.979 5.846 49.085 5.846 Z M83.179 5.845 C88.324 5.845 92.095 7.419 94.71 10.657 C97.217 13.737 98.656 18.201 98.657 22.906 C98.657 33.418 92.558 40.21 83.119 40.21 C74.051 40.21 68.19 33.49 68.19 23.089 C68.19 12.614 74.074 5.845 83.179 5.845 Z M83.546 10.977 C80.086 10.977 77.832 12.18 76.237 14.874 C75.001 16.968 74.234 20.045 74.234 22.906 C74.234 25.762 74.879 35.079 83.179 35.079 C91.693 35.079 92.612 26.396 92.612 22.662 C92.612 19.451 91.822 16.318 90.497 14.281 C88.743 11.55 85.749 10.977 83.546 10.977 Z M49.45 10.977 C45.991 10.977 43.737 12.18 42.142 14.874 C40.908 16.968 40.14 20.046 40.14 22.906 C40.14 25.762 40.786 35.079 49.085 35.079 C57.598 35.079 58.518 26.396 58.5170008 22.662 C58.5170008 19.451 57.727 16.318 56.402 14.281 C54.648 11.55 51.653 10.977 49.45 10.977 Z M81.262 25.162 C83.434 25.162 85.202 26.93 85.202 29.103 C85.202 31.275 83.434 33.043 81.262 33.043 C79.09 33.043 77.323 31.275 77.323 29.103 C77.323 26.93 79.09 25.162 81.262 25.162 Z M47.766 25.162 C49.938 25.162 51.705 26.93 51.705 29.103 C51.705 31.275 49.938 33.043 47.766 33.043 C45.593 33.043 43.826 31.275 43.826 29.103 C43.826 26.93 45.593 25.162 47.766 25.162 Z M16.33 10.794 C12.689 10.794 9.943 13.304 9.943 16.633 C9.943 20.624 13.121 22.411 16.27 22.411 C19.511 22.411 22.833 20.605 22.96 16.573 C22.832 12.82 19.452 10.794 16.33 10.794 Z" transform="translate(14.515 38.501)" fill="#C33" />
    </g>
</svg>
