<?xml version="1.0" encoding="UTF-8"?>
<svg viewBox="0 0 128 128" xmlns="http://www.w3.org/2000/svg">
    <path d="M100,0 C115.463973,-2.84068575e-15 128,12.536027 128,28 L128,100 C128,115.463973 115.463973,128 100,128 L28,128 C12.536027,128 1.8937905e-15,115.463973 0,100 L0,28 C-1.8937905e-15,12.536027 12.536027,2.84068575e-15 28,0 L100,0 Z" fill="#FFE811" />
    <path d="M52,0 C80.719,0 104,18.3565 104,41 C104,63.644 80.719,82 52,82 C48.848,82 45.7615,81.7795 42.764,81.355 C41.4304444,82.2947778 37.265284,85.2222099 32.9052922,88.2049177 L32.177275,88.7022161 C26.9533704,92.2651071 21.6604938,95.7536975 20.792,95.875 C20.792,95.875 20.121,96.136 19.5505,95.8 C18.98,95.464 19.0835,94.583 19.0835,94.583 C19.2555,93.4105 23.5775,78.4855 24.374,75.7385 C9.733,68.485 0,55.6395 0,41 C0,18.3565 23.281,0 52,0 Z M30.931,28.75 L15.569,28.75 C13.946,28.75 12.625,30.068 12.625,31.6875 C12.625,33.307 13.9455,34.625 15.569,34.625 L20.25,34.625 L20.25,52.4475 C20.25,54.0275 21.5955,55.3125 23.25,55.3125 C24.9045,55.3125 26.25,54.0275 26.25,52.4475 L26.25,34.625 L30.931,34.625 C32.554,34.625 33.875,33.307 33.875,31.6875 C33.875,30.068 32.5545,28.75 30.931,28.75 Z M40.9975,28.7505 C39.0435,28.795 37.508,30.275 37.0025,31.7115 L29.8265,50.5995 C28.9155,53.429 29.7105,54.478 30.5375,54.8595 C31.1360204,55.1329655 31.7864653,55.2741738 32.4445,55.2735024 C33.6955,55.2735024 34.652,54.766 34.9395,53.9505 L36.426,50.059 L45.574,50.0595 L47.0595,53.9485 C47.348,54.7655 48.305,55.2735024 49.556,55.2735024 C50.2139629,55.2740022 50.864337,55.1329798 51.463,54.86 C52.29,54.4795 53.085,53.43 52.172,50.594 L44.999,31.7145 C44.4925,30.275 42.957,28.7945 40.9975,28.7505 Z M73.667,28.75 C72.0125,28.75 70.667,30.0955 70.667,31.75 L70.667,52.2735 C70.667,53.928 72.0125,55.2735 73.667,55.2735 C75.3236879,55.2712959 76.6660719,53.9286882 76.668,52.272 L76.668,45.7265 L77.709,44.6855 L84.7445,54.0075 C85.3094489,54.7620396 86.1984089,55.2043867 87.141,55.2 C87.7926378,55.2015923 88.4267133,54.9888283 88.9455,54.5945 C89.5823017,54.1170463 90.001481,53.4045495 90.1095,52.616 C90.2225585,51.8279415 90.0150953,51.0274434 89.5335,50.3935 L82.149,40.6105 L88.9855,33.775 C89.4555,33.3045 89.691,32.656 89.6475,31.9485 C89.6045,31.247 89.291,30.5715 88.7655,30.0465 C88.202,29.4835 87.45,29.1605 86.701,29.1605 C86.059,29.1605 85.4675,29.3975 85.037,29.828 L76.667,38.198 L76.667,31.75 C76.667,30.0955 75.3215,28.75 73.667,28.75 Z M57.1875,28.75 C55.499,28.75 54.125,30.0955 54.125,31.75 L54.125,52.125 C54.125,53.641 55.4145,54.875 57,54.875 L66.625,54.875 C68.2105,54.875 69.5,53.641 69.5,52.125 C69.5,50.609 68.2105,49.375 66.625,49.375 L60.25,49.375 L60.25,31.75 C60.25,30.0955 58.876,28.75 57.1875,28.75 Z M41,36.233 L43.9965,44.7455 L38.0035,44.7455 L41,36.233 Z" transform="translate(12 18)" />
</svg>
