<?xml version="1.0" encoding="UTF-8"?>
<svg viewBox="0 0 128 128" xmlns="http://www.w3.org/2000/svg">
    <path d="M100,0 C115.463973,-2.84068575e-15 128,12.536027 128,28 L128,100 C128,115.463973 115.463973,128 100,128 L28,128 C12.536027,128 1.8937905e-15,115.463973 0,100 L0,28 C-1.8937905e-15,12.536027 12.536027,2.84068575e-15 28,0 L100,0 Z" fill="#007CCD" />
    <path d="M69.6768229,28.7928421 C82.6861979,28.7928421 92,36.7371401 92,53.1675289 L92,92 L73.096875,92 L73.096875,59.8037417 C73.096875,50.9764113 69.7427084,46.0434033 62.7558593,46.0434033 C55.1550782,46.0434033 51.1839843,51.1769644 51.1839843,59.8037417 L51.1839843,92 L32.9666666,92 L32.9666666,30.6666666 L51.1839843,30.6666666 L51.1839843,38.9282578 C51.1839843,38.9282578 56.6614584,28.7928421 69.6768229,28.7928421 Z M20.8227864,30.6666666 L20.8227864,92 L1.82682295,92 L1.82682295,30.6666666 L20.8227864,30.6666666 Z M11.2334636,0 C17.4386718,0 22.4639323,5.06770783 22.4639323,11.3177811 C22.4639323,17.5678542 17.4386718,22.635562 11.2334636,22.635562 C5.02825522,22.635562 0,17.5678542 0,11.3177811 C0,5.06770783 5.02825522,0 11.2334636,0 Z" transform="translate(18 18)" fill="#FAFAFA" />
</svg>
