<?xml version="1.0" encoding="UTF-8"?>
<svg viewBox="0 0 128 128" xmlns="http://www.w3.org/2000/svg">
    <path d="M100 0 C115.463973 -2.84068575e-15 128 12.536027 128 28 L128 100 C128 115.463973 115.463973 128 100 128 L28 128 C12.536027 128 1.8937905e-15 115.463973 0 100 L0 28 C-1.8937905e-15 12.536027 12.536027 2.84068575e-15 28 0 L100 0 Z" fill="#1BC7FB" />
    <path d="M54.9202899 37.9268717 L83.6557971 66.1056297 C82.3272947 67.3685432 80.0024155 68 76.6811594 68 L12.5144928 68 C8.71497585 68 6.05797101 67.3553879 4.54347826 66.0661637 L33.1992754 37.9268717 L35.8695652 40.5710969 C38.52657 43.096924 41.263285 44.3598375 44.0797101 44.3598375 C46.8695652 44.3598375 49.6062802 43.096924 52.2898551 40.5710969 L54.9202899 37.9268717 Z M0.916666667 6.4724318 L29.173913 34.0591991 L0.996376812 61.6459663 C0.332125604 60.5146063 0 58.5544593 0 55.7655252 L0 12.1950087 C0 9.51131747 0.305555556 7.60379184 0.916666667 6.4724318 Z M87.1231884 6.59082995 C87.7077295 7.66956858 88 9.53762817 88 12.1950087 L88 55.7655252 C88 58.5018379 87.6811594 60.4488296 87.0434783 61.6065003 L58.9456522 34.0591991 Z M75.4855072 0 C79.4444444 0 82.1678744 0.697233507 83.6557971 2.09170052 L48.9818841 36.0719675 C48.1050725 36.9402205 47.2747585 37.5716773 46.490942 37.9663378 C45.7071256 38.3609983 44.9033816 38.5583285 44.0797101 38.5583285 C43.2560386 38.5583285 42.4456522 38.3609983 41.6485507 37.9663378 C40.8514493 37.5716773 40.0277778 36.9402205 39.1775362 36.0719675 L4.30434783 1.93383633 C5.60628019 0.644612111 7.94444444 0 11.3188406 0 Z" transform="translate(20.0 30.0)" fill="#FAFAFA"/>
</svg>
