<?xml version="1.0" encoding="UTF-8"?>
<svg viewBox="0 0 128 128" xmlns="http://www.w3.org/2000/svg">
    <defs>
        <clipPath id="mix-background">
            <path d="M100 0 C115.463973 -2.84068575e-15 128 12.536027 128 28 L128 100 C128 115.463973 115.463973 128 100 128 L28 128 C12.536027 128 1.8937905e-15 115.463973 0 100 L0 28 C-1.8937905e-15 12.536027 12.536027 2.84068575e-15 28 0 L100 0 Z" />
        </clipPath>
    </defs>

    <g clip-path="url(#mix-background)">
        <polygon points="0 0 128 0 128 128 0 128 0 0" />
        <path d="M25.75 0 L25.75 68.4840862 C25.75 75.3969456 19.9824187 81 12.875 81 C5.7675813 81 0 75.3969456 0 68.4840862 L0 23.6804415 C13.7647358 23.6804415 25.0068089 13.2020021 25.75 0 Z" transform="translate(0 26)" fill="#DE201C" />
        <path d="M128 0 C99.9737877 0 77.2634338 22.3649507 77.2529489 49.9557503 L77.2529489 83.3296824 C77.2529489 90.3325301 71.4862385 96 64.3774574 96 C57.2686763 96 51.5019659 90.3325301 51.5019659 83.3296824 L51.5019659 33.72092 C51.5019659 26.7180723 45.7352556 21.0400876 38.6264744 21.0400876 C31.853211 21.0400876 26.2961992 26.2028478 25.7929227 32.7535597 C25.7719528 33.0690033 25.750983 33.3949617 25.750983 33.72092 L25.750983 45.6131435 C25.017038 58.977437 13.7667104 69.5973713 0 69.5973713 L0 0 Z" fill="#FF8126" />
        <path d="M49.9885442 0 C50.2457928 0 50.4927514 0 50.75 0.0104516611 L50.75 71.4162001 C50.75 78.3665547 45.0699513 84 38.0625 84 C31.0550487 84 25.375 78.3665547 25.375 71.4162001 L25.375 65.0093318 C25.375 58.0589772 19.6846614 52.4255319 12.6875 52.4255319 C5.68004866 52.4255319 0 58.0589772 0 65.0093318 L0 49.5722284 C0 22.1993281 22.3806265 0 49.9885442 0 Z" transform="translate(77.25)" fill="#FFD51F" />
    </g>
</svg>
