<?xml version="1.0" encoding="UTF-8"?>
<svg viewBox="0 0 128 128" xmlns="http://www.w3.org/2000/svg">
    <path d="M100 0 C115.463973 -2.84068575e-15 128 12.536027 128 28 L128 100 C128 115.463973 115.463973 128 100 128 L28 128 C12.536027 128 1.8937905e-15 115.463973 0 100 L0 28 C-1.8937905e-15 12.536027 12.536027 2.84068575e-15 28 0 L100 0 Z" fill="#F7931E" />
    <path d="M41.776077 1.37304004 C44.4863826 -0.784492731 48.4442629 -0.352263056 50.6170091 2.33840776 C52.7900863 5.02940727 52.3548088 8.95990344 49.6451653 11.1177649 C49.3515599 11.3514647 43.802517 15.7059733 34.542527 17.5791877 L48.5200641 31.3352669 C50.9781404 33.7721877 50.9811195 37.7263496 48.5270153 40.1672147 C46.072911 42.6077511 42.0915291 42.6116954 39.6327907 40.1741172 L26.0627263 27.0520844 L13.7375885 40.0896434 C12.5035852 41.3606945 10.8574751 42 9.20970993 42 C7.63807695 42 6.06511993 41.4192016 4.844688 40.2507024 C2.34424243 37.8565116 2.27175135 33.903007 4.68282436 31.4200694 L17.9500151 17.6518286 C8.43051363 15.8226589 2.65241225 11.3547517 2.35483473 11.1177649 C-0.354808822 8.95990344 -0.790086281 5.02940727 1.38299092 2.33840776 C3.5557371 -0.352263056 7.51361739 -0.784492731 10.223923 1.37304004 C10.2811876 1.41905688 16.3247586 5.92739318 26.0623953 5.93396702 C35.3438958 5.92770133 41.1555653 1.83182184 41.7295987 1.40800259 L41.7691077 1.37843118 Z" transform="translate(38 66)" fill="#FAFAFA" />
    <path d="M23 0 C35.7026961 0 46 10.297412 46 22.9995063 C46 35.7019298 35.7026961 46 23 46 C10.2973039 46 0 35.7019298 0 22.9995063 C0 10.297412 10.2973039 0 23 0 Z M23 13.4923547 C17.7491485 13.4923547 13.4923152 17.7490967 13.4923152 22.9998354 C13.4923152 28.2505742 17.7491485 32.5076453 23 32.5076453 C28.2508515 32.5076453 32.5076848 28.2505742 32.5076848 22.9998354 C32.5076848 17.7490967 28.2508515 13.4923547 23 13.4923547 Z" transform="translate(41 20)" fill="#FAFAFA" />
</svg>
