<?xml version="1.0" encoding="UTF-8"?>
<svg xmlns="http://www.w3.org/2000/svg" viewBox="0 0 128 128">
    <defs>
        <clipPath id="pinterest-background">
            <path d="M100 0 C115.463973 -2.84068575e-15 128 12.536027 128 28 L128 100 C128 115.463973 115.463973 128 100 128 L28 128 C12.536027 128 1.8937905e-15 115.463973 0 100 L0 28 C-1.8937905e-15 12.536027 12.536027 2.84068575e-15 28 0 L100 0 Z" />
        </clipPath>
    </defs>

    <g clip-path="url(#pinterest-background)">
        <path d="M100 0 C115.463973 -2.84068575e-15 128 12.536027 128 28 L128 100 C128 115.463973 115.463973 128 100 128 L28 128 C12.536027 128 1.8937905e-15 115.463973 0 100 L0 28 C-1.8937905e-15 12.536027 12.536027 2.84068575e-15 28 0 L100 0 Z" fill="#FAFAFA" stroke="#000" stroke-width="2" />
        <path d="M53.9997787 0 C83.8233334 0 108 24.1767459 108 53.9999557 C108 83.8231656 83.8233334 107.999911 53.9997787 107.999911 C24.1766666 107.999911 0 83.8231656 0 53.9999557 C0 31.122835 14.233416 11.566044 34.3208804 3.69791159 C33.8490153 7.97038497 33.4223006 14.5411055 34.5081214 19.2053256 C34.9257194 20.9987239 36.1345171 26.1262166 37.3855354 31.4255327 L37.7613585 33.01732 C39.3263243 39.6448925 40.840232 46.0468342 40.840232 46.0468342 C40.840232 46.0468342 39.2250015 49.2817322 39.2250015 54.0641402 C39.2250015 61.5728396 43.5771379 67.1785796 48.9960612 67.1785796 C53.6031641 67.1785796 55.8283665 63.7196999 55.8283665 59.5720543 C55.8283665 56.3015358 54.3585597 51.8880756 52.9585533 47.3170318 L52.6108969 46.1715581 C52.1516698 44.6414031 51.714454 43.1028624 51.3562719 41.592431 C50.0840953 36.2177551 54.0515687 31.8346188 59.3527471 31.8346188 C68.9502879 31.8346188 76.3279382 41.95452 76.3279382 56.5624659 C76.3279382 69.4918769 67.0375966 78.5317082 53.7718138 78.5317082 C38.406984 78.5317082 29.3884296 67.0072734 29.3884296 55.0972891 C29.3884296 50.4560869 31.1762936 45.4793548 33.4072504 42.7738681 C33.8485727 42.239145 33.9131996 41.7708196 33.7817325 41.2250301 C33.6299199 40.5933499 33.409372 39.6924962 33.1827431 38.7703656 L33.0465373 38.2165172 C32.7067046 36.835429 32.3813841 35.5180212 32.2820337 35.1009451 C32.0465438 34.112504 31.4994282 33.9026871 30.4760211 34.3789803 C23.7318032 37.5182655 19.5151177 47.3787729 19.5151177 55.2986956 C19.5151177 72.332815 31.8916163 87.9765657 55.1949341 87.9765657 C73.9274464 87.9765657 88.4848823 74.6279636 88.4848823 56.7886609 C88.4848823 38.1782591 76.7506691 23.2006991 60.463799 23.2006991 C54.9917577 23.2006991 49.8477201 26.0434077 48.0868578 29.4013629 C48.0868578 29.4013629 47.285968 26.3517655 46.449732 23.1632272 L46.2066546 22.2362568 C45.586465 19.8708396 44.9876 17.5839937 44.7227166 16.5644661 C43.503658 11.8741296 40.2125541 5.99483081 38.0112548 2.40802478 C43.0636637 0.843693977 48.4330102 0 53.9997787 0 Z" transform="matrix(1 0 0 -1 10 118)" fill="#E60022" />
    </g>
</svg>
