<svg viewBox="0 0 128 128" xmlns="http://www.w3.org/2000/svg">
    <defs>
        <clipPath id="reddit-background">
            <path d="M100 0 C115.463973 -2.84068575e-15 128 12.536027 128 28 L128 100 C128 115.463973 115.463973 128 100 128 L28 128 C12.536027 128 1.8937905e-15 115.463973 0 100 L0 28 C-1.8937905e-15 12.536027 12.536027 2.84068575e-15 28 0 L100 0 Z" />
        </clipPath>
    </defs>

    <g clip-path="url(#reddit-background)">
        <path d="M100 0 C115.463973 -2.84068575e-15 128 12.536027 128 28 L128 100 C128 115.463973 115.463973 128 100 128 L28 128 C12.536027 128 1.8937905e-15 115.463973 0 100 L0 28 C-1.8937905e-15 12.536027 12.536027 2.84068575e-15 28 0 L100 0 Z" fill="#FAFAFA" stroke="#000" stroke-width="2" />
        <path d="M56 0 C86.927946 -5.68137151e-15 112 25.072054 112 56 C112 86.927946 86.927946 112 56 112 C25.072054 112 -2.46341284e-14 86.927946 0 56 C-3.78758101e-15 25.072054 25.072054 5.68137151e-15 56 0 Z" transform="translate(8 8)" fill="#F40" />
        <path d="M65.0460405 0 C68.5082873 0 71.3075506 2.82936918 71.3075506 6.32885212 C71.3075506 9.82833506 68.5082873 12.6577042 65.0460405 12.6577042 C61.6574586 12.6577042 58.93186 9.97724922 58.7845304 6.62668046 L45.7458564 3.79731127 L41.7679558 22.7838676 C50.9760589 23.081696 59.2265193 25.9110651 65.1933702 30.3040331 C66.7403315 28.8148914 68.8766114 27.8469493 71.2338858 27.8469493 C76.0957643 27.8469493 80 31.7931748 80 36.7073423 C80 40.3557394 77.8637201 43.4084798 74.8434622 44.6742503 C74.9907919 45.5677353 75.0644567 46.4612203 75.0644567 47.3547053 C75.0644567 60.9803516 59.373849 72 40 72 C20.626151 72 4.93554328 60.9803516 4.93554328 47.3547053 C4.93554328 46.4612203 5.0092081 45.5677353 5.15653775 44.6742503 C2.13627993 43.3340228 0 40.2068252 0 36.6328852 C0 31.7187177 3.90423573 27.7724922 8.76611418 27.7724922 C11.1233886 27.7724922 13.2596685 28.7404343 14.8066298 30.229576 C20.9208103 25.762151 29.2449355 23.0072389 38.6003683 22.7094105 L43.0202578 1.56359876 C43.0939227 1.19131334 43.3149171 0.819027921 43.6832413 0.59565667 C44.0515654 0.372285419 44.4935543 0.297828335 44.8618785 0.372285419 L59.4475138 3.49948294 C60.4788214 1.41468459 62.6151013 0 65.0460405 0 Z M54.732965 57.3319545 C54.1436464 56.6618407 53.1123389 56.6618407 52.4493554 57.3319545 C49.7237569 60.0868666 43.9042357 61.0548087 39.8526703 61.0548087 C35.801105 61.0548087 30.0552486 60.1613237 27.3296501 57.4064116 C26.7403315 56.7362978 25.7090239 56.7362978 25.0460405 57.4064116 C24.3830571 58.0020683 24.3830571 59.0444674 25.0460405 59.7145812 C29.3186004 64.033092 37.4953959 64.3309204 39.9263352 64.3309204 L40.0700072 64.3305773 C42.6644428 64.3182502 50.6146843 63.9516107 54.8066298 59.7145812 C55.4696133 59.1189245 55.4696133 58.0765253 54.732965 57.3319545 Z M26.2246777 36.7073423 C22.7624309 36.7073423 19.9631676 39.5367115 19.9631676 43.0361944 C19.9631676 46.5356774 22.7624309 49.3650465 26.2246777 49.3650465 C29.6869245 49.3650465 32.4861878 46.5356774 32.4861878 43.0361944 C32.4861878 39.5367115 29.6869245 36.7073423 26.2246777 36.7073423 Z M53.7016575 36.7073423 C50.2394107 36.7073423 47.4401473 39.5367115 47.4401473 43.0361944 C47.4401473 46.5356774 50.2394107 49.3650465 53.7016575 49.3650465 C57.1639042 49.3650465 59.9631676 46.5356774 59.9631676 43.0361944 C59.9631676 39.5367115 57.1639042 36.7073423 53.7016575 36.7073423 Z" transform="translate(24 27)" fill="#FAFAFA" />
    </g>
</svg>
