<?xml version="1.0" encoding="UTF-8"?>
<svg viewBox="0 0 128 128" xmlns="http://www.w3.org/2000/svg">
    <defs>
        <clipPath id="telegram-background">
            <path d="M100 0 C115.463973 -2.84068575e-15 128 12.536027 128 28 L128 100 C128 115.463973 115.463973 128 100 128 L28 128 C12.536027 128 1.8937905e-15 115.463973 0 100 L0 28 C-1.8937905e-15 12.536027 12.536027 2.84068575e-15 28 0 L100 0 Z" />
        </clipPath>

        <linearGradient id="telegram-gradient" x1="55px" y1="0px" x2="55px" y2="109.184174px" gradientUnits="userSpaceOnUse">
            <stop stop-color="#2AABEE" offset="0%" />
            <stop stop-color="#219ED9" offset="100%" />
        </linearGradient>
    </defs>

    <g clip-path="url(#telegram-background)">
        <path d="M100,0 C115.463973,-2.84068575e-15 128,12.536027 128,28 L128,100 C128,115.463973 115.463973,128 100,128 L28,128 C12.536027,128 1.8937905e-15,115.463973 0,100 L0,28 C-1.8937905e-15,12.536027 12.536027,2.84068575e-15 28,0 L100,0 Z" fill="#FAFAFA" stroke="#000000" stroke-width="2" />
        <path d="M55,0 C85.3756612,0 110,24.6243388 110,55 C110,85.3756612 85.3756612,110 55,110 C24.6243388,110 0,85.3756612 0,55 C0,24.6243388 24.6243388,0 55,0 Z M77.487457,33.11 L77.3552331,33.1137835 C75.2798052,33.1956231 71.9234192,34.3841651 56.9708938,40.6034377 C51.6213323,42.8285054 40.929743,47.4338354 24.8961261,54.4194276 C22.2925168,55.454796 20.9286316,56.4676848 20.8044702,57.458094 C20.5660932,59.3595754 23.3036174,59.951533 26.7479967,61.0711649 C29.5562029,61.9840021 33.3337343,63.0519286 35.2975176,63.0943551 C37.0788567,63.1328399 39.0670344,62.3984485 41.2620508,60.8911808 C56.2427572,50.7787801 63.9758634,45.6674837 64.4613693,45.5572918 C64.8038852,45.4795532 65.2785285,45.3818069 65.6001214,45.6676474 C65.9217143,45.9534879 65.8901001,46.4948149 65.856035,46.6400391 C65.5836588,47.8012127 51.51103,60.6013565 50.7011408,61.4425419 C50.2854392,61.8743073 49.8620594,62.283563 49.4537273,62.677239 L49.1839845,62.9374577 C46.6918471,65.3460426 44.9778152,67.2110702 49.5165081,70.2020014 C54.215261,73.2984099 56.9499575,75.2737058 61.7906732,78.4468561 C64.8841727,80.4746838 67.3095152,82.8793832 70.503468,82.5854707 C71.973147,82.4502285 73.4912288,81.0682776 74.262208,76.9466794 C76.0842614,67.2061141 79.6657408,46.1012735 80.4934489,37.4044733 C80.5659667,36.6425211 80.4747406,35.6673733 80.4014806,35.2393062 C80.3282207,34.8112391 80.1751277,34.2013331 79.6187091,33.7498378 C78.9597423,33.2151317 77.9424383,33.1023737 77.487457,33.11 Z" fill="url(#telegram-gradient)" transform="translate(8.999999999999993 8.999999999999993)" />
    </g>
</svg>
