<?xml version="1.0" encoding="UTF-8"?>
<svg viewBox="0 0 128 128" xmlns="http://www.w3.org/2000/svg">
    <path d="M100 0 C115.463973 -2.84068575e-15 128 12.536027 128 28 L128 100 C128 115.463973 115.463973 128 100 128 L28 128 C12.536027 128 1.8937905e-15 115.463973 0 100 L0 28 C-1.8937905e-15 12.536027 12.536027 2.84068575e-15 28 0 L100 0 Z" fill="#0D1624" />
    <path d="M30.6073845 0 L30.6073845 20.6165539 L45.4131065 20.6165539 L45.4131065 35.7263773 L30.6073845 35.7263773 L30.6073845 56.6345788 C30.6073845 62.9018977 33.7819447 65.0684221 38.8327856 65.0684221 L46 65.0684221 L46 81 L32.4303112 81 C20.2122559 81 11.1065146 74.7317946 11.1065146 59.7380984 L11.1065146 35.7263773 L0 35.7263773 L0 22.725458 C12.2180553 19.5616587 17.3311425 9.07830455 17.918036 0 L30.6073845 0 Z" transform="translate(41 24)" fill="#FFFEFE" />
</svg>
