<?xml version="1.0" encoding="UTF-8"?>
<svg viewBox="0 0 128 128" xmlns="http://www.w3.org/2000/svg">
    <path d="M100 0 C115.463973 -2.84068575e-15 128 12.536027 128 28 L128 100 C128 115.463973 115.463973 128 100 128 L28 128 C12.536027 128 1.8937905e-15 115.463973 0 100 L0 28 C-1.8937905e-15 12.536027 12.536027 2.84068575e-15 28 0 L100 0 Z" fill="#00ABF1" />
    <path d="M61.619002 0 C66.8692228 0 71.6163566 2.23710243 74.9451259 5.81939687 C79.1052197 4.99246851 83.0140856 3.46061238 86.5420067 1.34869595 C85.1779277 5.64993389 82.2821792 9.26248958 78.5140767 11.5432319 C82.2076946 11.0972767 85.7255161 10.1075747 89 8.64101915 C86.5533687 12.3373507 83.455628 15.5816748 79.8907802 18.180638 C79.9245508 18.9715714 79.9428563 19.7656902 79.9428563 20.5664984 C79.9428563 44.9188379 61.5760787 73 27.9910777 73 C17.680004 73 8.082531 69.9487108 0 64.7176562 C1.42941087 64.8899861 2.88280832 64.9775844 4.35514254 64.9775844 C12.9120397 64.9775844 20.785635 62.0310947 27.0331925 57.0873627 C19.0447142 56.9386048 12.3006975 51.6097587 9.97778653 44.2897225 C11.0915845 44.5025069 12.2344188 44.6213221 13.4126018 44.6213221 C15.0758819 44.6213221 16.6896107 44.394522 18.2219113 43.9756426 C9.86984691 42.2797387 3.57526304 34.8319683 3.57526304 25.9036265 C3.57526304 25.8259029 3.57526304 25.7481793 3.57620988 25.6723669 C6.03988425 27.0522797 8.85483579 27.8804823 11.8465306 27.9766812 C6.94664014 24.6718346 3.72423233 19.0320939 3.72423233 12.6383705 C3.72423233 9.25898565 4.62436035 6.0942964 6.19642825 3.37237696 C15.2024426 14.5238054 28.6554429 21.8588129 43.8316897 22.6293597 C43.5198641 21.2787525 43.3579547 19.873038 43.3579547 18.4290988 C43.3579547 8.25208251 51.5342227 0 61.619002 0 Z" transform="translate(21 29)" fill="#FAF9FA" />
</svg>
