<?xml version="1.0" encoding="UTF-8"?>
<svg viewBox="0 0 128 128" xmlns="http://www.w3.org/2000/svg">
    <path d="M100 0 C115.463973 -2.84068575e-15 128 12.536027 128 28 L128 100 C128 115.463973 115.463973 128 100 128 L28 128 C12.536027 128 1.8937905e-15 115.463973 0 100 L0 28 C-1.8937905e-15 12.536027 12.536027 2.84068575e-15 28 0 L100 0 Z" fill="#25D366" />
    <path d="M44.1845082 0 C55.9055383 0.00286666667 66.9055363 4.4462 75.1775348 12.5015333 C83.452372 20.554 88.0056615 31.2667333 87.9999894 42.6474 C87.991468 66.1426 68.3362457 85.2632667 44.1845082 85.2632667 L44.1674759 85.2632667 C36.8753227 85.2682833 29.6906747 83.4878756 23.2291571 80.0746 L0 86 L6.21677307 63.9180667 C2.3845157 57.4594667 0.363354773 50.1265333 0.369032191 42.613 C0.377548319 19.1178 20.0327706 0 44.1845082 0 Z M44.1987017 7.1982 C24.1119956 7.1982 7.77238569 23.0824 7.76386602 42.613 C7.76084239 49.3106749 9.69675697 55.8631486 13.3334169 61.4642 L14.1992232 62.8029333 L10.5202562 75.8749333 L24.2993505 72.3604 L25.6335438 73.1286667 C31.2258008 76.3565333 37.6356061 78.0650667 44.1703146 78.0650667 L44.1816694 78.0650667 C64.2570207 78.0650667 80.5937919 62.1751333 80.6023144 42.6445333 C80.6079855 33.1788 76.8239861 24.2778 69.9457938 17.5841333 C63.0676015 10.8904667 53.9241193 7.20106667 44.1987017 7.1982 Z M28.6652852 22.9276 C29.4005108 22.9276 30.1272204 22.9362 30.7659299 22.9648667 C30.8123281 22.9672391 30.85982 22.9681253 30.9083244 22.9683999 L31.1331563 22.9684581 C31.7494768 22.973344 32.4941165 23.0790391 33.2270908 24.7966667 C33.5988082 25.6601532 34.1790744 27.0348339 34.7560495 28.4000281 L34.9861618 28.9443656 C35.7492704 30.7489095 36.4563143 32.4131676 36.6051547 32.7029333 C36.8805095 33.2332667 37.0621869 33.8582 36.6988321 34.5662667 C36.3297999 35.2772 36.1481225 35.7215333 35.6030903 36.3436 C35.0580582 36.9656667 34.4534131 37.7339333 33.9623165 38.2069333 C33.4144456 38.7372667 32.843865 39.3134667 33.4825746 40.377 C34.1212842 41.4462667 36.3184451 44.9321333 39.5744445 47.7529333 C43.7530244 51.3821333 47.2815399 52.5058667 48.3772816 53.0390667 C49.4730233 53.5694 50.1117329 53.4834 50.7532812 52.7724667 C51.389152 52.0644 53.4897968 49.665 54.2165063 48.5986 C54.9460546 47.5322 55.6756029 47.7156667 56.6776672 48.0682667 C57.6825702 48.4266 63.0647628 51.0037333 64.1605046 51.5340667 C65.2562463 52.0701333 65.9886333 52.3367333 66.2554719 52.7810667 C66.527988 53.2254 66.527988 55.3582 65.6139236 57.8436 C64.7055367 60.329 60.3282472 62.5965333 58.2276024 62.9032667 C56.3426995 63.1756 53.9553451 63.2931333 51.3323778 62.4818667 C49.739862 61.9888 47.7016688 61.3323333 45.0900564 60.2401333 C34.1070906 55.6248 26.9336726 44.8662 26.3858017 44.1581333 C25.8379308 43.4472 21.9148348 38.3846667 21.9148348 33.1415333 C21.9148348 27.9012667 24.7450278 25.327 25.7470921 24.2606 C26.7519952 23.1942 27.9414143 22.9276 28.6652852 22.9276 Z" transform="translate(20.0 20.0)" fill="#FAFAFA" />
</svg>
